
<svg xmlns="http://www.w3.org/2000/svg" version="1.1" xmlns:xlink="http://www.w3.org/1999/xlink" preserveAspectRatio="none" x="0px" y="0px" width="60px" height="60px" viewBox="0 0 60 60">
<defs>
<g id="Layer0_0_FILL">
<path fill="#FFFFFF" stroke="none" d="
M 13.2 -3.45
L 12.75 -3.1 12.5 -2.65
Q 10.65 1.65 7.3 5.85
L 0.85 14.35
Q -1.15 17.6 -1.9 21.25 -2.75 25.1 -2.05 28.65 -1.7 30.4 -0.8 32 0.05 33.65 1.4 34.9 2.9 36.35 5.05 37.3 6.95 38.15 9.3 38.65 13.9 39.5 18.35 38.05 21.3 37.15 23.5 35.45
L 25.7 33.3
Q 27.1 31.7 27.95 29.6 28.7 27.65 28.95 25.5 29.4 21.25 26.95 16.75 25.35 13.6 21.2 8.75
L 15.2 1 13.3 -3.4 13.2 -3.45 Z"/>
</g>

<g id="Layer0_0_MEMBER_0_FILL">
<path fill="#004C76" stroke="none" d="
M 13.85 1.6
L 13.2 0.05 13.1 0 12.75 0.3 12.5 0.7
Q 10.95 4.45 8.15 8.15
L 2.75 15.6
Q 1.05 18.45 0.4 21.65 -0.3 25 0.3 28.1 0.6 29.65 1.35 31.05 2.05 32.5 3.2 33.6 4.45 34.85 6.25 35.7 7.85 36.45 9.85 36.85 13.7 37.6 17.45 36.35 19.9 35.55 21.75 34.05
L 23.6 32.2
Q 24.8 30.8 25.5 28.95 26.15 27.25 26.35 25.35 26.7 21.65 24.65 17.7 23.3 14.95 19.85 10.7
L 14.8 3.9
Q 14.45 3.3 13.85 1.6
M 23.1 16.8
L 23.95 18.4
Q 24.9 20.35 25.25 22.25 25.6 24.2 25.25 26.2 24.95 28.2 23.95 29.95
L 23.8 30.25 23.65 30.5
Q 21.9 33.4 18.55 34.95 15.85 36.15 13 36.25
L 10.9 36.1 8.1 35.45 7.15 35.1
Q 5.3 34.35 4 33.1
L 3.15 32.2 2.1 30.5
Q 1.45 29.1 1.2 27.5 0.65 24.5 1.5 21.2 2.25 18.2 4 15.3
L 8.05 9.85 8.1 9.75 10.7 6.25 12.15 3.8 12.25 3.5 12.3 3.45 12.75 2.4 12.8 2.2 12.85 2.3 12.95 2.65 16.5 8.05 23.1 16.8 Z"/>

<path fill="#57D7ED" stroke="none" d="
M 4 15.3
Q 2.25 18.2 1.5 21.2 0.65 24.5 1.2 27.5 1.45 29.1 2.1 30.5
L 3.15 32.2
Q 1.75 29.8 1.75 25.15 1.75 20.65 4.35 15.65
L 8.05 9.85 4 15.3
M 8.45 14.8
L 8.1 14.75 7.3 17.05
Q 6.3 20.25 6.3 23.2 6.3 25.6 8.55 27.45 10.75 29.3 13.45 29.3 15.95 29.3 17.4 27.9 18.8 26.5 18.8 24.35 18.8 21.55 14 18.4 10.4 16.05 9.5 14.25 9 14.8 8.45 14.8
M 9 17.2
L 8.6 18.2 7.65 18.9 7.3 18.85 7.2 17.8
Q 7.2 16.95 8.1 16.55 9 16.1 9 17.2 Z"/>

<path fill="#3EC3E4" stroke="none" d="
M 4.7 21.2
L 5.5 24.65 5.35 25.7
Q 6 27.1 7.2 28.2 9.7 30.45 14.05 30.45 16.7 30.45 18.65 28.6 20.6 26.7 20.6 24.1 20.6 20.8 15.75 16 11.05 11.4 10.2 9.4 8.25 11.15 6.45 15.25 4.95 18.7 4.7 21.2
M 8.1 14.75
Q 7.7 14.6 7.9 14.1 7.9 13.3 8.55 12.55 9.25 11.75 10.15 11.7
L 10.2 12.45 9.7 13.95 9.5 14.25
Q 10.4 16.05 14 18.4 18.8 21.55 18.8 24.35 18.8 26.5 17.4 27.9 15.95 29.3 13.45 29.3 10.75 29.3 8.55 27.45 6.3 25.6 6.3 23.2 6.3 20.25 7.3 17.05
L 8.1 14.75 Z"/>

<path fill="#EDFFFF" stroke="none" d="
M 8.6 18.2
L 9 17.2
Q 9 16.1 8.1 16.55 7.2 16.95 7.2 17.8
L 7.3 18.85 7.65 18.9 8.6 18.2
M 7.9 14.1
Q 7.7 14.6 8.1 14.75
L 8.45 14.8
Q 9 14.8 9.5 14.25
L 9.7 13.95 10.2 12.45 10.15 11.7
Q 9.25 11.75 8.55 12.55 7.9 13.3 7.9 14.1
M 6 16.15
L 6 15.9
Q 3.9 17.3 2.85 19.7 1.95 21.7 1.95 23.85 1.9 24.65 2.15 25.35
L 2.3 25.7
Q 2.7 26.85 3.8 26.85
L 4.55 26.7
Q 5.1 26.45 5.3 25.85
L 5.35 25.7 5.5 24.65 4.7 21.2 4.6 20.25
Q 4.6 17.85 6 16.15
M 23.7 23.3
L 23.6 23.3 23.85 24.5
Q 23.55 26.5 22.25 28.25 19.5 31.95 13.05 31.95 9.8 31.95 7.6 30.55
L 6 29.1 5.9 29.15 5.85 29.1 5.8 29.15
Q 6.55 31.2 8.9 32.3 10.6 33.3 14.1 33.3 17.65 33.3 19.85 32.05
L 21.3 30.95 23.1 29.15 23.65 28.15
Q 24.3 27.05 24.3 26.35
L 24.2 24.3 24.15 25.05 24.1 24.75 23.7 23.3 Z"/>

<path fill="#25AFD9" stroke="none" d="
M 8.1 9.75
L 8.05 9.85 4.35 15.65
Q 1.75 20.65 1.75 25.15 1.75 29.8 3.15 32.2
L 4 33.1
Q 5.3 34.35 7.15 35.1
L 8.1 35.45 10.9 36.1 13 36.25
Q 15.85 36.15 18.55 34.95 21.9 33.4 23.65 30.5
L 23.8 30.25 23.7 30.35 21.35 32.4
Q 17.6 34.95 13.1 34.95 8.1 34.95 5.2 32.4 2.45 29.95 2.3 25.7
L 2.15 25.35
Q 1.9 24.65 1.95 23.85 1.95 21.7 2.85 19.7 3.9 17.3 6 15.9
L 6 16.15
Q 4.6 17.85 4.6 20.25
L 4.7 21.2
Q 4.95 18.7 6.45 15.25 8.25 11.15 10.2 9.4 11.05 11.4 15.75 16 20.6 20.8 20.6 24.1 20.6 26.7 18.65 28.6 16.7 30.45 14.05 30.45 9.7 30.45 7.2 28.2 6 27.1 5.35 25.7
L 5.3 25.85
Q 5.1 26.45 4.55 26.7
L 5.3 27.7
Q 8.65 31.8 13.55 31.8 22.35 31.8 22.35 24.75 22.35 20.65 16.9 15.05 11.45 9.45 10.7 6.25
L 8.1 9.75 Z"/>

<path fill="#007DA7" stroke="none" d="
M 24.85 24.45
Q 24.85 21.45 22.55 17.95 21.2 15.85 17.25 11.45 14.75 8.65 13.75 6.5 13.05 4.9 12.75 2.4
L 12.3 3.45 12.25 3.5 12.15 3.8 10.7 6.25
Q 11.45 9.45 16.9 15.05 22.35 20.65 22.35 24.75 22.35 31.8 13.55 31.8 8.65 31.8 5.3 27.7
L 4.55 26.7 3.8 26.85
Q 2.7 26.85 2.3 25.7 2.45 29.95 5.2 32.4 8.1 34.95 13.1 34.95 17.6 34.95 21.35 32.4
L 23.7 30.35
Q 24.85 27.45 24.85 24.45
M 23.6 23.3
L 23.7 23.3 24.1 24.75 24.15 25.05 24.2 24.3 24.3 26.35
Q 24.3 27.05 23.65 28.15
L 23.1 29.15 21.3 30.95 19.85 32.05
Q 17.65 33.3 14.1 33.3 10.6 33.3 8.9 32.3 6.55 31.2 5.8 29.15
L 5.85 29.1 5.9 29.15 6 29.1 7.6 30.55
Q 9.8 31.95 13.05 31.95 19.5 31.95 22.25 28.25 23.55 26.5 23.85 24.5
L 23.6 23.3 Z"/>

<path fill="#00658F" stroke="none" d="
M 23.95 18.4
L 23.1 16.8 16.5 8.05 12.95 2.65 12.85 2.3 12.8 2.2 12.75 2.4
Q 13.05 4.9 13.75 6.5 14.75 8.65 17.25 11.45 21.2 15.85 22.55 17.95 24.85 21.45 24.85 24.45 24.85 27.45 23.7 30.35
L 23.8 30.25 23.95 29.95
Q 24.95 28.2 25.25 26.2 25.6 24.2 25.25 22.25 24.9 20.35 23.95 18.4 Z"/>
</g>
</defs>

<g transform="matrix( 1, 0, 0, 1, 16.65,12.25) ">
<use xlink:href="#Layer0_0_FILL"/>
</g>

<g transform="matrix( 1, 0, 0, 1, 16.65,12.25) ">
<use xlink:href="#Layer0_0_MEMBER_0_FILL"/>
</g>
</svg>
