
<svg xmlns="http://www.w3.org/2000/svg" version="1.1" xmlns:xlink="http://www.w3.org/1999/xlink" preserveAspectRatio="none" x="0px" y="0px" width="60px" height="60px" viewBox="0 0 60 60">
<defs>
<g id="Layer0_0_FILL">
<path fill="#000000" stroke="none" d="
M 14.35 -13.1
L 13.05 -13.9 10.65 -14.95 7.65 -15.75
Q 7.15 -17.35 5.5 -18.55 2.6 -20.6 -0.45 -19.15
L -0.6 -19.25
Q -1.2 -19.75 -2.05 -19.95 -2.45 -21.9 -4.9 -22.45
L -9.3 -22.2
Q -9.75 -23.3 -11.1 -23.85
L -13.6 -23.95
Q -14.75 -23.45 -15.35 -21.95
L -15.85 -20.2 -16.25 -20.15
Q -18.75 -18.4 -19.65 -17 -20.45 -15.65 -20.05 -14.35 -22.15 -13.65 -22.05 -11.55
L -22 -11.5
Q -21.9 -10.1 -21.1 -8.9 -23.5 -7 -22.8 -4.3 -22.15 -1.9 -19.45 0.1
L -19.25 0.25 -19.4 0.55 -18.9 3.05 -18.55 3.3 -15.85 3.55
Q -14.25 3.75 -13.2 4.35 -12.35 4.85 -11.15 6.35
L -9.35 8.65
Q -8.1 10 -6 11 -4.5 11.7 -2.2 12.4
L 2.75 13.7 4.45 14.35
Q 6.2 15 7.55 15.9 9.65 17.4 11.75 20.2
L 12.05 20.6 13.8 23.4
Q 13.65 23.65 13.75 24.25 16.2 20.8 17.2 18.75
L 17.35 18.55 20.3 12.1
Q 23.35 5.05 22.8 0.05
L 22.45 -2.05
Q 21.3 -6.65 17.65 -10.35
L 17.45 -10.6 14.35 -13.1 Z"/>
</g>

<g id="Layer0_0_MEMBER_0_FILL">
<path fill="#000000" stroke="none" d="
M 14.35 -13.1
L 13.05 -13.9 10.65 -14.95 7.65 -15.75
Q 7.15 -17.35 5.5 -18.55 2.6 -20.6 -0.45 -19.15
L -0.6 -19.25
Q -1.2 -19.75 -2.05 -19.95 -2.45 -21.9 -4.9 -22.45
L -9.3 -22.2
Q -9.75 -23.3 -11.1 -23.85
L -13.6 -23.95
Q -14.75 -23.45 -15.35 -21.95
L -15.85 -20.2 -16.25 -20.15
Q -18.75 -18.4 -19.65 -17 -20.45 -15.65 -20.05 -14.35 -22.15 -13.65 -22.05 -11.55
L -22 -11.5
Q -21.9 -10.1 -21.1 -8.9 -23.5 -7 -22.8 -4.3 -22.15 -1.9 -19.45 0.1
L -19.25 0.25 -19.4 0.55 -18.9 3.05 -18.55 3.3 -15.85 3.55
Q -14.25 3.75 -13.2 4.35 -12.35 4.85 -11.15 6.35
L -9.35 8.65
Q -8.1 10 -6 11 -4.5 11.7 -2.2 12.4
L 2.75 13.7 4.45 14.35
Q 6.2 15 7.55 15.9 9.65 17.4 11.75 20.2
L 12.05 20.6 13.8 23.4
Q 13.65 23.65 13.75 24.25 16.2 20.8 17.2 18.75
L 17.35 18.55 20.3 12.1
Q 23.35 5.05 22.8 0.05
L 22.45 -2.05
Q 21.3 -6.65 17.65 -10.35
L 17.45 -10.6 14.35 -13.1
M -9.1 -21.1
L -5.8 -21.3 -4.4 -20.8
Q -2.15 -19.45 -3.85 -16.55 -4.7 -15 -6.95 -14.1 -8.05 -13.6 -10.85 -12.95
L -17.1 -12.6
Q -19.2 -13.05 -19.25 -14.8 -19.3 -16.45 -17.85 -17.85
L -17.65 -18 -16.2 -19.1 -16.05 -19
Q -14.5 -18 -11.55 -19 -9.2 -19.7 -9.1 -21.1
M -14.8 -21
L -13.95 -22.7
Q -13.25 -23.7 -11.85 -23.2 -10.6 -22.65 -10.1 -21.6 -9.65 -20.6 -12.45 -19.85
L -15.25 -19.65 -14.8 -21
M 10.6 -14.1
L 13.1 -12.8 14.9 -11.6 16.95 -9.8 17.3 -9.45
Q 20.75 -5.8 21.7 -1.15
L 22 1.65
Q 22.05 4.25 21.2 7.25
L 21.05 7.7 16.7 18 16.65 18.1 14.55 22.25
Q 13.9 20.3 12.45 18.7 10 15.65 5 13.55 2.7 12.6 -0.15 11.8 -4.2 10.75 -6.6 9.45
L -9.2 7.35 -11.5 4.85
Q -12.9 3.45 -14.5 3.1
L -16.9 2.85
Q -17.95 2.8 -18.35 2.1
L -18.7 0.6
Q -15.85 2.35 -12.05 2.25 -8.4 2.15 -4.45 0.4 -0.15 -1.6 3.05 -4.95 6.55 -8.6 7.65 -12.8 7.95 -14 7.85 -15.05
L 10.6 -14.1
M 0.25 -18.25
L 3.45 -18.45
Q 5.6 -17.85 6.5 -16.2
L 6.85 -15.3
Q 7.1 -14.15 6.65 -12.55 6.25 -11.1 5.05 -9.05 3.4 -6.2 0.45 -3.85 -2.2 -1.7 -5.55 -0.2 -12.35 2.75 -17.65 0.1 -20.65 -1.45 -21.65 -3.65 -22.7 -6.1 -20.6 -8.3
L -20.3 -8.05
Q -17 -5.05 -9.4 -6.95 -3.2 -8.4 -0.2 -12.45 1.3 -14.6 0.75 -17
L 0.25 -18.25
M -0.75 -17.95
Q -0.1 -17.1 -0.25 -15.8
L -0.3 -15.35 -0.3 -15.25
Q -0.7 -13.4 -2.3 -11.8 -3.3 -10.75 -4.9 -9.8 -6 -9.2 -7.85 -8.35 -10.7 -7.15 -14.5 -7.05 -18 -6.95 -20.2 -9.05
L -21.2 -10.5
Q -21.75 -12.2 -19.95 -13.9
L -19.2 -12.75
Q -17.8 -11.05 -14.35 -11.3 -12.7 -11.35 -9.1 -12.3 -6 -13 -4.15 -14.5 -2 -16.3 -1.9 -18.85
L -0.8 -18 -0.75 -17.95 Z"/>

<path fill="#9DD6C5" stroke="none" d="
M -0.25 -15.8
Q -0.1 -17.1 -0.75 -17.95
L -0.8 -18 -1.3 -16.5 -1.3 -16.45 -0.9 -16.35 -0.4 -15.9 -0.3 -15.35 -0.25 -15.8
M -20.9 -10.3
L -21.2 -10.5 -20.2 -9.05
Q -18 -6.95 -14.5 -7.05 -10.7 -7.15 -7.85 -8.35 -6 -9.2 -4.9 -9.8 -3.3 -10.75 -2.3 -11.8 -0.7 -13.4 -0.3 -15.25
L -1 -14.2
Q -1.55 -14.3 -2.3 -14.75 -4.5 -11.85 -10.8 -10.1 -17.65 -8.2 -20.9 -10.3
M 14.1 14.45
L 13.85 15.15 11.6 13.3 10.3 12.65
Q 10.8400390625 12.9560546875 11.35 13.3 12.6 14.1 13.85 15.2
L 14.6 15.95 14.5 15.8 14.1 14.45
M 16.7 18
L 16.45 17.8 16.65 18.1 16.7 18
M 21.05 7.7
L 21.2 7.25
Q 22.05 4.25 22 1.65
L 21.7 -1.15
Q 20.15 0.6 18.15 1.15
L 16.55 1.25 16.45 1.25 16.45 1.3 16.25 1.35 16.45 1.4 16.35 3.4
Q 16 7.6 14.95 11.6 16.05 9.95 17.5 9 19.2 7.7 21.05 7.7
M 16 -7.5
L 16.05 -7.4 16.1 -7.1 16.2 -6.8 16.75 -7.8 16.95 -8.8 16.95 -9.8 14.9 -11.6 16 -7.5
M 13.1 -12.8
L 10.6 -14.1 10.3 -12
Q 9.75 -9.45 7.95 -6.7 5.55 -3.05 -1.3 0.95 -7.8 4.7 -10.15 3.9
L -9.1 5.4 -7.7 6.4
Q -5.7 7.75 -2.55 8.35
L 6.75 10.95 6.85 11
Q 7.3953125 11.197265625 7.9 11.4
L 6.8 10.85
Q 10.35 4.95 11.9 -0.85
L 11.85 -0.85 11.95 -1.45 11.95 -1.6 12 -2.1 12.3 -2.65 12.35 -2.85
Q 13.25 -7.15 13.1 -12.8
M 5.4 6.2
Q 4.3 7.9 2.05 8.3 -0.15 8.8 -1.95 7.6 -2.95 6.95 -3.4 6 -4.1 4.55 -3.15 3.1 -2.15 1.6 -0.35 1
L 2.5 0.9 3.55 1.2
Q 5 2.15 5.5 2.85 6.6 4.35 5.4 6.2
M 6.6 -0.5
L 7.55 -1.55 7.2 -1.4 7.8 -1.7 8.45 -1.6 8.85 -1
Q 9.1 -0.4 8.85 -0.05 8.25 0.85 7.35 0.25
L 6.85 -0.2 6.6 -0.5
M -10.15 3.9
L -10.2 3.8 -10.3 3.8 -10.15 3.9
M -13.95 -22.7
L -14.8 -21 -15.25 -19.65 -12.45 -19.85
Q -9.65 -20.6 -10.1 -21.6 -10.6 -22.65 -11.85 -23.2 -13.25 -23.7 -13.95 -22.7 Z"/>

<path fill="#71C1A9" stroke="none" d="
M -21.2 -10.5
L -20.9 -10.3
Q -17.65 -8.2 -10.8 -10.1 -4.5 -11.85 -2.3 -14.75
L -2.15 -14.95 -2.5 -15.3 -2.5 -15.35 -2.4 -15.6
Q -2.05 -16.1 -1.3 -16.5
L -0.8 -18 -1.9 -18.85
Q -2 -16.3 -4.15 -14.5 -6 -13 -9.1 -12.3 -12.7 -11.35 -14.35 -11.3 -17.8 -11.05 -19.2 -12.75
L -19.95 -13.9
Q -21.75 -12.2 -21.2 -10.5
M 16.65 18.1
L 16.45 17.8 14.6 15.95 13.85 15.2 12.45 18.7
Q 13.9 20.3 14.55 22.25
L 16.65 18.1
M 7.85 -15.05
Q 7.95 -14 7.65 -12.8 6.55 -8.6 3.05 -4.95 -0.15 -1.6 -4.45 0.4 -8.4 2.15 -12.05 2.25 -15.85 2.35 -18.7 0.6
L -18.35 2.1
Q -17.95 2.8 -16.9 2.85
L -14.5 3.1
Q -12.9 3.45 -11.5 4.85
L -9.2 7.35 -6.6 9.45
Q -4.2 10.75 -0.15 11.8 2.7 12.6 5 13.55
L 6.75 10.95 -2.55 8.35
Q -5.7 7.75 -7.7 6.4
L -9.1 5.4 -10.15 3.9 -10.3 3.8 -10.2 3.8 -10.15 3.9
Q -7.8 4.7 -1.3 0.95 5.55 -3.05 7.95 -6.7 9.75 -9.45 10.3 -12
L 10.6 -14.1 7.85 -15.05 Z"/>

<path fill="#F3FAF7" stroke="none" d="
M -1.3 -16.45
L -1.3 -16.5
Q -2.05 -16.1 -2.4 -15.6
L -2.5 -15.35 -2.5 -15.3 -2.15 -14.95 -2.3 -14.75
Q -1.55 -14.3 -1 -14.2
L -0.3 -15.25 -0.3 -15.35 -0.4 -15.9 -0.9 -16.35 -1.3 -16.45
M 12.4 -2.05
L 12.35 -1.95 12.2 -1.4 12.35 -0.65 12.5 -0.6 12.55 -0.55
Q 12.65 -0.35 13.7 0.35 14.65 1 15.55 1.2
L 16.25 1.35 16.45 1.3 16.45 1.25 16.55 1.25
Q 16.65 -2.8 16.1 -6.35
L 12.4 -2.05 Z"/>

<path fill="#1256A1" stroke="none" d="
M 3.45 -18.45
L 0.25 -18.25 0.75 -17
Q 1.3 -14.6 -0.2 -12.45 -3.2 -8.4 -9.4 -6.95 -17 -5.05 -20.3 -8.05
L -20.6 -8.3
Q -22.7 -6.1 -21.65 -3.65 -20.65 -1.45 -17.65 0.1 -12.35 2.75 -5.55 -0.2 -2.2 -1.7 0.45 -3.85 3.4 -6.2 5.05 -9.05 6.25 -11.1 6.65 -12.55 7.1 -14.15 6.85 -15.3
L 6.5 -16.2
Q 5.6 -17.85 3.45 -18.45
M 2.35 -12.65
L 2.75 -13.8 2.1 -11.25
Q 1.7 -10.05 0.9 -8.85 -2.75 -3.3 -7.45 -1.8 -12.5 -0.1 -17.55 -3.45
L -18 -3.8 -18.3 -4.45 -18 -4.25
Q -13.2 -2.45 -7.8 -4.1 -1.85 -6 1.7 -11.4
L 2.35 -12.65
M -5.8 -20.85
L -5.8 -21.3 -9.1 -21.1
Q -9.2 -19.7 -11.55 -19 -14.5 -18 -16.05 -19
L -16.2 -19.1 -17.65 -18 -17.65 -17.45 -17.1 -16.75
Q -15.35 -15.6 -11.55 -16.5 -7.6 -17.4 -6.15 -19.6 -5.8 -20.1 -5.8 -20.85 Z"/>

<path fill="#0C8AC4" stroke="none" d="
M 2.75 -13.8
L 2.35 -12.65 1.7 -11.4
Q -1.85 -6 -7.8 -4.1 -13.2 -2.45 -18 -4.25
L -18.3 -4.45 -18 -3.8 -17.55 -3.45
Q -12.5 -0.1 -7.45 -1.8 -2.75 -3.3 0.9 -8.85 1.7 -10.05 2.1 -11.25
L 2.75 -13.8
M -5.8 -21.3
L -5.8 -20.85
Q -5.8 -20.1 -6.15 -19.6 -7.6 -17.4 -11.55 -16.5 -15.35 -15.6 -17.1 -16.75
L -17.65 -17.45 -17.65 -18 -17.85 -17.85
Q -19.3 -16.45 -19.25 -14.8 -19.2 -13.05 -17.1 -12.6
L -10.85 -12.95
Q -8.05 -13.6 -6.95 -14.1 -4.7 -15 -3.85 -16.55 -2.15 -19.45 -4.4 -20.8
L -5.8 -21.3 Z"/>

<path fill="#95D0BE" stroke="none" d="
M 7.9 11.4
Q 7.3953125 11.197265625 6.85 11
L 6.75 10.95 5 13.55
Q 10 15.65 12.45 18.7
L 13.85 15.2
Q 12.6 14.1 11.35 13.3 10.8400390625 12.9560546875 10.3 12.65 9.154296875 11.953125 7.9 11.4 Z"/>

<path fill="#BDE3D7" stroke="none" d="
M 14.95 11.6
L 14.85 11.8
Q 14 13.1 14.1 14.45
L 14.5 15.8 14.6 15.95 16.45 17.8 16.7 18 21.05 7.7
Q 19.2 7.7 17.5 9 16.05 9.95 14.95 11.6
M 17.3 -9.45
L 16.95 -9.8 16.95 -8.8 16.75 -7.8 16.2 -6.8 16.2 -6.45 16.1 -6.35
Q 16.65 -2.8 16.55 1.25
L 18.15 1.15
Q 20.15 0.6 21.7 -1.15 20.75 -5.8 17.3 -9.45
M 7.55 -1.55
L 6.6 -0.5 6.85 -0.2 7.35 0.25
Q 8.25 0.85 8.85 -0.05 9.1 -0.4 8.85 -1
L 8.45 -1.6 7.8 -1.7 7.2 -1.4 7.55 -1.55
M 2.05 8.3
Q 4.3 7.9 5.4 6.2 6.6 4.35 5.5 2.85 5 2.15 3.55 1.2
L 2.5 0.9 -0.35 1
Q -2.15 1.6 -3.15 3.1 -4.1 4.55 -3.4 6 -2.95 6.95 -1.95 7.6 -0.15 8.8 2.05 8.3 Z"/>

<path fill="#D6EDE6" stroke="none" d="
M 16.1 -6.35
L 16.2 -6.45 16.2 -6.8 16.1 -7.1 16.05 -7.4 16 -7.5 14.9 -11.6 13.1 -12.8
Q 13.25 -7.15 12.35 -2.85
L 12.3 -2.65 12 -2.1 11.95 -1.6 11.95 -1.45 11.85 -0.85 11.9 -0.85
Q 10.35 4.95 6.8 10.85
L 7.9 11.4
Q 9.154296875 11.953125 10.3 12.65
L 11.6 13.3 13.85 15.15 14.1 14.45
Q 14 13.1 14.85 11.8
L 14.95 11.6
Q 16 7.6 16.35 3.4
L 16.45 1.4 16.25 1.35 15.55 1.2
Q 14.65 1 13.7 0.35 12.65 -0.35 12.55 -0.55
L 12.5 -0.6 12.35 -0.65 12.2 -1.4 12.35 -1.95 12.4 -2.05 16.1 -6.35 Z"/>
</g>

<path id="Layer0_0_1_STROKES" stroke="#FFFFFF" stroke-width="6" stroke-linejoin="round" stroke-linecap="round" fill="none" d="
M 13.05 -13.9
L 10.65 -14.95 7.65 -15.75
Q 7.15 -17.35 5.5 -18.55 2.6 -20.6 -0.45 -19.15
L -0.6 -19.25
Q -1.2 -19.75 -2.05 -19.95 -2.45 -21.9 -4.9 -22.45
L -9.3 -22.2
Q -9.75 -23.3 -11.1 -23.85
L -13.6 -23.95
Q -14.75 -23.45 -15.35 -21.95
L -15.85 -20.2 -16.25 -20.15
Q -18.75 -18.4 -19.65 -17 -20.45 -15.65 -20.05 -14.35 -22.15 -13.65 -22.05 -11.55
L -22 -11.5
Q -21.9 -10.1 -21.1 -8.9 -23.5 -7 -22.8 -4.3 -22.15 -1.9 -19.45 0.1
L -19.25 0.25 -19.4 0.55 -18.9 3.05 -18.55 3.3 -15.85 3.55
Q -14.25 3.75 -13.2 4.35 -12.35 4.85 -11.15 6.35
L -9.35 8.65
Q -8.1 10 -6 11 -4.5 11.7 -2.2 12.4
L 2.75 13.7 4.45 14.35
Q 6.2 15 7.55 15.9 9.65 17.4 11.75 20.2
L 12.05 20.6 13.8 23.4
Q 13.65 23.65 13.75 24.25 16.2 20.8 17.2 18.75
L 17.35 18.55 20.3 12.1
Q 23.35 5.05 22.8 0.05
L 22.45 -2.05
Q 21.3 -6.65 17.65 -10.35
L 17.45 -10.6 14.35 -13.1 13.05 -13.9 Z"/>
</defs>

<g transform="matrix( 1, 0, 0, 1, 30,29.85) ">
<use xlink:href="#Layer0_0_FILL"/>

<use xlink:href="#Layer0_0_1_STROKES"/>
</g>

<g transform="matrix( 1, 0, 0, 1, 30,29.85) ">
<use xlink:href="#Layer0_0_MEMBER_0_FILL"/>
</g>
</svg>
