
<svg xmlns="http://www.w3.org/2000/svg" version="1.1" xmlns:xlink="http://www.w3.org/1999/xlink" preserveAspectRatio="none" x="0px" y="0px" width="60px" height="60px" viewBox="0 0 60 60">
<defs>
<g id="Layer0_0_FILL">
<path fill="#4B0909" stroke="none" d="
M 8.6 -11.2
L 8.4 -11.25 8.2 -11.2 8.25 -11.05 7.75 -10.3 8.05 -9.75 7.75 -9.4 7.9 -9.1 7.65 -8.85 7 -8.35 7.1 -8.6 6.6 -9 6.5 -9.7 6.35 -10.2 6.2 -10.2
Q 5.35 -9.7 5.1 -8.85 4.9 -8.05 5.1 -7.2 5.35 -6.45 6 -6
L 6.2 -5.95 6.15 -5.85
Q 5.95 -5.5 6.2 -5.3
L 5.3 -4.15 5.15 -4.1 5.15 -4.05 3.65 -4.5 3.15 -4.6 3 -4.9 3 -4.95 2.9 -5.15
Q 2.8 -5.45 2.85 -5.7
L 2.85 -5.85 3.05 -6.15 3.15 -6.45 3.3 -6.45 3.45 -6.5 4.3 -7.05 4.45 -7.2 4.75 -7.9 4.8 -8.35 4.7 -9.1 4.3 -9.75
Q 3.8 -10.2 3.15 -10.3
L 2.9 -10.3 1.9 -10 1.9 -9.95 1.7 -9.85 1.25 -9.35 1.2 -9.2 1.15 -9.15 0.95 -9.55 0.95 -9.6 0.8 -9.75
Q 0.2 -10.3 -0.6 -10.3
L -1 -10.3 -1.65 -9.95 -1.9 -9.75 -2.35 -9.1 -2.5 -8.35
Q -2.5 -7.6 -1.9 -7.05
L -1.6 -6.8 -1.45 -6.7 -1.5 -6.65 -1.7 -5 -1.4 -3.8 -1.35 -3.7 -1.45 -3.65 -1.5 -3.7 -2.35 -3.1 -2.4 -3.1 -2.75 -3.2 -3.1 -3.55 -3.45 -4.4 -3.45 -4.55
Q -3.3 -4.8 -3.4 -5.1
L -3.5 -5.2
Q -2.9 -5.95 -2.8 -6.8
L -2.8 -7.4 -3.2 -8.55
Q -3.7 -9.35 -4.65 -9.6
L -4.8 -9.6 -5.75 -8.25 -6 -7.65 -6.05 -7.65 -5.7 -9 -6.55 -9.1 -6.45 -10.3 -6.65 -10.35 -7.2 -9.9 -8 -8.8 -8.05 -8.6
Q -8.3 -7.75 -8.15 -6.85 -7.95 -5.8 -7.3 -5.1
L -7.1 -4.9
Q -6.4 -4.3 -5.45 -4.25
L -4.9 -4.3 -4.9 -4.25
Q -4.75 -4 -4.45 -4
L -4.3 -3.25 -4.1 -2.8 -3.55 -2.25 -3.2 -2.15 -3.45 -1.1 -3.45 -0.9 -4.8 -0.35 -5.55 0.65 -5.6 0.95 -5.6 1.1 -5.5 1.2 -4.35 0.7 -3.4 0.45 -3.55 0.7
Q -3.95 1.55 -3.65 2.25
L -3.55 2.35 -3.45 2.4 -3.4 2.4 -2.65 1.35 -2.3 1
Q -1.35 1.6 0.15 1.7
L 2.75 1.6
Q 6.15 1.25 6.9 -0.2
L 7.75 0.1 8.75 0.65 8.95 0.6 9 0.55 9 0.4
Q 9 -0.35 8.3 -0.9
L 8 -1.1 8.4 -1.15 9.15 -1.1 9.3 -1.25 9.3 -1.3 9.25 -1.45 9.2 -1.55
Q 8.85 -2.1 8.3 -2.2
L 7.35 -2.2 7.25 -2.35 6.3 -3.45 6.7 -3.85 6.85 -4.1 6.85 -4.2 7.25 -5 7.25 -5.05 7.75 -5.55 7.75 -5.65
Q 8.75 -5.75 9.45 -6.5
L 10.05 -7.6 10.2 -8.25
Q 10.35 -9.25 9.95 -10.1
L 9.4 -10.8 8.6 -11.2
M 1.15 -7.6
L 1.2 -7.55 1.25 -7.4 1.4 -7.2 1.6 -7.05 1.75 -6.85 1.9 -6.75 1.75 -6.45 1.75 -6.4 1.7 -6.3 1.55 -5.5 1.75 -4.65 0.5 -4.5 0.05 -4.35 -0.05 -4.4 -0.1 -4.55 -0.4 -5.15 -0.45 -5.7 -0.4 -6.2 -0.2 -6.45 -0.05 -6.5
Q 0.4 -6.7 0.8 -7.05
L 1 -7.3 1.15 -7.6 Z"/>
</g>

<g id="Layer0_0_MEMBER_0_FILL">
<path fill="#FF3333" stroke="none" d="
M 2.6 -4.7
L 2.55 -4.8 2.5 -5.15 2.5 -5.75 2.2 -5.9 1.9 -6.15 1.85 -5.6
Q 1.85 -5.2 2 -4.95
L 2.15 -4.75 2.6 -4.7
M -2.1 -0.35
L -2.45 -0.35 -2.9 0.15 -3.3 0.8
Q -3.65 1.45 -3.45 2
L -3.4 1.95
Q -3.3 1.35 -2.8 0.75
L -2.1 -0.25 -2.1 -0.35
M -4.35 -8.35
L -4.95 -7.8 -4.3 -7.25 -4.25 -7.05 -5.1 -5.85 -5.3 -5.75 -5.6 -7.15 -6.4 -7.45 -6.05 -8.8 -6.9 -8.85 -6.9 -9.75 -7.25 -9.4 -7.65 -8.85 -7.95 -7.75 -7.4 -6.6 -7.15 -6.25
Q -6.4 -5.25 -5.4 -5.25 -4.4 -5.25 -3.6 -6.2
L -3.25 -6.65
Q -3.1 -7.4 -3.45 -8.1 -3.75 -8.9 -4.55 -9.2
L -4.35 -8.35
M 6 -3.6
L 6.3 -3.9 6.55 -4.3 6.65 -4.55 6.35 -5.05 5.5 -4 5.4 -3.9 6 -3.6
M 4.8 -3.8
Q 2.7 -4.6 0.75 -4.2 -1.1 -3.8 -2.35 -2.6
L -2.75 -2.25 -3 -1.65 -2.8 -1.25 -2.3 -0.65
Q -1.9 -0.7 -1.7 -0.3
L -1.65 -0.3 -1.15 -0.05 2.55 0.45
Q 4.2 0.45 5.7 -0.55
L 6.1 -0.85 6.1 -0.95
Q 6.2 -1.45 6.65 -1.6
L 6.85 -1.6 6.85 -1.9 6.8 -2.35 6.8 -2.4 6.75 -2.4
Q 6.2 -3.25 4.8 -3.8
M 8.65 -10.8
L 8.75 -10.7 9 -10.2 8.9 -10 8.05 -9.45 8.35 -9.05 8.6 -8.5 8.55 -8.3 7.75 -8
Q 7.55 -7.95 7.6 -7.6
L 7.7 -7.1 7.65 -6.95 7.55 -6.85
Q 7.4 -6.85 6.85 -7.15
L 6.35 -7.45 6.35 -7.5 6.75 -8.4 6.25 -8.85 6.15 -9.85
Q 5.6 -9.4 5.4 -8.65
L 5.3 -7.9 5.7 -7.3 6.05 -6.9 6.1 -6.9
Q 6.6 -6.45 7.25 -6.45 8.3 -6.45 9.15 -6.9
L 9.3 -6.95 9.85 -8.5
Q 10.1 -10.25 8.65 -10.8
M -3.4 -0.45
L -3.45 -0.65 -4.6 -0.15 -5.15 0.35 -4.85 0.2 -3.85 -0.15 -3.4 -0.45
M -4.15 -3.7
L -4.15 -3.65 -3.9 -3.05 -3.25 -2.45 -3.05 -2.45 -2.75 -2.75 -3 -2.9 -3.45 -3.3 -3.75 -4.2 -4.15 -3.7
M -4.65 -4.35
L -4.1 -4.45
Q -3.75 -4.7 -3.75 -4.95
L -4.65 -4.35
M 6.8 -1.3
L 6.5 -1.1 6.4 -0.9 8 -0.35 8.6 0.05 8 -0.7 6.8 -1.3
M 7.2 -1.85
L 7.2 -1.65 8 -1.75 8.6 -1.7 8.1 -1.9 7.2 -1.85
M 6.75 -5.35
Q 7.3 -5.25 7.4 -5.6
L 6.35 -5.8 6.35 -5.7
Q 6.2 -5.4 6.75 -5.35
M -1.3 -6.25
L -1.3 -6.2 -1.4 -5.1 -1.05 -4 -1 -4 -1 -3.9 -0.5 -4.15 -0.45 -4.2 -0.5 -4.25 -0.55 -4.35 -0.75 -5.1 -0.75 -5.8 -1.3 -6.25 Z"/>

<path fill="#AE1515" stroke="none" d="
M 2.35 -6.5
L 2.15 -6.55 1.9 -6.15 2.2 -5.9 2.5 -5.75 2.55 -5.9 2.8 -6.45 2.35 -6.5
M -1.95 -0.15
L -2.1 -0.35 -2.1 -0.25 -2.8 0.75
Q -3.3 1.35 -3.4 1.95
L -2.9 1.1 -1.95 0.3
Q -1.8 0.1 -1.95 -0.15
M -3.25 -6.65
L -3.6 -6.2
Q -4.4 -5.25 -5.4 -5.25 -6.4 -5.25 -7.15 -6.25
L -7.4 -6.6 -7.95 -7.75 -7.95 -7.25
Q -7.85 -6.45 -7.35 -5.7
L -7.15 -5.4
Q -6.65 -4.85 -6 -4.7 -5 -4.45 -4.25 -5 -3.55 -5.5 -3.35 -6.4
L -3.25 -6.65
M 6.85 -5
L 6.4 -5.1 6.35 -5.05 6.65 -4.55 6.85 -5
M -3 -0.15
L -2.65 -0.55 -2.45 -0.65 -2.3 -0.65 -2.8 -1.25 -3 -1.65 -3.1 -1.1 -3 -0.15
M 6.1 -0.85
L 5.7 -0.55
Q 4.2 0.45 2.55 0.45
L -1.15 -0.05 -1.65 -0.3
Q -1.4 0.15 -1.8 0.55
L -2.1 0.8 0 1.3 2.55 1.2 4.9 0.75 6.5 -0.2
Q 6.1 -0.4 6.1 -0.85
M 6.1 -6.9
L 6.05 -6.9 5.7 -7.3 5.3 -7.9
Q 5.3 -7.5 5.45 -7.15 5.7 -6.35 6.3 -6 7 -5.65 7.9 -6 8.8 -6.3 9.3 -6.95
L 9.15 -6.9
Q 8.3 -6.45 7.25 -6.45 6.6 -6.45 6.1 -6.9
M -3.4 -0.45
L -3.85 -0.15 -4.85 0.2 -5.15 0.35 -5.35 0.85 -4.45 0.4 -3.25 0.15 -3.2 0.15 -3.2 0.1 -3.4 -0.45
M -4.2 -4
L -4.15 -3.65 -4.15 -3.7 -3.75 -4.2 -3.8 -4.25 -3.95 -4.15 -4.2 -4.05 -4.2 -4
M 6.4 -0.9
Q 6.35 -0.6 6.55 -0.5
L 6.6 -0.5 7.75 -0.2 8.65 0.3 8.6 0.05 8 -0.35 6.4 -0.9
M 7.2 -1.45
L 7.55 -1.3 8.35 -1.45 8.9 -1.4 8.6 -1.7 8 -1.75 7.2 -1.65 7.2 -1.45
M -0.8 -6.5
L -0.85 -6.55 -1.05 -6.6 -1.1 -6.6 -1.15 -6.65 -1.15 -6.55 -1.3 -6.25 -0.75 -5.8 -0.7 -5.95 -0.6 -6.45 -0.6 -6.5 -0.8 -6.5 Z"/>

<path fill="#3A3A3A" stroke="none" d="
M 4.2 -9.75
Q 3.75 -10.2 3.1 -10.3
L 2.85 -10.3 1.85 -10 1.85 -9.95 1.65 -9.85 1.5 -9.75 1.2 -9.35 1.2 -9.3 1.15 -9.2 1.15 -9.15 0.75 -9.75
Q 0.15 -10.3 -0.6 -10.3
L -1.05 -10.25 -1.7 -9.95 -1.95 -9.75 -2.4 -9.15 -2.55 -8.35
Q -2.55 -7.6 -1.95 -7
L -1.65 -6.75 -1.5 -6.7 -1.45 -6.75 -1.15 -6.65 -1.1 -6.6 -1.05 -6.6 -0.85 -6.55 -0.8 -6.5 -0.25 -6.55 -0.3 -6.5 -0.1 -6.55
Q 0.35 -6.65 0.75 -7
L 0.75 -7.05 1.15 -7.55 1.15 -7.5 1.2 -7.4 1.5 -7 1.85 -6.75 2.15 -6.55 2.35 -6.5 2.8 -6.45 3.1 -6.45 3.2 -6.6 3.15 -6.45 3.3 -6.5 3.35 -6.5 4.15 -6.95 4.4 -7.2 4.75 -7.9 4.8 -8.35 4.65 -9.1 4.65 -9.15 4.2 -9.75
M 2.85 -10.05
L 3.6 -9.85 4.05 -9.55 4.4 -9.05 4.55 -8.35 4.35 -7.55 4.05 -7.2 4 -7.15 4 -7.1 3.9 -7.05 3.05 -6.7 2.85 -6.7 2.5 -6.75 2.45 -6.75 2.1 -6.9
Q 1.85 -7 1.7 -7.2
L 1.55 -7.35 1.4 -7.6 1.2 -8.35 1.25 -8.8 1.35 -9.05 1.4 -9.1 1.5 -9.35 1.95 -9.75 2 -9.8 2.85 -10.05
M 0.15 -9.85
L 0.55 -9.55 0.9 -9.1 1.05 -8.35 1 -7.85 0.75 -7.4 0.4 -7.05 0.1 -6.85 -0.6 -6.7
Q -1.3 -6.7 -1.8 -7.2 -2.3 -7.7 -2.3 -8.35
L -2.25 -8.7 -1.8 -9.55
Q -1.3 -10.05 -0.6 -10.05
L 0.15 -9.85 Z"/>

<path fill="#C9C9C9" stroke="none" d="
M 0.4 -7.05
L 0.75 -7.4 1 -7.85 0.35 -7.55 -0.65 -7.5
Q -1.25 -7.6 -1.7 -8
L -2.25 -8.7 -2.3 -8.35
Q -2.3 -7.7 -1.8 -7.2 -1.3 -6.7 -0.6 -6.7
L 0.1 -6.85 0.4 -7.05
M 1.25 -8.8
L 1.2 -8.35 1.4 -7.6 1.55 -7.35 1.7 -7.2
Q 1.85 -7 2.1 -6.9
L 2.45 -6.75 2.5 -6.75 2.85 -6.7 3.05 -6.7 3.9 -7.05 4 -7.1 4 -7.15 4.05 -7.2 4.35 -7.55 3.6 -7.35
Q 2.6 -7.35 1.9 -7.9 1.4 -8.3 1.25 -8.8 Z"/>

<path fill="#FFFFFF" stroke="none" d="
M 0.55 -9.55
L 0.15 -9.85 -0.6 -10.05
Q -1.3 -10.05 -1.8 -9.55
L -2.25 -8.7 -1.7 -8
Q -1.25 -7.6 -0.65 -7.5
L 0.35 -7.55 1 -7.85 1.05 -8.35 0.9 -9.1 0.55 -9.55
M 3.6 -9.85
L 2.85 -10.05 2 -9.8 1.95 -9.75 1.5 -9.35 1.4 -9.1 1.35 -9.05 1.25 -8.8
Q 1.4 -8.3 1.9 -7.9 2.6 -7.35 3.6 -7.35
L 4.35 -7.55 4.55 -8.35 4.4 -9.05 4.05 -9.55 3.6 -9.85 Z"/>

<path fill="#3F0E0E" stroke="none" d="
M 8.15 -11.15
L 8.2 -11.05 7.7 -10.3 8 -9.75 7.7 -9.4 7.9 -9.1 7 -8.35 7.05 -8.6 6.55 -9 6.3 -10.25 6.1 -10.2
Q 5.3 -9.7 5.05 -8.85 4.85 -8.05 5.1 -7.2 5.3 -6.5 6 -6
L 6.1 -5.9 6.1 -5.85
Q 5.95 -5.5 6.1 -5.3
L 5.2 -4.15 5.1 -4.05 3.6 -4.55 3.1 -4.6 3 -4.9 2.95 -4.95 2.85 -5.15
Q 2.75 -5.45 2.8 -5.65
L 2.9 -6 3 -6.15 3.15 -6.45 3.2 -6.6 3.1 -6.45 2.8 -6.45 2.55 -5.9 2.5 -5.75 2.5 -5.15 2.55 -4.8 2.6 -4.7 2.15 -4.75 2 -4.95
Q 1.85 -5.2 1.85 -5.6
L 1.9 -6.15 2.15 -6.55 1.85 -6.75 1.7 -6.5 1.7 -6.4 1.6 -6.3 1.5 -5.55 1.6 -4.9 1.65 -4.85 1.7 -4.65 0.45 -4.5 0 -4.35 -0.1 -4.4 -0.2 -4.55 -0.25 -4.7 -0.45 -5.15 -0.5 -5.65 -0.4 -6.2 -0.3 -6.5 -0.25 -6.55 -0.8 -6.5 -0.6 -6.5 -0.6 -6.45 -0.7 -5.95 -0.75 -5.8 -0.75 -5.1 -0.55 -4.35 -0.5 -4.25 -0.45 -4.2 -0.5 -4.15 -1 -3.9 -1 -4 -1.05 -4 -1.4 -5.1 -1.3 -6.2 -1.3 -6.25 -1.15 -6.55 -1.15 -6.65 -1.45 -6.75 -1.5 -6.7 -1.5 -6.6
Q -1.8 -6 -1.75 -4.95
L -1.4 -3.8 -1.4 -3.7 -1.5 -3.7 -2.4 -3.1 -2.8 -3.2 -3.2 -3.55 -3.5 -4.4 -3.5 -4.55
Q -3.35 -4.8 -3.45 -5.1
L -3.55 -5.2
Q -2.95 -5.9 -2.85 -6.75
L -2.85 -7.4 -3.25 -8.5
Q -3.75 -9.3 -4.7 -9.55
L -4.9 -9.55 -5 -9.45 -5.8 -8.25 -6 -7.6 -6.05 -7.6 -5.75 -9 -6.6 -9.15 -6.5 -10.25 -6.75 -10.3 -7.25 -9.9 -8 -8.8 -8.1 -8.55
Q -8.35 -7.7 -8.2 -6.8 -8 -5.8 -7.35 -5.1
L -7.1 -4.9
Q -6.45 -4.3 -5.5 -4.25
L -4.95 -4.25
Q -4.8 -4 -4.5 -4
L -4.35 -3.25 -4.15 -2.8 -3.6 -2.25 -3.2 -2.15 -3.45 -1.05 -3.45 -0.95 -4.85 -0.3 -5.6 0.65 -5.65 0.95 -5.65 1.1 -5.55 1.2 -4.35 0.7 -3.45 0.45 -3.6 0.75
Q -4 1.55 -3.7 2.25
L -3.6 2.4 -3.45 2.4 -2.7 1.35 -2.35 1
Q -1.35 1.65 0.1 1.75
L 2.7 1.6
Q 6.1 1.25 6.9 -0.15
L 7.7 0.1 8.7 0.65 8.9 0.6 8.95 0.55 8.95 0.4
Q 8.95 -0.35 8.25 -0.9
L 7.95 -1.1 8.35 -1.15 9.1 -1.1 9.25 -1.25 9.25 -1.3 9.2 -1.45 9.15 -1.55 8.25 -2.2 7.3 -2.15 7.2 -2.35 6.25 -3.45 6.65 -3.85 6.8 -4.1 6.85 -4.15 7.2 -5
Q 7.6 -5.1 7.7 -5.55
L 7.7 -5.6
Q 8.7 -5.75 9.4 -6.5
L 10 -7.6 10.15 -8.25
Q 10.3 -9.3 9.85 -10.1
L 9.35 -10.8 8.55 -11.2 8.35 -11.25 8.15 -11.15
M 8 -10.35
L 8 -10.4 8.25 -11 8.65 -10.25 8.2 -9.9 8 -10.35
M 6.85 -8
L 7.35 -8.3 7.85 -8.7 8 -8.9 8.25 -8.5 7.3 -8.15 7.4 -7.15 6.65 -7.55 6.85 -8
M 7.4 -5.6
Q 7.3 -5.25 6.75 -5.35 6.2 -5.4 6.35 -5.7
L 6.35 -5.8 7.4 -5.6
M 7.2 -1.65
L 7.2 -1.85 8.1 -1.9 8.6 -1.7 8.9 -1.4 8.35 -1.45 7.55 -1.3 7.2 -1.45 7.2 -1.65
M 6.5 -1.1
L 6.8 -1.3 8 -0.7 8.6 0.05 8.65 0.3 7.75 -0.2 6.6 -0.5 6.55 -0.5
Q 6.35 -0.6 6.4 -0.9
L 6.5 -1.1
M -4.1 -4.45
L -4.65 -4.35 -3.75 -4.95
Q -3.75 -4.7 -4.1 -4.45
M -4.15 -3.65
L -4.2 -4 -4.2 -4.05 -3.95 -4.15 -3.8 -4.25 -3.75 -4.2 -3.45 -3.3 -3 -2.9 -2.75 -2.75 -3.05 -2.45 -3.25 -2.45 -3.9 -3.05 -4.15 -3.65
M -3.45 -0.65
L -3.4 -0.45 -3.2 0.1 -3.2 0.15 -3.25 0.15 -4.45 0.4 -5.35 0.85 -5.15 0.35 -4.6 -0.15 -3.45 -0.65
M 8.75 -10.7
L 8.65 -10.8
Q 10.1 -10.25 9.85 -8.5
L 9.3 -6.95
Q 8.8 -6.3 7.9 -6 7 -5.65 6.3 -6 5.7 -6.35 5.45 -7.15 5.3 -7.5 5.3 -7.9
L 5.4 -8.65
Q 5.6 -9.4 6.15 -9.85
L 6.25 -8.85 6.75 -8.4 6.35 -7.5 6.35 -7.45 6.85 -7.15
Q 7.4 -6.85 7.55 -6.85
L 7.65 -6.95 7.7 -7.1 7.6 -7.6
Q 7.55 -7.95 7.75 -8
L 8.55 -8.3 8.6 -8.5 8.35 -9.05 8.05 -9.45 8.9 -10 9 -10.2 8.75 -10.7
M 0.75 -4.2
Q 2.7 -4.6 4.8 -3.8 6.2 -3.25 6.75 -2.4
L 6.8 -2.4 6.8 -2.35 6.85 -1.9 6.85 -1.6 6.65 -1.6
Q 6.2 -1.45 6.1 -0.95
L 6.1 -0.85
Q 6.1 -0.4 6.5 -0.2
L 4.9 0.75 2.55 1.2 0 1.3 -2.1 0.8 -1.8 0.55
Q -1.4 0.15 -1.65 -0.3
L -1.7 -0.3
Q -1.9 -0.7 -2.3 -0.65
L -2.45 -0.65 -2.65 -0.55 -3 -0.15 -3.1 -1.1 -3 -1.65 -2.75 -2.25 -2.35 -2.6
Q -1.1 -3.8 0.75 -4.2
M 6.4 -5.1
L 6.85 -5 6.65 -4.55 6.55 -4.3 6.3 -3.9 6 -3.6 5.4 -3.9 5.5 -4 6.35 -5.05 6.4 -5.1
M -4.9 -9.15
L -4.75 -8.9 -4.7 -8.5 -5.3 -7.95 -5.4 -7.8 -5.3 -7.7 -4.6 -7.1 -5.15 -6.25 -5.4 -7.4 -5.75 -7.55 -5.8 -7.6 -4.9 -9.15
M -4.95 -7.8
L -4.35 -8.35 -4.55 -9.2
Q -3.75 -8.9 -3.45 -8.1 -3.1 -7.4 -3.25 -6.65
L -3.35 -6.4
Q -3.55 -5.5 -4.25 -5 -5 -4.45 -6 -4.7 -6.65 -4.85 -7.15 -5.4
L -7.35 -5.7
Q -7.85 -6.45 -7.95 -7.25
L -7.95 -7.75 -7.65 -8.85 -7.25 -9.4 -6.9 -9.75 -6.9 -8.85 -6.05 -8.8 -6.4 -7.45 -5.6 -7.15 -5.3 -5.75 -5.1 -5.85 -4.25 -7.05 -4.3 -7.25 -4.95 -7.8
M -2.45 -0.35
L -2.1 -0.35 -1.95 -0.15
Q -1.8 0.1 -1.95 0.3
L -2.9 1.1 -3.4 1.95 -3.45 2
Q -3.65 1.45 -3.3 0.8
L -2.9 0.15 -2.45 -0.35 Z"/>

<path fill="#572626" stroke="none" d="
M -4.75 -8.9
L -4.9 -9.15 -5.8 -7.6 -5.75 -7.55 -5.4 -7.4 -5.15 -6.25 -4.6 -7.1 -5.3 -7.7 -5.4 -7.8 -5.3 -7.95 -4.7 -8.5 -4.75 -8.9
M 7.35 -8.3
L 6.85 -8 6.65 -7.55 7.4 -7.15 7.3 -8.15 8.25 -8.5 8 -8.9 7.85 -8.7 7.35 -8.3
M 8 -10.4
L 8 -10.35 8.2 -9.9 8.65 -10.25 8.25 -11 8 -10.4 Z"/>
</g>

<g id="Symbol_1_0_Layer0_0_FILL">
<path fill="#000000" stroke="none" d="
M 7.3 2.6
Q 7.05 0.55 5.8 0.1 4.55 -0.35 3 1.15 1.55 2.45 0.7 4.85 -0.15 7.1 0.05 9.05 0.3 11.2 1.65 11.6 2.9 12.05 4.45 10.65 5.8 9.3 6.7 7 7.5 4.65 7.3 2.6
M 2.85 8.4
L 2.85 8.5 2.35 9.55 1.65 10 1.5 9.95 1.05 9.25 1.05 7.9 1.1 7.65 1.5 6.6
Q 1.8 6.2 2.2 6.3
L 2.35 6.4 2.8 7.1 2.85 8.4 Z"/>

<path fill="#3A434F" stroke="none" d="
M 2.85 8.5
L 2.85 8.4 2.8 7.1 2.35 6.4 2.2 6.3
Q 1.8 6.2 1.5 6.6
L 1.1 7.65 1.05 7.9 1.05 9.25 1.5 9.95 1.65 10 2.35 9.55 2.85 8.5 Z"/>
</g>

<g id="Symbol_1_0_Layer0_1_FILL">
<path fill="#FFFFFF" stroke="none" d="
M 5.3 4.65
L 6.05 4.1
Q 6.45 3.6 6.45 2.95 6.45 2.25 6.05 1.75 5.75 1.25 5.3 1.25 4.85 1.25 4.5 1.75 4.2 2.25 4.2 2.95 4.2 3.6 4.5 4.1 4.85 4.65 5.3 4.65 Z"/>
</g>

<g id="Layer0_3_FILL">
<path fill="#FFFFFF" fill-opacity="0.4" stroke="none" d="
M 0.95 -9.3
L 0.6 -9.75 -0.15 -10.2 -0.75 -10.3 -1.15 -10.25 -1.8 -9.95 -2.05 -9.75 -2.45 -9.15 -2.6 -8.4
Q -2.6 -7.7 -2.1 -7.15
L -2.05 -7.1 -1.7 -6.8 -1.6 -6.75 -1.6 -6.65
Q -1.9 -6.05 -1.8 -5.05
L -1.8 -5 0.95 -9.3
M 5.9 -10.15
L 5.85 -10.15
Q 5.1 -9.7 4.85 -8.85
L 4.8 -7.95 4.9 -7.25
Q 5.1 -6.55 5.75 -6.05
L 5.9 -6 7.5 -8.95 6.75 -8.4 6.8 -8.65 6.3 -9 6.2 -9.7 6.05 -10.25 5.9 -10.2 5.9 -10.15
M 8.6 -11.05
L 8.3 -11.15 8.05 -11.2 7.9 -11.15 7.95 -11.05 7.45 -10.3 7.75 -9.75 7.45 -9.4 7.6 -9.15 8.6 -11.05
M -4.5 -0.7
L -4.9 -0.5 -5.65 0.45 -5.7 0.75 -5.65 0.9 -5.6 1 -4.5 -0.7
M -3.55 -4.65
L -3.45 -5.05 -4.45 -3.55 -4.4 -3.35 -4.2 -2.95 -3.65 -2.4 -3.5 -2.35 -2.85 -3.3 -2.9 -3.35 -3.25 -3.65
Q -3.5 -4 -3.55 -4.5
L -3.55 -4.65
M 3.4 -4.65
L 3.15 -4.65 0 1.55 1.9 1.5 4.95 -4.2 4.9 -4.15 3.4 -4.65 Z"/>
</g>

<path id="Layer0_0_1_STROKES" stroke="#FFFFFF" stroke-width="2" stroke-linejoin="round" stroke-linecap="round" fill="none" d="
M 45.518377685546874 14.382354736328121
L 44.420294189453124 16.029479980468746 45.07914428710937 17.237371826171874 44.420294189453124 18.0060302734375 44.749719238281244 18.664880371093748 44.20067749023437 19.213922119140623 42.7731689453125 20.312005615234373 42.992785644531246 19.762963867187498 41.894702148437496 18.8844970703125 41.67508544921875 17.34718017578125 41.34566040039062 16.2490966796875 41.0162353515625 16.2490966796875
Q 39.14949340820312 17.34718017578125 38.600451660156246 19.213922119140623 38.16121826171875 20.97085571289062 38.600451660156246 22.837597656249997 39.14949340820312 24.484722900390622 40.577001953125 25.472998046875
L 41.0162353515625 25.582806396484372 40.906427001953126 25.802423095703126
Q 40.467193603515625 26.57108154296875 41.0162353515625 27.01031494140625
L 39.03968505859375 29.53590698242187 38.710260009765626 29.64571533203125 38.710260009765626 29.755523681640625 35.41600952148437 28.76724853515625 34.317926025390626 28.5476318359375 33.9885009765625 27.888781738281246 33.9885009765625 27.778973388671872 33.76888427734375 27.33973999023437
Q 33.549267578125 26.680889892578122 33.65907592773437 26.131848144531247
L 33.65907592773437 25.802423095703126 34.09830932617187 25.14357299804687 34.317926025390626 24.484722900390622 34.64735107421875 24.484722900390622 34.976776123046875 24.37491455078125 36.84351806640625 23.167022705078125 37.172943115234375 22.837597656249997 37.831793212890624 21.30028076171875 37.9416015625 20.312005615234373 37.72198486328125 18.664880371093748 36.84351806640625 17.237371826171874
Q 35.7454345703125 16.2490966796875 34.317926025390626 16.029479980468746
L 33.76888427734375 16.029479980468746 31.572717285156248 16.688330078125 31.572717285156248 16.798138427734376 31.13348388671875 17.017755126953123 30.145208740234374 18.115838623046873 30.035400390625 18.445263671875 29.925592041015623 18.555072021484374 29.486358642578125 17.67660522460937 29.486358642578125 17.566796874999998 29.156933593749997 17.237371826171874
Q 27.8392333984375 16.029479980468746 26.082299804687498 16.029479980468746
L 25.2038330078125 16.029479980468746 23.776324462890624 16.798138427734376 23.22728271484375 17.237371826171874 22.239007568359373 18.664880371093748 21.90958251953125 20.312005615234373
Q 21.90958251953125 21.959130859374998 23.22728271484375 23.167022705078125
L 23.886132812499998 23.716064453125 24.215557861328122 23.935681152343747 24.10574951171875 24.04548950195312 23.666516113281247 27.6691650390625 24.3253662109375 30.3045654296875 24.435174560546873 30.524182128906247 24.215557861328122 30.633990478515624 24.10574951171875 30.524182128906247 22.239007568359373 31.841882324218748 22.12919921875 31.841882324218748 21.360540771484374 31.622265624999997 20.591882324218748 30.853607177734375 19.823223876953122 28.986865234374996 19.823223876953122 28.657440185546875
Q 20.15264892578125 28.1083984375 19.9330322265625 27.44954833984375
L 19.71341552734375 27.229931640624997
Q 21.03111572265625 25.582806396484372 21.250732421875 23.716064453125
L 21.250732421875 22.3983642578125 20.372265624999997 19.87277221679687
Q 19.274182128906247 18.115838623046873 17.18782348632812 17.566796874999998
L 16.8583984375 17.566796874999998 14.772039794921874 20.531622314453124 14.222998046874999 21.849322509765624 14.113189697265623 21.849322509765624 14.881848144531249 18.8844970703125 13.015106201171873 18.664880371093748 13.234722900390624 16.029479980468746 12.795489501953123 15.919671630859373 11.587597656249999 16.90794677734375 9.830664062499999 19.323730468749996 9.720855712890621 19.762963867187498
Q 9.171813964843746 21.629705810546874 9.501239013671874 23.606256103515626 9.940472412109372 25.9122314453125 11.36798095703125 27.44954833984375
L 11.80721435546875 27.888781738281246
Q 13.344531249999998 29.20648193359375 15.430889892578124 29.316290283203124
L 16.638781738281246 29.20648193359375 16.638781738281246 29.316290283203124
Q 16.968206787109374 29.86533203125 17.627056884765622 29.86533203125
L 17.95648193359375 31.512457275390624 18.39571533203125 32.500732421875 19.603607177734375 33.708624267578124 20.372265624999997 33.92824096679687 19.823223876953122 36.23421630859375 19.823223876953122 36.673449707031246 16.8583984375 37.881341552734376 15.211273193359373 40.077508544921876 15.10146484375 40.736358642578125 15.10146484375 41.065783691406246 15.321081542968749 41.285400390625 17.846673583984376 40.18731689453125 19.9330322265625 39.638275146484375 19.603607177734375 40.18731689453125
Q 18.725140380859372 42.05405883789062 19.383990478515624 43.591375732421874
L 19.603607177734375 43.81099243164062 19.823223876953122 43.92080078125 19.9330322265625 43.92080078125 21.580157470703124 41.61482543945312 22.34881591796875 40.8461669921875
Q 24.435174560546873 42.163867187499996 27.729425048828123 42.38348388671875
L 33.439459228515624 42.163867187499996
Q 40.906427001953126 41.395208740234374 42.55355224609375 38.2107666015625
L 44.420294189453124 38.869616699218746 46.616461181640624 40.077508544921876 47.055694580078125 39.967700195312496 47.1655029296875 39.85789184570312 47.1655029296875 39.528466796875
Q 47.1655029296875 37.881341552734376 45.62818603515625 36.673449707031246
L 44.9693359375 36.23421630859375 45.847802734374994 36.12440795898437 47.49492797851562 36.23421630859375 47.82435302734375 35.904791259765624 47.82435302734375 35.79498291015625 47.714544677734374 35.46555786132812 47.604736328125 35.245941162109375
Q 46.83607788085938 34.03804931640625 45.62818603515625 33.8184326171875
L 43.54182739257813 33.8184326171875 43.322210693359374 33.489007568359376 41.23585205078125 31.073223876953122 42.11431884765625 30.194757080078123 42.44374389648437 29.64571533203125 42.44374389648437 29.426098632812497 43.322210693359374 27.6691650390625 43.322210693359374 27.559356689453125 44.420294189453124 26.461273193359375 44.420294189453124 26.24165649414062
Q 46.616461181640624 26.022039794921874 48.153778076171875 24.37491455078125
L 49.47147827148437 21.959130859374998 49.8009033203125 20.531622314453124
Q 50.13032836914063 18.335455322265624 49.251861572265625 16.468713378906248
L 48.043969726562494 14.931396484374996 46.2870361328125 14.0529296875 45.847802734374994 13.943121337890624 45.4085693359375 14.0529296875 45.518377685546874 14.382354736328121 Z
M 29.925592041015623 21.959130859374998
L 29.5961669921875 22.61798095703125 29.156933593749997 23.167022705078125
Q 28.278466796874998 23.935681152343747 27.290191650390625 24.37491455078125
L 26.960766601562497 24.484722900390622 26.521533203125 25.033764648437497 26.411724853515622 26.131848144531247 26.521533203125 27.33973999023437 27.180383300781248 28.657440185546875 27.290191650390625 28.986865234374996 27.509808349609372 29.096673583984376 28.49808349609375 28.76724853515625 31.243292236328124 28.43782348632812 30.804058837890622 26.57108154296875 31.13348388671875 24.81414794921875 31.243292236328124 24.594531249999996 31.243292236328124 24.484722900390622 31.572717285156248 23.825872802734374 31.243292236328124 23.606256103515626 30.9138671875 23.167022705078125 30.474633789062498 22.837597656249997 30.145208740234374 22.3983642578125 30.035400390625 22.068939208984375 29.925592041015623 21.959130859374998 Z"/>
</defs>

<g transform="matrix( 2.1961669921875, 0, 0, 2.1961669921875, 27.4,38.65) ">
<use xlink:href="#Layer0_0_FILL"/>

<use xlink:href="#Layer0_0_1_STROKES" transform="matrix( 0.4553375244140625, 0, 0, 0.4553375244140625, -12.45,-17.55) "/>
</g>

<g transform="matrix( 2.1961669921875, 0, 0, 2.1961669921875, 27.4,38.65) ">
<use xlink:href="#Layer0_0_MEMBER_0_FILL"/>
</g>

<g transform="matrix( 0.260040283203125, -0.18109130859375, 0.18109130859375, 0.260040283203125, 25.35,18.25) ">
<g transform="matrix( 1, 0, 0, 1, 0,0) ">
<use xlink:href="#Symbol_1_0_Layer0_0_FILL"/>
</g>

<g transform="matrix( 1, 0, 0, 1, 0,0) ">
<use xlink:href="#Symbol_1_0_Layer0_1_FILL"/>
</g>
</g>

<g transform="matrix( 0.260040283203125, -0.18109130859375, 0.18109130859375, 0.260040283203125, 31.55,17.8) ">
<g transform="matrix( 1, 0, 0, 1, 0,0) ">
<use xlink:href="#Symbol_1_0_Layer0_0_FILL"/>
</g>

<g transform="matrix( 1, 0, 0, 1, 0,0) ">
<use xlink:href="#Symbol_1_0_Layer0_1_FILL"/>
</g>
</g>

<g transform="matrix( 2.1961669921875, 0, 0, 2.1961669921875, 27.4,38.65) ">
<use xlink:href="#Layer0_3_FILL"/>
</g>
</svg>
