
<svg xmlns="http://www.w3.org/2000/svg" version="1.1" xmlns:xlink="http://www.w3.org/1999/xlink" preserveAspectRatio="none" x="0px" y="0px" width="60px" height="60px" viewBox="0 0 60 60">
<defs>
<g id="Layer0_0_FILL">
<path fill="#CD0000" stroke="none" d="
M 54.85 18.7
Q 48.95 14.8 42.1 14.6 41.45 13.25 40.1 12.7 38.6 12.05 37.15 12.7
L 37.15 12.75
Q 35.7 13.4 35.15 14.9
L 35.15 14.85 35.1 15.05
Q 28.9 15.1 24.15 18.2
L 24.05 18.25 23.85 18.3 23.55 18.8 23.6 19.35
Q 23.75 19.6 24.1 19.7
L 26.55 20.25 23.7 23.2
Q 20.1 26.9 17.25 33.3
L 17.25 33.25 16.4 34.2 16.25 34.2
Q 13.75 31.75 11.55 30.5
L 11.5 30.5
Q 10.2 29.8 9.45 29.9 8.3 29.9 7.85 30.95
L 7.9 30.95 7.75 31.4
Q 7.3 32.75 8.65 34
L 11.9 38.25 11.95 38.3 12.2 38.7 12.25 38.75 12.45 39.15 12.5 39.2
Q 12.9 40 12.6 40.45
L 12.55 40.5 12.5 40.5 9.5 44.25 9.5 44.35
Q 8.65 46.65 9.75 47.45
L 9.75 47.4
Q 10.55 48.4 13.25 47.65 17.5 46.45 20.25 41.4 28.95 39.8 33.35 37.25 33.6 38.55 34.25 39.95
L 34.55 40.25 35 40.35 35.45 40.15 35.5 40.05 35.55 40.05
Q 38.15 37.7 38.7 34.9 46.05 32.15 50.3 26.2 51.8 23.95 52.9 21.3
L 55.05 20.2 55.4 19.95 55.45 19.8 55.45 19.2 55.2 18.9 54.9 18.7 54.85 18.7 Z"/>
</g>

<g id="Layer0_0_MEMBER_0_FILL">
<path fill="#F5D53F" stroke="none" d="
M 14.15 42.5
L 14.2 42.45 14.15 42.45 14.15 42.5
M 24.5 19
L 24.45 18.85 24.25 18.95 24.5 19 Z"/>

<path fill="#EE8300" stroke="none" d="
M 14.95 38.6
L 12.85 38.3 13.15 38.85 14.5 38.55 14.95 38.7 14.95 38.6 Z"/>

<path fill="#FFFFFF" stroke="none" d="
M 41.55 17.35
Q 41.85 16.4 41.6 15.45
L 41.45 15
Q 40.95 13.85 39.8 13.4 38.6 12.9 37.45 13.4 36.3 13.95 35.85 15.15
L 35.65 15.8
Q 35.55 16.65 35.9 17.45
L 36.05 17.75
Q 36.55 18.65 37.6 19.1
L 39.95 19
Q 40.9 18.6 41.4 17.75
L 41.55 17.35
M 39.05 15.7
L 39.3 15.7 39.05 15.7 Z"/>

<path fill="#666666" stroke="none" d="
M 47.25 24.2
L 47.75 23.8 47.85 23.7
Q 49.95 22 52.3 20.75 53.45 20.05 54.75 19.5
L 54.45 19.3
Q 48.65 15.5 41.95 15.35
L 41.6 15.45
Q 41.85 16.4 41.55 17.35
L 41.4 17.75
Q 40.9 18.6 39.95 19
L 37.6 19.1
Q 36.55 18.65 36.05 17.75
L 35.9 17.45
Q 35.55 16.65 35.65 15.8 29.3 15.7 24.45 18.85
L 24.5 19 28.1 19.85 24.25 23.7
Q 20.7 27.35 17.9 33.6 17.3 34.75 16.55 34.95
L 15.9 34.9
Q 13.4 32.4 11.15 31.15
L 8.55 31.25 8.5 31.5
Q 8.15 32.5 9.15 33.45
L 12.85 38.3 14.95 38.6 16.3 38.8 14.95 38.6 14.95 38.7 14.5 38.55 13.15 38.85
Q 13.85 40.2 13.1 40.95
L 10.2 44.5 14.15 42.5 14.15 42.45 14.2 42.45 16.8 41.05 14.2 42.45 14.15 42.5 10.2 44.5
Q 9.55 46.25 10.25 46.85
L 13.05 46.9
Q 17.15 45.75 19.75 40.7
L 19.8 40.7
Q 29.65 38.95 33.95 35.95 33.95 34.6 34.1 33.9 33.95 34.6 33.95 35.95 34.05 37.75 34.9 39.6
L 35 39.5
Q 37.6 37.2 38 34.35
L 37.95 31.95 38 34.35
Q 45.45 31.7 49.65 25.75 51.2 23.5 52.3 20.75 49.95 22 47.85 23.7
L 47.75 23.8 47.25 24.2
M 41.95 20.05
L 40.85 21.15
Q 38.95 22.3 36.05 20.95 38.95 22.3 40.85 21.15
L 41.95 20.05
M 10.55 34.45
L 15.95 37.05 10.55 34.45
M 32.2 22.8
Q 31.9 26.5 35.45 28.95 31.9 26.5 32.2 22.8
M 30.3 24.55
Q 30.25 27.85 32.45 29.3 30.25 27.85 30.3 24.55 Z"/>
</g>

<g id="Layer0_0_MEMBER_1_FILL">
<path fill="#FFFFFF" fill-opacity="0.30196078431372547" stroke="none" d="
M 0.5 -10.3
Q 1.45 -9.8 1.75 -9.1
L -1.45 -6.75 -10.6 9.8
Q -7.7 9.4 -4.9 8.6
L 4.8 -10.3 4.5 -11.15 4.35 -11.15 -0.5 -10.75 -0.35 -10.7 0.5 -10.3
M 17.4 -10.7
L 14.55 -11.2 5.8 5.25 6.25 6.1 7 3.85 7.55 2.85
Q 7.75 2.35 8.1 2.35 8.45 2.3 9.1 2.75
L 10.9 1.7 17.4 -10.7 Z"/>
</g>

<path id="Layer0_0_1_STROKES" stroke="#FFFFFF" stroke-width="5" stroke-linejoin="round" stroke-linecap="round" fill="none" d="
M 55.2 18.9
L 54.9 18.7 54.85 18.7
Q 48.95 14.8 42.1 14.6 41.45 13.25 40.1 12.7 38.6 12.05 37.15 12.7
L 37.15 12.75
Q 35.7 13.4 35.15 14.9
L 35.15 14.85 35.1 15.05
Q 28.9 15.1 24.15 18.2
L 24.05 18.25 23.85 18.3 23.55 18.8 23.6 19.35
Q 23.75 19.6 24.1 19.7
L 26.55 20.25 23.7 23.2
Q 20.1 26.9 17.25 33.3
L 17.25 33.25 16.4 34.2 16.25 34.2
Q 13.75 31.75 11.55 30.5
L 11.5 30.5
Q 10.2 29.8 9.45 29.9 8.3 29.9 7.85 30.95
L 7.9 30.95 7.75 31.4
Q 7.3 32.75 8.65 34
L 11.9 38.25 11.95 38.3 12.2 38.7 12.25 38.75 12.45 39.15 12.5 39.2
Q 12.9 40 12.6 40.45
L 12.55 40.5 12.5 40.5 9.5 44.25 9.5 44.35
Q 8.65 46.65 9.75 47.45
L 9.75 47.4
Q 10.55 48.4 13.25 47.65 17.5 46.45 20.25 41.4 28.95 39.8 33.35 37.25 33.6 38.55 34.25 39.95
L 34.55 40.25 35 40.35 35.45 40.15 35.5 40.05 35.55 40.05
Q 38.15 37.7 38.7 34.9 46.05 32.15 50.3 26.2 51.8 23.95 52.9 21.3
L 55.05 20.2 55.4 19.95 55.45 19.8 55.45 19.2 55.2 18.9 Z"/>

<path id="Layer0_0_MEMBER_0_1_STROKES" stroke="#000000" stroke-width="1.5" stroke-linejoin="round" stroke-linecap="round" fill="none" d="
M 47.25 24.2
L 47.75 23.8
M 47.85 23.7
Q 49.95 22 52.3 20.75 53.45 20.05 54.75 19.5
L 54.45 19.3
Q 48.65 15.5 41.95 15.35
M 41.6 15.45
Q 41.85 16.4 41.55 17.35
L 41.4 17.75
Q 40.9 18.6 39.95 19
L 37.6 19.1
Q 36.55 18.65 36.05 17.75
L 35.9 17.45
Q 35.55 16.65 35.65 15.8 29.3 15.7 24.45 18.85
M 24.5 19
L 28.1 19.85 24.25 23.7
Q 20.7 27.35 17.9 33.6 17.3 34.75 16.55 34.95
L 15.9 34.9
Q 13.4 32.4 11.15 31.15
L 8.55 31.25 8.5 31.5
Q 8.15 32.5 9.15 33.45
L 12.85 38.3
M 35.65 15.8
L 35.85 15.15
Q 36.3 13.95 37.45 13.4 38.6 12.9 39.8 13.4 40.95 13.85 41.45 15
L 41.6 15.45
M 52.3 20.75
Q 51.2 23.5 49.65 25.75 45.45 31.7 38 34.35 37.6 37.2 35 39.5
L 34.9 39.6
Q 34.05 37.75 33.95 35.95 29.65 38.95 19.8 40.7
L 19.75 40.7
Q 17.15 45.75 13.05 46.9
L 10.25 46.85
Q 9.55 46.25 10.2 44.5
L 13.1 40.95
Q 13.85 40.2 13.15 38.85
L 12.85 38.3
M 24.5 19
L 24.25 18.95 24.45 18.85
M 39.05 15.7
L 39.3 15.7
M 37.95 31.95
L 38 34.35
M 34.1 33.9
Q 33.95 34.6 33.95 35.95"/>

<path id="Layer0_0_MEMBER_0_2_STROKES" stroke="#000000" stroke-width="0.7" stroke-linejoin="round" stroke-linecap="round" fill="none" d="
M 12.85 38.3
L 14.95 38.6 16.3 38.8
M 41.95 20.05
L 40.85 21.15
Q 38.95 22.3 36.05 20.95
M 10.55 34.45
L 15.95 37.05
M 14.2 42.45
L 14.15 42.5 10.2 44.5
M 14.2 42.45
L 16.8 41.05
M 32.2 22.8
Q 31.9 26.5 35.45 28.95
M 30.3 24.55
Q 30.25 27.85 32.45 29.3"/>

<path id="Layer0_0_MEMBER_0_3_STROKES" stroke="#00FF00" stroke-width="0.1" stroke-linejoin="round" stroke-linecap="round" fill="none" d="
M 47.75 23.8
L 47.85 23.7"/>
</defs>

<g transform="matrix( 1, 0, 0, 1, -1.55,-0.15) ">
<use xlink:href="#Layer0_0_FILL"/>

<use xlink:href="#Layer0_0_1_STROKES"/>
</g>

<g transform="matrix( 1, 0, 0, 1, -1.55,-0.15) ">
<use xlink:href="#Layer0_0_MEMBER_0_FILL"/>

<use xlink:href="#Layer0_0_MEMBER_0_1_STROKES"/>

<use xlink:href="#Layer0_0_MEMBER_0_2_STROKES"/>

<use xlink:href="#Layer0_0_MEMBER_0_3_STROKES"/>
</g>

<g transform="matrix( 1, 0, 0, 1, 28.15,28.9) ">
<use xlink:href="#Layer0_0_MEMBER_1_FILL"/>
</g>
</svg>
