
<svg xmlns="http://www.w3.org/2000/svg" version="1.1" xmlns:xlink="http://www.w3.org/1999/xlink" preserveAspectRatio="none" x="0px" y="0px" width="60px" height="60px" viewBox="0 0 60 60">
<defs>
<g id="Layer0_0_FILL">
<path fill="#D5EAFF" stroke="none" d="
M 1.8 -16.8
L 1.9 -16.85 1.85 -16.85 1.8 -16.8 Z"/>

<path fill="#CC3300" stroke="none" d="
M 1.8 -16.8
L 1.55 -16.75 1.55 -16.65 1.8 -16.8 Z"/>
</g>

<g id="Layer0_1_FILL">
<path fill="#CC3300" stroke="none" d="
M -12.6 15.25
L -14.75 15.7
Q -17.45 17.6 -17.3 20.55 -17.25 23.7 -13.55 24.8 -14.8 24.25 -15.3 23.55 -15.9 22.75 -15.9 21.1 -15.9 19.6 -15.3 18.8
L -13.25 16.7 -15.3 18.8
Q -15.9 19.6 -15.9 21.1 -15.9 22.75 -15.3 23.55 -14.8 24.25 -13.55 24.8
L -13.5 24.85 -12.15 25.2 -13.55 23.75 -13.8 21.95
Q -13.8 20.45 -13.25 19.65
L -11.25 17.3 -13.25 19.65
Q -13.8 20.45 -13.8 21.95
L -13.55 23.75 -12.15 25.2
Q -9.4 25.75 -7.2 24.75 -4.55 23.45 -5.05 23.1
L -7.2 22.6
Q -9.15 21.95 -9.15 20.85 -9.15 20.1 -8.2 19.2 -7.9 18.7 -7.9 18.2 -7.9 17.25 -9.3 16.35 -9 16.6 -9 16.9 -9 17.6 -10.25 19 -11.6 20.45 -11.6 21.55 -11.6 22.9 -10.65 23.85 -9.6 24.85 -8.1 24.75 -9.6 24.85 -10.65 23.85 -11.6 22.9 -11.6 21.55 -11.6 20.45 -10.25 19 -9 17.6 -9 16.9 -9 16.6 -9.3 16.35
L -9.7 16.1
Q -11.35 15.25 -12.6 15.25
M -5.15 -1.4
L -6.25 -1.2 -6.8 2.95
Q -7.6 7.75 -9.5 9.95
L -8.55 10.15
Q -7.1 10.15 -6.55 8.85
L -5.55 5.8
Q -5.2 4.95 -3.75 3.6 -2.65 2.55 -2.65 1.1 -2.65 -1.4 -5.15 -1.4
M -5.95 -3.7
L -5.7 -5.3 -5.6 -5.75
Q -7 -5.35 -9.45 -2.8 -12.3 0.15 -12.3 2.25 -12.3 2.85 -11.8 2.85 -11.6 2.85 -10.95 2.25 -10.25 1.65 -10 2 -9.75 2.4 -8.6 0 -7.5 -2.35 -5.95 -3.7
M -10.85 -16.7
L -10.55 -17.5 -9.55 -18.95 -12.2 -18.4 -12.3 -17.9
Q -12.3 -17 -10.85 -16.7
M -8.9 -19
L -9.55 -18.95 -10.55 -17.5 -10.85 -16.7 -10.8 -16.7 -8.75 -16.1
Q -8.6 -17.05 -7.5 -18.3 -8.6 -17.05 -8.75 -16.1 -8.6 -16.05 -8.6 -16
L -7.2 -14.45
Q -5.85 -17.25 -4.7 -18.15 -7.15 -19 -8.9 -19
M 4.35 -2.75
L 2.55 -3.05
Q 1.3 -3.05 0.45 -1.95 -0.3 -0.95 -0.3 0.15 0.05 2 0.05 2.6 0.05 3.75 -1.85 5.4 -3.75 7.05 -3.75 8.7
L -3.45 10.15 -1.1 7.45 4.35 -2.75
M 1.7 -12.95
L 1.7 -12.9
Q 2.1 -13.25 2.75 -13.25
L 3.5 -13.15 4.35 -12.75
Q 5.2 -12.2 5.2 -11.4 5.2 -10 3.8 -8.85
L 2.8 -8.2 4.95 -7.95
Q 7.65 -7.75 8.75 -6.6
L 10.85 -7.9
Q 10.5 -8.05 10.25 -8.25 8.65 -9.15 8.6 -10.35 8.5 -11.55 9.55 -13.5
L 9.65 -13.75 8.45 -13.65
Q 6.3 -13.65 6.3 -14.7 6.3 -15.85 7.9 -16.8
L 8.05 -16.85 7.65 -16.95
Q 5.6 -17.2 5.55 -18.3
L 3.05 -17.1 1.8 -16.4
Q 2.2 -16.4 2.6 -16
L 2.95 -15.35
Q 2.95 -14.8 1.95 -13.2
L 1.7 -12.95
M 0.45 -15.5
L 0.9 -15.85 -1.9 -17.15
Q -3.35 -16.4 -4.75 -13.9 -3.35 -16.4 -1.9 -17.15
L -4.7 -18.15
Q -5.85 -17.25 -7.2 -14.45 -6.4 -13.5 -5.55 -13.5 -4.5 -13.5 -2.95 -14.5 -1.35 -15.55 -0.35 -15.55
L 0.35 -15.45 0.45 -15.5
M 19.3 -14.1
L 19.25 -13.8 18.6 -11.95 19.6 -12.25
Q 21.2 -12.25 21.5 -11.25 21.95 -9.9 23.75 -9.55 23.15 -9.95 22.75 -11.5 22.3 -13.05 20.15 -14.1
L 19.3 -14.1
M 17.35 -18.75
L 17.4 -18.7 17.45 -18.7 17.65 -18.6 17.95 -18.4 18.9 -17.35
Q 18.6 -17.9 18.25 -19.55 17.95 -21.15 17.25 -22.15 16.5 -23.15 15.25 -23.2
L 13.55 -23.2 13 -23.15 14.85 -22.45
Q 15.8 -22.2 16.15 -21.5
L 16.65 -19.8
Q 16.8 -19.15 17.35 -18.75
M -19.8 8.6
L -17.45 8.85
Q -16.35 9.15 -15.15 10.05 -16.35 9.15 -17.45 8.85
L -19.8 8.6
Q -21.25 8.6 -22.8 9.5 -23.9 10.1 -24.75 10.85
L -24.75 11.05 -24.85 11.75
Q -24.8 13.15 -24.2 14.85 -23.6 13.05 -22.15 11.95 -20.65 10.85 -18.9 10.85 -17.8 10.85 -16.55 11.5 -15.2 12.2 -14.55 13.2 -15.2 12.2 -16.55 11.5 -17.8 10.85 -18.9 10.85 -20.65 10.85 -22.15 11.95 -23.6 13.05 -24.2 14.85
L -24.05 15.15
Q -23.35 17 -22.7 17.55 -22.2 14.7 -20.95 13.6 -19.65 12.55 -18.55 12.85 -17.5 13.15 -16.4 13.95 -15.4 14.75 -14.8 15.3 -13.95 14.75 -13.95 13.9
L -13.8 11.7
Q -13.8 9.2 -15.4 7.5 -16.9 5.95 -19.3 5.7 -21.05 6.05 -22.2 6.75
L -20 6.4
Q -16.65 6.4 -15.45 8.2 -16.65 6.4 -20 6.4
L -22.2 6.75 -22.7 7.15 -23.65 8.25
Q -24.5 9.6 -24.75 10.85 -23.9 10.1 -22.8 9.5 -21.25 8.6 -19.8 8.6
M -1.8 -9.9
L -1.95 -10.1
Q -2.6 -11.15 -3.9 -11
L -4.9 -8.85 -5.55 -6.1 -5.55 -5.8 -5.6 -5.75 -5.7 -5.3
Q -5.4 -4.75 -4.5 -4.45
L -3.65 -4.15
Q -3.6 -6.8 -1.8 -9.9
M 3.15 9.3
Q 3.15 10.75 2.5 11.75
L 1.7 12.85
Q 3.2 13.3 3.6 15.55 4.5 15.55 5.05 13.85 5.55 12.45 5.65 10.75 5.75 9.05 5 7.4 4.3 5.65 3.8 5.3
L 3.05 6.55 3.15 9.3
M 13.95 5.4
L 14.65 4.2 13.95 5.4 13.1 6.25 13.3 6.6
Q 13.95 8 14.8 8
L 15.6 7.9
Q 15.35 4 14.2 1.25
L 12.65 3.4
Q 11.85 4.4 11.05 4.7 11.85 4.4 12.65 3.4
L 14.2 1.25 14.05 0.85 13.1 -0.8
Q 12.25 0.9 11.2 1.8
L 8.85 3.9 9.2 4.25
Q 9.9 4.95 11.45 5.1 12.5 5.25 13.1 6.25
L 13.95 5.4
M 12.05 -2.25
L 10.35 -0.05 8.4 1.45 8.35 1.95
Q 8.35 3.15 8.85 3.9
L 11.2 1.8
Q 12.25 0.9 13.1 -0.8
L 12.05 -2.25
M 10.8 -3.7
L 10.8 -3.65
Q 10.8 -2.85 9.6 -1.05 8.6 0.4 8.4 1.45
L 10.35 -0.05 12.05 -2.25 10.8 -3.7
M 1.45 -16.2
L 1.7 -16.35 1.45 -16.3 1.45 -16.2 Z"/>

<path fill="#B41B00" stroke="none" d="
M -18.85 5.6
L -19.3 5.7
Q -16.9 5.95 -15.4 7.5 -13.8 9.2 -13.8 11.7
L -13.95 13.9
Q -13.95 14.75 -14.8 15.3
L -14.55 15.55 -14.75 15.7 -12.6 15.25
Q -11.35 15.25 -9.7 16.1
L -9.3 16.35
Q -7.9 17.25 -7.9 18.2 -7.9 18.7 -8.2 19.2
L -7.9 18.9
Q -6.65 17.85 -6.65 16.7 -6.65 15.75 -7.4 15.15
L -8.4 14.55 -10.6 14.45
Q -11.75 14.15 -11.75 13.1
L -11.45 11.4 -11.8 11.5 -11.85 11.25 -11.7 11.25
Q -11.4 11.25 -13.3 8.1 -15.25 4.9 -18.85 5.6
M 1.75 -16.4
L 1.8 -16.4 3.05 -17.1
Q 2.1 -18 -1.55 -19.15 -5.2 -20.25 -6.8 -20.25 -11.65 -20.25 -12.2 -18.4
L -9.55 -18.95 -8.9 -19
Q -7.15 -19 -4.7 -18.15
L -1.9 -17.15 0.9 -15.85 1.45 -16.2 1.45 -16.3 1.7 -16.35 1.75 -16.4
M 10.6 -4.2
L 10.75 -4.05 10.8 -3.7 12.05 -2.25 12.3 -2.55 12.05 -2.25 13.1 -0.8 14.05 0.85 14.2 1.25
Q 15.35 4 15.6 7.9 16.85 7.45 16.85 5.7 16.85 3.15 15.35 -0.85 13.9 -4.8 12.6 -5.8
L 10.6 -4.2 Z"/>

<path fill="#BDD2E7" stroke="none" d="
M 4.35 -2.75
L 5.05 -2.4
Q 6.45 -1.65 6.45 -0.15
L 6.45 0.15 9.25 -3 9.45 -3.9 9.45 -4.7
Q 9.45 -5.85 8.75 -6.6
L 7.3 -5.7
Q 5.4 -4.3 4.35 -2.75
M 17.95 -18.4
L 17.95 -17.25
Q 17.95 -14.75 16.3 -12.5
L 15.8 -11.55 14.95 -11
Q 13.75 -9.85 12.05 -8.75
L 10.85 -7.9 13.45 -7.5 15.1 -7.75
Q 17.55 -9.95 18.6 -11.95
L 19.25 -13.8 19.3 -14.1
Q 19.6 -16.15 18.9 -17.35
L 17.95 -18.4
M -1.4 11.25
L -2 11.4
Q -2.7 11.4 -3.25 10.55
L -3.45 10.15
Q -5.95 12.6 -9.35 13.95
L -7.7 14.25
Q -4.5 13.55 -1.4 11.25 Z"/>

<path fill="#C02700" stroke="none" d="
M 5.05 -2.4
L 4.35 -2.75 -1.1 7.45 -3.45 10.15 -3.25 10.55
Q -2.7 11.4 -2 11.4
L -1.4 11.25 -1 10.9
Q 1.4 9 3.05 6.55
L 3.8 5.3 4.75 3.2
Q 5.35 1.65 6.45 0.15
L 6.45 -0.15
Q 6.45 -1.65 5.05 -2.4
M 9.45 -3.9
L 9.25 -3 10.4 -4.05 10.6 -4.2 12.6 -5.8 15.1 -7.75 13.45 -7.5 10.85 -7.9 8.75 -6.6
Q 9.45 -5.85 9.45 -4.7
L 9.45 -3.9 Z"/>

<path fill="#D5EAFF" stroke="none" d="
M 4.95 -7.95
L 2.8 -8.2 1.45 -7.05 -0.2 -4.15
Q -1.3 -2.25 -2.6 -2.25 -3.65 -2.25 -3.65 -4.05
L -3.65 -4.15 -4.5 -4.45
Q -5.4 -4.75 -5.7 -5.3
L -5.95 -3.7 -6.25 -1.2 -5.15 -1.4
Q -2.65 -1.4 -2.65 1.1 -2.65 2.55 -3.75 3.6 -5.2 4.95 -5.55 5.8
L -6.55 8.85
Q -7.1 10.15 -8.55 10.15
L -9.5 9.95 -11.3 11.3 -11.45 11.4 -11.75 13.1
Q -11.75 14.15 -10.6 14.45
L -8.4 14.55 -8.65 14.45 -7.7 14.25 -9.35 13.95
Q -5.95 12.6 -3.45 10.15
L -3.75 8.7
Q -3.75 7.05 -1.85 5.4 0.05 3.75 0.05 2.6 0.05 2 -0.3 0.15 -0.3 -0.95 0.45 -1.95 1.3 -3.05 2.55 -3.05
L 4.35 -2.75
Q 5.4 -4.3 7.3 -5.7
L 8.75 -6.6
Q 7.65 -7.75 4.95 -7.95
M 1.8 -16.4
L 1.75 -16.4 1.7 -16.35 1.8 -16.4
M 0.9 -15.85
L 0.45 -15.5 0.35 -15.45
Q -2.5 -13.45 -3.9 -11 -2.6 -11.15 -1.95 -10.1
L -1.8 -9.9 -1.75 -9.95
Q 0 -12.95 1.95 -13.2 2.95 -14.8 2.95 -15.35
L 2.6 -16
Q 2.2 -16.4 1.8 -16.4
L 1.7 -16.35 1.45 -16.2 0.9 -15.85
M 17.4 -18.7
L 17.35 -18.75
Q 15.2 -19.8 12.7 -19.8 9.25 -19.8 5.55 -18.3 5.6 -17.2 7.65 -16.95
L 8.05 -16.85
Q 9.5 -17.75 11.1 -17.75
L 11.85 -17.7
Q 13 -17.25 13 -16.25 13 -15.35 11.45 -14.45 10.55 -13.95 9.65 -13.75
L 9.55 -13.5
Q 8.5 -11.55 8.6 -10.35 8.65 -9.15 10.25 -8.25 10.5 -8.05 10.85 -7.9
L 12.05 -8.75
Q 13.75 -9.85 14.95 -11
L 14.7 -10.9 13.85 -11
Q 13.6 -11.3 13.7 -11.9 13.85 -12.45 14.35 -12.95
L 15.3 -13.6 16.2 -13.45
Q 16.5 -13.15 16.3 -12.6
L 16.3 -12.5
Q 17.95 -14.75 17.95 -17.25
L 17.95 -18.4 17.65 -18.6 17.45 -18.7 17.4 -18.7 Z"/>

<path fill="#E76532" stroke="none" d="
M -1.3 -7.45
Q -1.3 -8.95 -1.8 -9.9 -3.6 -6.8 -3.65 -4.15
L -3.5 -4.15
Q -2.35 -4.15 -1.75 -5.25 -1.3 -6.15 -1.3 -7.45
M 8.45 -13.65
L 9.65 -13.75
Q 10.5 -15.55 10.15 -16.05 9.75 -16.6 8.05 -16.85
L 7.9 -16.8
Q 6.3 -15.85 6.3 -14.7 6.3 -13.65 8.45 -13.65
M 4.35 -12.75
L 3.5 -13.15 2.75 -13.25
Q 2.1 -13.25 1.7 -12.9 0.5 -11.2 0.5 -10.1 0.5 -8.8 1.9 -8.35
L 2.8 -8.2 3.8 -8.85
Q 5.2 -10 5.2 -11.4 5.2 -12.2 4.35 -12.75 Z"/>

<path fill="#FFFFFF" stroke="none" d="
M 1.7 -12.9
L 1.7 -12.95 1.95 -13.2
Q 0 -12.95 -1.75 -9.95
L -1.8 -9.9
Q -1.3 -8.95 -1.3 -7.45 -1.3 -6.15 -1.75 -5.25 -2.35 -4.15 -3.5 -4.15
L -3.65 -4.15 -3.65 -4.05
Q -3.65 -2.25 -2.6 -2.25 -1.3 -2.25 -0.2 -4.15
L 1.45 -7.05 2.8 -8.2 1.9 -8.35
Q 0.5 -8.8 0.5 -10.1 0.5 -11.2 1.7 -12.9
M 15.8 -12.6
Q 15.8 -13.2 15.25 -13.15 14.65 -13.05 14.65 -12.45 14.65 -12 15.15 -12 15.8 -12 15.8 -12.6
M 11.85 -17.7
L 11.1 -17.75
Q 9.5 -17.75 8.05 -16.85 9.75 -16.6 10.15 -16.05 10.5 -15.55 9.65 -13.75 10.55 -13.95 11.45 -14.45 13 -15.35 13 -16.25 13 -17.25 11.85 -17.7 Z"/>

<path fill="#000000" stroke="none" d="
M 16.2 -13.45
L 15.3 -13.6 14.35 -12.95
Q 13.85 -12.45 13.7 -11.9 13.6 -11.3 13.85 -11
L 14.7 -10.9 14.95 -11 15.8 -11.55 16.3 -12.5 16.3 -12.6
Q 16.5 -13.15 16.2 -13.45
M 15.25 -13.15
Q 15.8 -13.2 15.8 -12.6 15.8 -12 15.15 -12 14.65 -12 14.65 -12.45 14.65 -13.05 15.25 -13.15 Z"/>
</g>

<path id="Layer0_0_1_STROKES" stroke="#FFFFFF" stroke-width="6" stroke-linejoin="round" stroke-linecap="round" fill="none" d="
M -22.1 6.3
Q -20.95 5.6 -19.2 5.25
L -18.75 5.15
Q -15.15 4.45 -13.2 7.65 -11.3 10.8 -11.6 10.8
L -11.75 10.8 -11.7 11.05 -11.35 10.95 -11.2 10.85
Q -10.2 10.35 -9.4 9.5 -7.5 7.3 -6.7 2.5
L -5.85 -4.15
Q -7.4 -2.8 -8.5 -0.45 -9.65 1.95 -9.9 1.55 -10.15 1.2 -10.85 1.8
L -11.7 2.4
Q -12.2 2.4 -12.2 1.8 -12.2 -0.3 -9.35 -3.25 -6.9 -5.8 -5.5 -6.2
L -5.45 -6.55 -4.8 -9.3 -3.8 -11.45
Q -2.4 -13.9 0.45 -15.9
L -0.25 -16
Q -1.25 -16 -2.85 -14.95 -4.4 -13.95 -5.45 -13.95 -6.3 -13.95 -7.1 -14.9
L -8.5 -16.45 -8.65 -16.55 -10.7 -17.15 -10.75 -17.15
Q -12.2 -17.45 -12.2 -18.35
L -12.1 -18.85
Q -11.55 -20.7 -6.7 -20.7 -5.1 -20.7 -1.45 -19.6 2.2 -18.45 3.15 -17.55
L 5.65 -18.75
Q 9.35 -20.25 12.8 -20.25 15.25 -20.25 17.4 -19.2 17.05 -19.45 16.8 -20.4
L 16.2 -22.05
Q 15.9 -22.65 14.95 -22.9
L 13.1 -23.6 12.65 -23.55
M -5.45 -6.55
L -5.45 -6.25 -5.5 -6.2
M 13.1 -23.6
L 13.65 -23.65 15.35 -23.65
Q 16.6 -23.6 17.35 -22.6 18.05 -21.6 18.35 -20 18.7 -18.35 19 -17.8 19.7 -16.6 19.4 -14.55
L 20.25 -14.55
Q 22.4 -13.5 22.85 -11.95 23.25 -10.4 23.85 -10 22.05 -10.35 21.6 -11.7 21.3 -12.7 19.7 -12.7
L 18.7 -12.4
Q 17.65 -10.4 15.2 -8.2
L 12.7 -6.25
Q 14 -5.25 15.45 -1.3 16.95 2.7 16.95 5.25 16.95 7 15.7 7.45
L 14.9 7.55
Q 14.05 7.55 13.4 6.15
L 13.2 5.8
Q 12.6 4.8 11.55 4.65 10 4.5 9.3 3.8
L 8.95 3.45
Q 8.45 2.7 8.45 1.5
L 8.5 1
Q 8.7 -0.05 9.7 -1.5 10.9 -3.3 10.9 -4.1
L 10.9 -4.15 10.85 -4.5 10.7 -4.65 10.5 -4.5 9.35 -3.45 6.55 -0.3
Q 5.45 1.2 4.85 2.75
L 3.9 4.85
Q 4.4 5.2 5.1 6.95 5.85 8.6 5.75 10.3 5.65 12 5.15 13.4 4.6 15.1 3.7 15.1 3.3 12.85 1.8 12.4
L 2.6 11.3
Q 3.25 10.3 3.25 8.85
L 3.15 6.1
Q 1.5 8.55 -0.9 10.45
L -1.3 10.8
Q -4.4 13.1 -7.6 13.8
L -8.55 14 -8.3 14.1 -7.3 14.7
Q -6.55 15.3 -6.55 16.25 -6.55 17.4 -7.8 18.45
L -8.1 18.75
Q -9.05 19.65 -9.05 20.4 -9.05 21.5 -7.1 22.15
L -4.95 22.65
Q -4.45 23 -7.1 24.3 -9.3 25.3 -12.05 24.75
L -13.45 24.35
Q -17.15 23.25 -17.2 20.1 -17.35 17.15 -14.65 15.25
L -14.45 15.1 -14.7 14.85 -16.3 13.5
Q -17.4 12.7 -18.45 12.4 -19.55 12.1 -20.85 13.15 -22.1 14.25 -22.6 17.1 -23.25 16.55 -23.95 14.7
L -24.1 14.4
Q -24.7 12.7 -24.75 11.3
L -24.65 10.6
Q -24.4 9.15 -23.55 7.8
L -22.6 6.7"/>

<path id="Layer0_1_1_STROKES" stroke="#000000" stroke-width="1" stroke-linejoin="round" stroke-linecap="round" fill="none" d="
M 17.35 -18.75
L 17.4 -18.7
M 17.45 -18.7
L 17.65 -18.6
M 18.9 -17.35
Q 18.6 -17.9 18.25 -19.55 17.95 -21.15 17.25 -22.15 16.5 -23.15 15.25 -23.2
L 13.55 -23.2 13 -23.15 14.85 -22.45
Q 15.8 -22.2 16.15 -21.5
L 16.65 -19.8
Q 16.8 -19.15 17.35 -18.75
M 14.95 -11
L 14.7 -10.9 13.85 -11
Q 13.6 -11.3 13.7 -11.9 13.85 -12.45 14.35 -12.95
L 15.3 -13.6 16.2 -13.45
Q 16.5 -13.15 16.3 -12.6
L 16.3 -12.5
M 13 -23.15
L 12.55 -23.1
M 18.6 -11.95
L 19.6 -12.25
Q 21.2 -12.25 21.5 -11.25 21.95 -9.9 23.75 -9.55 23.15 -9.95 22.75 -11.5 22.3 -13.05 20.15 -14.1
L 19.3 -14.1
M 16.3 -12.5
L 15.8 -11.55 14.95 -11
M 3.8 5.3
Q 4.3 5.65 5 7.4 5.75 9.05 5.65 10.75 5.55 12.45 5.05 13.85 4.5 15.55 3.6 15.55 3.2 13.3 1.7 12.85
L 2.5 11.75
Q 3.15 10.75 3.15 9.3
L 3.05 6.55
M -5.55 -6.1
L -5.55 -5.8 -5.6 -5.75
M -5.95 -3.7
Q -7.5 -2.35 -8.6 0 -9.75 2.4 -10 2 -10.25 1.65 -10.95 2.25 -11.6 2.85 -11.8 2.85 -12.3 2.85 -12.3 2.25 -12.3 0.15 -9.45 -2.8 -7 -5.35 -5.6 -5.75"/>

<path id="Layer0_1_2_STROKES" stroke="#000000" stroke-width="1.25" stroke-linejoin="round" stroke-linecap="round" fill="none" d="
M 17.45 -18.7
L 17.4 -18.7
M 17.65 -18.6
L 17.95 -18.4 18.9 -17.35
M 17.35 -18.75
Q 15.2 -19.8 12.7 -19.8 9.25 -19.8 5.55 -18.3
M 19.3 -14.1
L 19.25 -13.8 18.6 -11.95
M 18.9 -17.35
Q 19.6 -16.15 19.3 -14.1
M 0.35 -15.45
L 0.45 -15.5 0.9 -15.85
M 1.8 -16.4
L 3.05 -17.1
Q 2.1 -18 -1.55 -19.15 -5.2 -20.25 -6.8 -20.25 -11.65 -20.25 -12.2 -18.4
M 1.7 -16.35
L 1.45 -16.2 0.9 -15.85
M 1.7 -16.35
L 1.8 -16.4
M 18.6 -11.95
Q 17.55 -9.95 15.1 -7.75
M 3.05 -17.1
L 5.55 -18.3
M -1.4 11.25
L -1 10.9
Q 1.4 9 3.05 6.55
L 3.8 5.3 4.75 3.2
Q 5.35 1.65 6.45 0.15
L 9.25 -3
M -1.4 11.25
Q -4.5 13.55 -7.7 14.25
M 10.6 -4.2
L 10.4 -4.05 9.25 -3
M 10.8 -3.7
L 10.75 -4.05 10.6 -4.2 12.6 -5.8 15.1 -7.75
M 15.6 7.9
L 14.8 8
Q 13.95 8 13.3 6.6
L 13.1 6.25
Q 12.5 5.25 11.45 5.1 9.9 4.95 9.2 4.25
L 8.85 3.9
Q 8.35 3.15 8.35 1.95
L 8.4 1.45
Q 8.6 0.4 9.6 -1.05 10.8 -2.85 10.8 -3.65
L 10.8 -3.7
M 15.6 7.9
Q 16.85 7.45 16.85 5.7 16.85 3.15 15.35 -0.85 13.9 -4.8 12.6 -5.8
M 0.35 -15.45
L -0.35 -15.55
Q -1.35 -15.55 -2.95 -14.5 -4.5 -13.5 -5.55 -13.5 -6.4 -13.5 -7.2 -14.45
L -8.6 -16
Q -8.6 -16.05 -8.75 -16.1
L -10.8 -16.7 -10.85 -16.7
Q -12.3 -17 -12.3 -17.9
L -12.2 -18.4
M -5.7 -5.3
L -5.95 -3.7 -6.25 -1.2
M -11.3 11.3
L -9.5 9.95
M -8.4 14.55
L -8.65 14.45 -7.7 14.25
M -5.55 -6.1
L -4.9 -8.85 -3.9 -11
Q -2.5 -13.45 0.35 -15.45
M -5.55 -6.1
L -5.6 -5.75 -5.7 -5.3
M -9.5 9.95
Q -7.6 7.75 -6.8 2.95
L -6.25 -1.2
M -19.3 5.7
L -18.85 5.6
Q -15.25 4.9 -13.3 8.1 -11.4 11.25 -11.7 11.25
L -11.85 11.25 -11.8 11.5 -11.45 11.4
M -14.8 15.3
L -14.55 15.55 -14.75 15.7
M -8.2 19.2
L -7.9 18.9
Q -6.65 17.85 -6.65 16.7 -6.65 15.75 -7.4 15.15
L -8.4 14.55
M -14.8 15.3
Q -15.4 14.75 -16.4 13.95 -17.5 13.15 -18.55 12.85 -19.65 12.55 -20.95 13.6 -22.2 14.7 -22.7 17.55 -23.35 17 -24.05 15.15
L -24.2 14.85
Q -24.8 13.15 -24.85 11.75
L -24.75 11.05
M -24.75 10.85
Q -24.5 9.6 -23.65 8.25
L -22.7 7.15
M -22.2 6.75
Q -21.05 6.05 -19.3 5.7
M -13.55 24.8
Q -17.25 23.7 -17.3 20.55 -17.45 17.6 -14.75 15.7
M -8.2 19.2
Q -9.15 20.1 -9.15 20.85 -9.15 21.95 -7.2 22.6
L -5.05 23.1
Q -4.55 23.45 -7.2 24.75 -9.4 25.75 -12.15 25.2
L -13.5 24.85"/>

<path id="Layer0_1_3_STROKES" stroke="#9A0100" stroke-width="1" stroke-linejoin="round" stroke-linecap="round" fill="none" d="
M -24.75 11.05
L -24.75 10.85
M -22.7 7.15
L -22.2 6.75
M -13.5 24.85
L -13.55 24.8"/>

<path id="Layer0_1_4_STROKES" stroke="#CC3300" stroke-width="1" stroke-linejoin="round" stroke-linecap="round" fill="none" d="
M 1.7 -16.35
L 1.45 -16.3 1.45 -16.2
M 9.65 -13.75
Q 10.5 -15.55 10.15 -16.05 9.75 -16.6 8.05 -16.85
M 2.8 -8.2
L 1.9 -8.35
Q 0.5 -8.8 0.5 -10.1 0.5 -11.2 1.7 -12.9
M -1.8 -9.9
Q -1.3 -8.95 -1.3 -7.45 -1.3 -6.15 -1.75 -5.25 -2.35 -4.15 -3.5 -4.15
L -3.65 -4.15
M -11.45 11.4
L -11.3 11.3"/>

<path id="Layer0_1_5_STROKES" stroke="#AE1500" stroke-width="1" stroke-linejoin="round" stroke-linecap="round" fill="none" d="
M 5.55 -18.3
Q 5.6 -17.2 7.65 -16.95
L 8.05 -16.85
M 9.65 -13.75
L 9.55 -13.5
Q 8.5 -11.55 8.6 -10.35 8.65 -9.15 10.25 -8.25 10.5 -8.05 10.85 -7.9
M 1.7 -16.35
L 1.75 -16.4 1.8 -16.4
Q 2.2 -16.4 2.6 -16
L 2.95 -15.35
Q 2.95 -14.8 1.95 -13.2
L 1.7 -12.95 1.7 -12.9
M 2.8 -8.2
L 4.95 -7.95
Q 7.65 -7.75 8.75 -6.6
M 10.85 -7.9
L 13.45 -7.5 15.1 -7.75
M 6.45 0.15
L 6.45 -0.15
Q 6.45 -1.65 5.05 -2.4
L 4.35 -2.75
M -3.45 10.15
L -3.25 10.55
Q -2.7 11.4 -2 11.4
L -1.4 11.25
M 9.25 -3
L 9.45 -3.9 9.45 -4.7
Q 9.45 -5.85 8.75 -6.6
M 4.35 -2.75
L 2.55 -3.05
Q 1.3 -3.05 0.45 -1.95 -0.3 -0.95 -0.3 0.15 0.05 2 0.05 2.6 0.05 3.75 -1.85 5.4 -3.75 7.05 -3.75 8.7
L -3.45 10.15
M -3.9 -11
Q -2.6 -11.15 -1.95 -10.1
L -1.8 -9.9
M -3.65 -4.15
L -4.5 -4.45
Q -5.4 -4.75 -5.7 -5.3
M -6.25 -1.2
L -5.15 -1.4
Q -2.65 -1.4 -2.65 1.1 -2.65 2.55 -3.75 3.6 -5.2 4.95 -5.55 5.8
L -6.55 8.85
Q -7.1 10.15 -8.55 10.15
L -9.5 9.95
M -11.45 11.4
L -11.75 13.1
Q -11.75 14.15 -10.6 14.45
L -8.4 14.55"/>

<path id="Layer0_1_6_STROKES" stroke="#E76532" stroke-width="1" stroke-linejoin="round" stroke-linecap="round" fill="none" d="
M -1.9 -17.15
Q -3.35 -16.4 -4.75 -13.9
M 12.05 -2.25
L 12.3 -2.55
M 8.4 1.45
L 10.35 -0.05 12.05 -2.25
M 13.1 6.25
L 13.95 5.4 14.65 4.2
M 11.05 4.7
Q 11.85 4.4 12.65 3.4
L 14.2 1.25
M 8.85 3.9
L 11.2 1.8
Q 12.25 0.9 13.1 -0.8
M -8.75 -16.1
Q -8.6 -17.05 -7.5 -18.3
M -7.2 -14.45
Q -5.85 -17.25 -4.7 -18.15
M -10.85 -16.7
L -10.55 -17.5 -9.55 -18.95
M -24.75 10.85
Q -23.9 10.1 -22.8 9.5 -21.25 8.6 -19.8 8.6
L -17.45 8.85
Q -16.35 9.15 -15.15 10.05
M -24.2 14.85
Q -23.6 13.05 -22.15 11.95 -20.65 10.85 -18.9 10.85 -17.8 10.85 -16.55 11.5 -15.2 12.2 -14.55 13.2
M -22.2 6.75
L -20 6.4
Q -16.65 6.4 -15.45 8.2
M -13.55 24.8
Q -14.8 24.25 -15.3 23.55 -15.9 22.75 -15.9 21.1 -15.9 19.6 -15.3 18.8
L -13.25 16.7
M -12.15 25.2
L -13.55 23.75 -13.8 21.95
Q -13.8 20.45 -13.25 19.65
L -11.25 17.3
M -8.1 24.75
Q -9.6 24.85 -10.65 23.85 -11.6 22.9 -11.6 21.55 -11.6 20.45 -10.25 19 -9 17.6 -9 16.9 -9 16.6 -9.3 16.35"/>
</defs>

<g transform="matrix( 1, 0, 0, 1, 30.45,29.35) ">
<use xlink:href="#Layer0_0_FILL"/>

<use xlink:href="#Layer0_0_1_STROKES"/>
</g>

<g transform="matrix( 1, 0, 0, 1, 30.55,28.9) ">
<use xlink:href="#Layer0_1_FILL"/>

<use xlink:href="#Layer0_1_1_STROKES"/>

<use xlink:href="#Layer0_1_2_STROKES"/>

<use xlink:href="#Layer0_1_3_STROKES"/>

<use xlink:href="#Layer0_1_4_STROKES"/>

<use xlink:href="#Layer0_1_5_STROKES"/>

<use xlink:href="#Layer0_1_6_STROKES"/>
</g>
</svg>
