
<svg xmlns="http://www.w3.org/2000/svg" version="1.1" xmlns:xlink="http://www.w3.org/1999/xlink" preserveAspectRatio="none" x="0px" y="0px" width="60px" height="60px" viewBox="0 0 60 60">
<defs>
<g id="Layer0_0_FILL">
<path fill="#CD0000" stroke="none" d="
M 12.4 -14.45
Q 11.75 -15.8 10.4 -16.35 8.9 -17 7.45 -16.35
L 7.45 -16.3
Q 6 -15.65 5.45 -14.15
L 5.45 -14.2 5.4 -14
Q -0.8 -13.95 -5.55 -10.85
L -5.65 -10.8 -5.85 -10.75 -6.15 -10.25 -6.1 -9.7
Q -5.95 -9.45 -5.6 -9.35
L -3.15 -8.8 -6 -5.85
Q -9.6 -2.15 -12.45 4.25
L -12.45 4.2 -13.3 5.15 -13.45 5.15
Q -15.95 2.7 -18.15 1.45
L -18.2 1.45
Q -19.5 0.75 -20.25 0.85 -21.4 0.85 -21.85 1.9
L -21.8 1.9 -21.95 2.35
Q -22.4 3.7 -21.05 4.95
L -17.8 9.2 -17.75 9.25 -17.5 9.65 -17.45 9.7 -17.25 10.1 -17.2 10.15
Q -16.8 10.95 -17.1 11.4
L -17.15 11.45 -17.2 11.45 -20.2 15.2 -20.2 15.3
Q -21.05 17.6 -19.95 18.4
L -19.95 18.35
Q -19.15 19.35 -16.45 18.6 -12.2 17.4 -9.45 12.35 -0.75 10.75 3.65 8.2 3.9 9.5 4.55 10.9
L 4.85 11.2 5.3 11.3 5.75 11.1 5.8 11 5.85 11
Q 8.45 8.65 9 5.85 16.35 3.1 20.6 -2.85 22.1 -5.1 23.2 -7.75
L 25.35 -8.85 25.7 -9.1 25.75 -9.25 25.75 -9.85 25.5 -10.15 25.2 -10.35 25.15 -10.35
Q 19.25 -14.25 12.4 -14.45 Z"/>
</g>

<g id="Layer0_0_MEMBER_0_FILL">
<path fill="#EE8300" stroke="none" d="
M -16.55 9.8
L -15.2 9.5 -14.75 9.65 -14.75 9.55 -16.85 9.25 -16.55 9.8
M -18.25 4.15
L -18.15 4 -21.2 2.45
Q -21.55 3.45 -20.55 4.4
L -16.85 9.25 -14.75 9.55
Q -15.15 8.45 -16.1 7.05
L -16.25 6.8 -19.15 5.4 -16.25 6.8 -18.25 4.15
M -7.25 5.15
L -7.5 6.05
Q -7.5 7.25 -6.45 7.25
L -5.75 7.15 -5.65 7 -6.55 6.3 -7.25 5.15
M -6.6 3.15
L -5.75 3.65 -4.65 3.5
Q -5.6 3.05 -6 2
L -6.2 0.9 -6.6 1.55
Q -7.05 2.35 -6.6 3.15
M -3.8 4.55
L -4 5.2
Q -4 6.25 -2.8 6.25
L -2.15 6.15 -3.05 5.2 -3.65 4.25 -3.8 4.55
M -1.8 2.6
L -1.25 2.15
Q -2.15 2.2 -2.8 1.3 -3.35 0.6 -3.5 -0.25
L -3.75 0.75
Q -3.75 1.6 -3.25 2.15 -2.8 2.65 -2.25 2.65
L -1.8 2.6
M 6.35 -11.3
L 4.5 -11.15
Q 5.05 -9.4 5.9 -8.5
L 6.35 -8.1
Q 9.25 -6.75 11.15 -7.9
L 12.25 -9
Q 13.1 -10.1 13.4 -11.3
L 11.7 -11.3
Q 11.2 -10.45 10.25 -10.05
L 7.9 -9.95
Q 6.85 -10.4 6.35 -11.3
M -0.35 -10.7
L -5.2 -10.05 -1.6 -9.2 -2.3 -8.55 1.75 -9.1
Q 1.3 -10.05 -0.35 -10.7
M 5.5 3.5
L 5.2 3.75 4.15 4.4
Q 1.8 5.85 -0.7 7 -5.8 9.3 -11.3 9.9
L -11.4 9.9
Q -11.7 11.5 -13.45 13.6 -15.45 15.9 -17.05 15.9
L -17.65 15.65 -19.45 17.8 -16.65 17.85
Q -12.55 16.7 -9.95 11.65
L -9.9 11.65
Q -0.05 9.9 4.25 6.9 4.25 5.55 4.4 4.85 4.25 5.55 4.25 6.9 4.35 8.7 5.2 10.55
L 5.3 10.45 6.25 6.1
Q 5.75 5.25 5.6 4.5
L 5.5 3.5
M 17.55 -4.85
L 18.05 -5.25 18.15 -5.35
Q 20.25 -7.05 22.6 -8.3 23.75 -9 25.05 -9.55
L 24.75 -9.75 21 -9.75
Q 16.05 -6.7 14.35 -2.5
L 17.55 -4.85 Z"/>

<path fill="#F5D53F" stroke="none" d="
M 4.5 -11.15
L 4.35 -11.15 -0.5 -10.75 -0.35 -10.7
Q 1.3 -10.05 1.75 -9.1 -4.45 -5 -6.75 -1
L -9.1 3.75
Q -10.55 6.4 -12.65 7.9
L -12.7 7.9 -13.15 7.9
Q -14.55 7.6 -15.9 6.2
L -18.15 4 -18.25 4.15 -16.25 6.8 -13.75 8 -16.25 6.8 -16.1 7.05
Q -15.15 8.45 -14.75 9.55
L -13.4 9.75 -14.75 9.55 -14.75 9.65 -14.7 9.75 -14.5 11
Q -14.5 12.15 -15.5 13.4
L -12.9 12 -15.5 13.4 -15.55 13.45 -17.65 15.65 -17.05 15.9
Q -15.45 15.9 -13.45 13.6 -11.7 11.5 -11.4 9.9
L -11.3 9.9
Q -5.8 9.3 -0.7 7 1.8 5.85 4.15 4.4
L 5.2 3.75 5.5 3.5 5.6 4.5
Q 5.75 5.25 6.25 6.1
L 7 3.85
Q 7.35 3.3 7.85 3
L 8.25 2.9 9.15 2.55 12.55 0.7
Q 15.05 -0.9 16.75 -2.75
L 16.4 -2.75 14.35 -2.5
Q 16.05 -6.7 21 -9.75 16.75 -11 14.15 -11.25
L 13.4 -11.3
Q 13.1 -10.1 12.25 -9
L 11.15 -7.9
Q 9.25 -6.75 6.35 -8.1
L 5.9 -8.5
Q 5.05 -9.4 4.5 -11.15
M 2.5 -6.25
Q 2.2 -2.55 5.75 -0.1 2.2 -2.55 2.5 -6.25
M 0.6 -4.5
Q 0.55 -1.2 2.75 0.25 0.55 -1.2 0.6 -4.5
M -1.25 2.15
L -1.8 2.6 -2.25 2.65
Q -2.8 2.65 -3.25 2.15 -3.75 1.6 -3.75 0.75
L -3.5 -0.25
Q -3.35 0.6 -2.8 1.3 -2.15 2.2 -1.25 2.15
M -4 5.2
L -3.8 4.55 -3.65 4.25 -3.05 5.2 -2.15 6.15 -2.8 6.25
Q -4 6.25 -4 5.2
M -5.75 3.65
L -6.6 3.15
Q -7.05 2.35 -6.6 1.55
L -6.2 0.9 -6 2
Q -5.6 3.05 -4.65 3.5
L -5.75 3.65
M -7.5 6.05
L -7.25 5.15 -6.55 6.3 -5.65 7 -5.75 7.15 -6.45 7.25
Q -7.5 7.25 -7.5 6.05
M -15.5 13.4
L -15.55 13.4 -15.55 13.45 -15.5 13.4
M -5.2 -10.05
L -5.25 -10.2 -5.45 -10.1 -5.2 -10.05 Z"/>

<path fill="#FFEA8A" stroke="none" d="
M 4.5 -11.15
L 6.35 -11.3 6.2 -11.6
Q 5.85 -12.4 5.95 -13.25 -0.4 -13.35 -5.25 -10.2
L -5.2 -10.05 -0.35 -10.7 -0.5 -10.75 4.35 -11.15 4.5 -11.15
M -2.3 -8.55
L -5.45 -5.35
Q -9 -1.7 -11.8 4.55 -12.4 5.7 -13.15 5.9
L -12.7 7.9 -12.65 7.9
Q -10.55 6.4 -9.1 3.75
L -6.75 -1
Q -4.45 -5 1.75 -9.1
L -2.3 -8.55
M 18.05 -5.25
L 17.55 -4.85 14.35 -2.5 16.4 -2.75 19.95 -3.3
Q 21.5 -5.55 22.6 -8.3 20.25 -7.05 18.15 -5.35
L 18.05 -5.25
M 12.25 -13.7
L 11.9 -13.6
Q 12.15 -12.65 11.85 -11.7
L 11.7 -11.3 13.4 -11.3 14.15 -11.25
Q 16.75 -11 21 -9.75
L 24.75 -9.75
Q 18.95 -13.55 12.25 -13.7 Z"/>

<path fill="#EEAA00" stroke="none" d="
M -19.5 15.45
Q -20.15 17.2 -19.45 17.8
L -17.65 15.65 -15.55 13.45 -19.5 15.45
M -16.55 9.8
Q -15.85 11.15 -16.6 11.9
L -19.5 15.45 -15.55 13.45 -15.55 13.4 -15.5 13.4
Q -14.5 12.15 -14.5 11
L -14.7 9.75 -14.75 9.65 -15.2 9.5 -16.55 9.8
M -13.15 5.9
L -13.8 5.85
Q -16.3 3.35 -18.55 2.1
L -21.15 2.2 -21.2 2.45 -18.15 4 -15.9 6.2
Q -14.55 7.6 -13.15 7.9
L -12.7 7.9 -13.15 5.9
M 8.3 5.3
L 8.25 2.9 7.85 3
Q 7.35 3.3 7 3.85
L 6.25 6.1 5.3 10.45
Q 7.9 8.15 8.3 5.3
M 16.4 -2.75
L 16.75 -2.75
Q 15.05 -0.9 12.55 0.7
L 9.15 2.55 8.25 2.9 8.3 5.3
Q 15.75 2.65 19.95 -3.3
L 16.4 -2.75 Z"/>

<path fill="#FFFFFF" stroke="none" d="
M 11.9 -13.6
L 11.75 -14.05
Q 11.25 -15.2 10.1 -15.65 8.9 -16.15 7.75 -15.65 6.6 -15.1 6.15 -13.9
L 5.95 -13.25
Q 5.85 -12.4 6.2 -11.6
L 6.35 -11.3
Q 6.85 -10.4 7.9 -9.95
L 10.25 -10.05
Q 11.2 -10.45 11.7 -11.3
L 11.85 -11.7
Q 12.15 -12.65 11.9 -13.6
M 9.35 -13.35
L 9.6 -13.35 9.35 -13.35 Z"/>
</g>

<g id="Layer0_0_MEMBER_1_FILL">
<path fill="#FFFFFF" fill-opacity="0.30196078431372547" stroke="none" d="
M 0.5 -10.3
Q 1.45 -9.8 1.75 -9.1
L -1.45 -6.75 -10.6 9.8
Q -7.7 9.4 -4.9 8.6
L 4.8 -10.3 4.5 -11.15 4.35 -11.15 -0.5 -10.75 -0.35 -10.7 0.5 -10.3
M 17.4 -10.7
L 14.55 -11.2 5.8 5.25 6.25 6.1 7 3.85 7.55 2.85
Q 7.75 2.35 8.1 2.35 8.45 2.3 9.1 2.75
L 10.9 1.7 17.4 -10.7 Z"/>
</g>

<path id="Layer0_0_1_STROKES" stroke="#FFFFFF" stroke-width="5" stroke-linejoin="round" stroke-linecap="round" fill="none" d="
M 25.5 -10.15
L 25.2 -10.35 25.15 -10.35
Q 19.25 -14.25 12.4 -14.45 11.75 -15.8 10.4 -16.35 8.9 -17 7.45 -16.35
L 7.45 -16.3
Q 6 -15.65 5.45 -14.15
L 5.45 -14.2 5.4 -14
Q -0.8 -13.95 -5.55 -10.85
L -5.65 -10.8 -5.85 -10.75 -6.15 -10.25 -6.1 -9.7
Q -5.95 -9.45 -5.6 -9.35
L -3.15 -8.8 -6 -5.85
Q -9.6 -2.15 -12.45 4.25
L -12.45 4.2 -13.3 5.15 -13.45 5.15
Q -15.95 2.7 -18.15 1.45
L -18.2 1.45
Q -19.5 0.75 -20.25 0.85 -21.4 0.85 -21.85 1.9
L -21.8 1.9 -21.95 2.35
Q -22.4 3.7 -21.05 4.95
L -17.8 9.2 -17.75 9.25 -17.5 9.65 -17.45 9.7 -17.25 10.1 -17.2 10.15
Q -16.8 10.95 -17.1 11.4
L -17.15 11.45 -17.2 11.45 -20.2 15.2 -20.2 15.3
Q -21.05 17.6 -19.95 18.4
L -19.95 18.35
Q -19.15 19.35 -16.45 18.6 -12.2 17.4 -9.45 12.35 -0.75 10.75 3.65 8.2 3.9 9.5 4.55 10.9
L 4.85 11.2 5.3 11.3 5.75 11.1 5.8 11 5.85 11
Q 8.45 8.65 9 5.85 16.35 3.1 20.6 -2.85 22.1 -5.1 23.2 -7.75
L 25.35 -8.85 25.7 -9.1 25.75 -9.25 25.75 -9.85 25.5 -10.15 Z"/>

<path id="Layer0_0_MEMBER_0_1_STROKES" stroke="#000000" stroke-width="1.5" stroke-linejoin="round" stroke-linecap="round" fill="none" d="
M 5.95 -13.25
L 6.15 -13.9
Q 6.6 -15.1 7.75 -15.65 8.9 -16.15 10.1 -15.65 11.25 -15.2 11.75 -14.05
L 11.9 -13.6
M 12.25 -13.7
Q 18.95 -13.55 24.75 -9.75
L 25.05 -9.55
Q 23.75 -9 22.6 -8.3 21.5 -5.55 19.95 -3.3 15.75 2.65 8.3 5.3 7.9 8.15 5.3 10.45
L 5.2 10.55
Q 4.35 8.7 4.25 6.9 -0.05 9.9 -9.9 11.65
L -9.95 11.65
Q -12.55 16.7 -16.65 17.85
L -19.45 17.8
Q -20.15 17.2 -19.5 15.45
L -16.6 11.9
Q -15.85 11.15 -16.55 9.8
L -16.85 9.25 -20.55 4.4
Q -21.55 3.45 -21.2 2.45
L -21.15 2.2 -18.55 2.1
Q -16.3 3.35 -13.8 5.85
L -13.15 5.9
Q -12.4 5.7 -11.8 4.55 -9 -1.7 -5.45 -5.35
L -2.3 -8.55 -1.6 -9.2 -5.2 -10.05 -5.45 -10.1 -5.25 -10.2
Q -0.4 -13.35 5.95 -13.25 5.85 -12.4 6.2 -11.6
L 6.35 -11.3
Q 6.85 -10.4 7.9 -9.95
L 10.25 -10.05
Q 11.2 -10.45 11.7 -11.3
L 11.85 -11.7
Q 12.15 -12.65 11.9 -13.6
M 9.35 -13.35
L 9.6 -13.35
M 17.55 -4.85
L 18.05 -5.25
M 18.15 -5.35
Q 20.25 -7.05 22.6 -8.3
M 8.25 2.9
L 8.3 5.3
M 4.4 4.85
Q 4.25 5.55 4.25 6.9"/>

<path id="Layer0_0_MEMBER_0_2_STROKES" stroke="#000000" stroke-width="0.7" stroke-linejoin="round" stroke-linecap="round" fill="none" d="
M 2.5 -6.25
Q 2.2 -2.55 5.75 -0.1
M 6.35 -8.1
Q 9.25 -6.75 11.15 -7.9
L 12.25 -9
M -16.25 6.8
L -13.75 8
M 0.6 -4.5
Q 0.55 -1.2 2.75 0.25
M -13.4 9.75
L -14.75 9.55 -16.85 9.25
M -19.15 5.4
L -16.25 6.8
M -15.55 13.45
L -15.5 13.4 -12.9 12
M -19.5 15.45
L -15.55 13.45"/>

<path id="Layer0_0_MEMBER_0_3_STROKES" stroke="#00FF00" stroke-width="0.1" stroke-linejoin="round" stroke-linecap="round" fill="none" d="
M 18.05 -5.25
L 18.15 -5.35"/>
</defs>

<g transform="matrix( 1, 0, 0, 1, 28.15,28.9) ">
<use xlink:href="#Layer0_0_FILL"/>

<use xlink:href="#Layer0_0_1_STROKES"/>
</g>

<g transform="matrix( 1, 0, 0, 1, 28.15,28.9) ">
<use xlink:href="#Layer0_0_MEMBER_0_FILL"/>

<use xlink:href="#Layer0_0_MEMBER_0_1_STROKES"/>

<use xlink:href="#Layer0_0_MEMBER_0_2_STROKES"/>

<use xlink:href="#Layer0_0_MEMBER_0_3_STROKES"/>
</g>

<g transform="matrix( 1, 0, 0, 1, 28.15,28.9) ">
<use xlink:href="#Layer0_0_MEMBER_1_FILL"/>
</g>
</svg>
