
<svg xmlns="http://www.w3.org/2000/svg" version="1.1" xmlns:xlink="http://www.w3.org/1999/xlink" preserveAspectRatio="none" x="0px" y="0px" width="60px" height="60px" viewBox="0 0 60 60">
<defs>
<g id="Layer0_0_MEMBER_0_FILL">
<path fill="#9C211A" stroke="none" d="
M -10.9 -1.9
L -11.8 -1.75 -11.85 -1.75 -15.15 -1.3 -17.65 -0.85 -20.65 -0.35 -4.9 1.4 -4.9 0.9 -5 0.1 -12.2 -0.55 -6.6 -1.2
Q -8 -1.9 -10.9 -1.9 Z"/>

<path fill="#FFB4B9" stroke="none" d="
M -19.15 -2.75
L -19.85 -2.45 -20.65 -0.35 -17.65 -0.85 -17.2 -2.35 -19.15 -2.75 Z"/>

<path fill="#FFEAC5" stroke="none" d="
M -7.7 -15.8
L -8.85 -16.3 -9.4 -15.75 -4.85 -12.1
Q -2.25 -10.15 -0.95 -7.05 0.15 -7.05 -0.25 -8.2
L -1.55 -10.65 -6.05 -14.85
Q -6.85 -15.4 -7.7 -15.8
M 0.9 -6.1
Q 0.9 -5.1 2.2 -5.1 2.95 -5.1 2.95 -5.9 3 -7.35 1.8 -7.35 0.9 -7.35 0.9 -6.1 Z"/>

<path fill="#E3231E" stroke="none" d="
M 12.65 2.3
L 12.75 3.1
Q 10.35 3.55 8.5 2.4 7.25 1.55 5.6 1.2 4.9 1.2 4.75 0.6 1.8 1.65 1.35 2.1 -2.55 5.95 -3.75 11.3 -4.2 13.45 -5.6 15.3
L -6.7 15.6 -7.25 15.3 -7.05 16.45 -6 16.15 -5.25 15.55 -0.4 7.85 0.95 6.25 3.15 4.2 4.1 3.55
Q 4.5 3.25 5 3.05
L 6.05 3.05 7.1 3.45 10.1 5.35 15.7 4.85 15.95 4.45 12.65 2.3 Z"/>

<path fill="#FF6C53" stroke="none" d="
M 8.6 -0.85
L 2.4 -2.7
Q 0.35 -2.7 -1.3 0.35
L -6.95 10.5 -7.25 15.3 -6.7 15.6 -5.6 15.3
Q -4.2 13.45 -3.75 11.3 -2.55 5.95 1.35 2.1 1.8 1.65 4.75 0.6
L 7.05 0.55
Q 8.95 1.75 11.1 2.1
L 12.65 2.3 15.95 4.45 15.7 4.85 20.35 5.25 20.55 3.75 19.1 2.55 15.5 0.95
Q 14.4 0.95 8.6 -0.85
M -4.55 10.2
L -4.2 10.45
Q -3.85 11.1 -4.35 11.65 -5.35 12.65 -6 13.8
L -6.4 12.5 -4.55 10.2
M -4.5 -9.35
L -4.35 -9.85 -7.6 -12.55 -6.15 -9.5 -3.7 -6.45 -3.5 -6.25 -3.55 -6.25 -3.25 -5.5 -3.15 -6.2 -4.5 -9.35
M -15 -2.35
L -15.15 -1.3 -11.85 -1.75 -11.9 -1.8 -11.8 -1.75 -10.9 -1.9
Q -8 -1.9 -6.6 -1.2
L -6.1 -1.25 -8.7 -2.35
Q -9.85 -2.85 -10.65 -3.35
L -12.75 -3.2 -15 -2.35
M -10.65 -3.35
L -12.55 -3.3 -12.75 -3.2 -10.65 -3.35
M 7.75 -8.2
Q 7.5 -9.4 7.05 -9.7
L 6 -9.5 6.4 -6.1 7.9 -6.8 7.75 -8.2 Z"/>

<path fill="#D42D25" stroke="none" d="
M -4.2 10.45
L -4.55 10.2 -6.4 12.5 -6 13.8
Q -5.35 12.65 -4.35 11.65 -3.85 11.1 -4.2 10.45 Z"/>

<path fill="#BB6954" stroke="none" d="
M 6.15 -4
Q 6.85 -3.6 7.5 -3.4
L 11.25 -4.9 14.2 -9.5 14.9 -11.3 14.55 -12 13.05 -11.95 11.8 -11.75 9.7 -10.9 11.5 -8.6 7.9 -6.8 6.4 -6.1
Q 5.05 -5.45 5.05 -5.2 5.05 -4.65 6.15 -4
M 7.75 -5.05
L 7.35 -5.3
Q 9.8 -5.9 11.1 -7.9
L 11.6 -7.75 11.8 -7.3
Q 10.3 -4.95 7.75 -5.05 Z"/>

<path fill="#000000" stroke="none" d="
M 7.35 -5.3
L 7.75 -5.05
Q 10.3 -4.95 11.8 -7.3
L 11.6 -7.75 11.1 -7.9
Q 9.8 -5.9 7.35 -5.3
M -6.1 -1.25
L -6.6 -1.2 -12.2 -0.55 -5 0.1
Q -4.55 0.05 -4.4 -0.5 -4.7 -1.25 -6.1 -1.25
M 12.65 2.3
L 11.1 2.1
Q 8.95 1.75 7.05 0.55
L 4.75 0.6
Q 4.9 1.2 5.6 1.2 7.25 1.55 8.5 2.4 10.35 3.55 12.75 3.1
L 12.65 2.3 Z"/>

<path fill="#F89168" stroke="none" d="
M 7.5 -3.4
Q 6.85 -3.6 6.15 -4 5.05 -4.65 5.05 -5.2 5.05 -5.45 6.4 -6.1
L 6 -9.5 1.15 -8.9 -1.55 -10.65 -0.25 -8.2
Q 0.15 -7.05 -0.95 -7.05
L -4.35 -9.85 -4.5 -9.35 -3.15 -6.2 -3.25 -5.5
Q -3.5 -4.35 -4.75 -3.45 -6.4 -2.35 -8.7 -2.35
L -6.1 -1.25
Q -4.7 -1.25 -4.4 -0.5 -4.55 0.05 -5 0.1
L -4.9 0.9 -4.9 1.4 -5.05 3.85 -5.3 5.35 -6.95 10.5 -1.3 0.35
Q 0.35 -2.7 2.4 -2.7
L 8.6 -0.85
Q 14.4 0.95 15.5 0.95
L 11.6 -1 7.7 -2.9 7.5 -3.4
M 2.2 -5.1
Q 0.9 -5.1 0.9 -6.1 0.9 -7.35 1.8 -7.35 3 -7.35 2.95 -5.9 2.95 -5.1 2.2 -5.1
M -3.7 -6.45
L -3.55 -6.25 -3.5 -6.25 -3.7 -6.45
M -11.85 -1.75
L -11.8 -1.75 -11.9 -1.8 -11.85 -1.75 Z"/>

<path fill="#E25655" stroke="none" d="
M 7.05 -9.7
Q 7.5 -9.4 7.75 -8.2
L 7.9 -6.8 11.5 -8.6 9.7 -10.9 7.05 -9.7 Z"/>

<path fill="#D06E53" stroke="none" d="
M -6.55 -5.25
L -7.6 -4.5
Q -8.05 -4.15 -8.6 -3.95 -9.05 -3.65 -9.55 -3.45
L -10.65 -3.35
Q -9.85 -2.85 -8.7 -2.35 -6.4 -2.35 -4.75 -3.45 -3.5 -4.35 -3.25 -5.5
L -6.55 -5.25 Z"/>

<path fill="#EB4D5C" stroke="none" d="
M -12.75 -3.2
L -12.55 -3.3 -15.95 -3 -12.75 -3.2
M -15.95 -3
L -19.15 -2.75 -17.2 -2.35 -17.65 -0.85 -15.15 -1.3 -15 -2.35 -12.75 -3.2 -15.95 -3 Z"/>

<path fill="#B3321F" stroke="none" d="
M -8.8 -12.7
L -8.75 -12.65 -8.75 -12.6 -8.7 -12.45 -8.65 -12.2 -6.55 -5.25 -3.25 -5.5 -3.55 -6.25 -3.7 -6.45 -6.15 -9.5 -3.9 -5.65
Q -5.6 -6.4 -6.4 -8.1
L -8.5 -12.65 -9.05 -13.6 -8.85 -12.85 -8.8 -12.75 -8.8 -12.7
M -8.75 -12.65
L -8.8 -12.7 -8.8 -12.65 -8.75 -12.6 -8.75 -12.65
M -8.85 -12.85
L -8.8 -12.7 -8.8 -12.75 -8.85 -12.85
M -9.05 -13.65
L -9.1 -13.65 -9.05 -13.6 -9.05 -13.65 Z"/>

<path fill="#C86053" stroke="none" d="
M -9.1 -13.65
L -9.05 -13.65 -9.05 -13.6 -8.5 -12.65 -6.4 -8.1
Q -5.6 -6.4 -3.9 -5.65
L -6.15 -9.5 -7.6 -12.55 -4.35 -9.85 -0.95 -7.05
Q -2.25 -10.15 -4.85 -12.1
L -9.4 -15.75 -9.1 -13.65 Z"/>
</g>

<path id="Layer0_0_1_STROKES" stroke="#FFFFFF" stroke-width="7" stroke-linejoin="round" stroke-linecap="round" fill="none" d="
M 30.97530288696289 22.73896026611328
L 28.561469268798827 20.646971130371092 22.92919082641602 16.78483734130859 22.486654663085936 17.22737350463867 22.808499145507813 19.15844039916992 24.779796600341797 25.67579116821289
Q 23.13034362792969 26.480402374267577 21.40042953491211 27.083860778808592 17.81990966796875 28.210316467285153 14.078467559814452 27.928702545166015
L 13.434778594970705 29.618386077880857 17.860140228271483 30.342536163330077 26.10740509033203 30.624150085449216
Q 26.1878662109375 32.635678100585935 25.705099487304686 34.68743667602539 24.699335479736327 38.83118438720703 24.377490997314453 43.135854339599604
L 25.503946685791014 43.01516265869141 27.233860778808594 39.75648727416992
Q 29.40631103515625 35.61273956298828 33.46959762573242 33.721903228759764
L 36.08458404541015 33.560980987548824
Q 41.15363464355469 34.767897796630855 46.423838043212896 34.12420883178711
L 46.58476028442383 32.91729202270508 36.08458404541015 27.164321899414062
Q 39.0616455078125 26.198788452148435 40.06740951538086 24.67002716064453 41.03294296264649 23.141265869140625 42.03870697021485 20.80789337158203
L 41.596170806884764 20.204434967041013
Q 39.86625671386719 20.8883544921875 37.97542037963867 21.491812896728515 34.51559219360352 22.53780746459961 30.97530288696289 22.73896026611328 Z"/>

<path id="Layer0_0_MEMBER_0_1_STROKES" stroke="#000000" stroke-width="1.5" stroke-linejoin="round" stroke-linecap="round" fill="none" d="
M 37.85472869873047 21.129737854003906
L 35.72250900268555 22.09527130126953 34.87766723632812 22.256193542480467
M 39.383489990234374 29.09538879394531
L 36.245506286621094 27.566627502441406 36.08458404541015 27.164321899414062 39.10187606811523 25.95740509033203 41.47547912597656 22.256193542480467 42.03870697021485 20.80789337158203 41.757093048095705 20.24466552734375 40.55017623901367 20.284896087646484 39.544412231445314 20.44581832885742 37.85472869873047 21.129737854003906
M 28.802852630615234 21.330890655517578
L 30.97530288696289 22.73896026611328 34.87766723632812 22.256193542480467
M 39.383489990234374 29.09538879394531
L 45.41807403564454 31.951758575439452 46.58476028442383 32.91729202270508 46.423838043212896 34.12420883178711 42.682395935058594 33.802364349365234 38.17657318115234 34.20466995239258 35.76273956298828 32.67590866088867 34.91789779663086 32.35406417846679 34.073056030273435 32.35406417846679
Q 33.67075042724609 32.51498641967773 33.34890594482422 32.756369781494136
L 32.58452529907227 33.27936706542969 30.814380645751953 34.928820037841795 29.728155517578127 36.2161979675293 25.82579116821289 42.41170425415039 25.222332763671876 42.8944709777832 24.377490997314453 43.135854339599604 24.216568756103516 42.21055145263672 24.457952117919923 38.34841766357422 25.785560607910156 34.20466995239258 25.986713409423828 32.99775314331055 26.10740509033203 31.02645568847656 13.434778594970705 29.618386077880857 14.078467559814452 27.928702545166015 14.641695404052737 27.687319183349608 17.216451263427736 27.486166381835936
M 21.480890655517577 27.204552459716794
L 22.365962982177734 27.124091339111327
Q 22.768268585205078 26.96316909790039 23.13034362792969 26.721785736083984 23.572879791259766 26.560863494873047 23.934954833984378 26.279249572753905
L 24.779796600341797 25.67579116821289 23.09011306762695 20.083743286132812 22.96942138671875 19.721668243408203 22.96942138671875 19.681437683105468 22.92919082641602 19.560746002197263 22.768268585205078 18.957287597656247 22.728038024902347 18.917057037353516 22.486654663085936 17.22737350463867 22.92919082641602 16.78483734130859 23.854493713378908 17.187142944335935
Q 24.538413238525393 17.508987426757812 25.18210220336914 17.951523590087888
L 28.802852630615234 21.330890655517578
M 22.768268585205078 18.917057037353516
L 22.768268585205078 18.957287597656247
M 23.009651947021485 19.761898803710935
L 23.009651947021485 19.721668243408203 22.96942138671875 19.681437683105468 22.96942138671875 19.641207122802733 22.92919082641602 19.560746002197263
M 23.009651947021485 19.761898803710935
L 22.96942138671875 19.721668243408203
M 19.791207122802735 27.325244140625
L 17.216451263427736 27.486166381835936
M 21.480890655517577 27.204552459716794
L 19.791207122802735 27.325244140625"/>
</defs>

<g transform="matrix( 0.8046112060546875, 0, 0, 0.8046112060546875, 30.05,29.9) ">
<use xlink:href="#Layer0_0_1_STROKES" transform="matrix( 1.242828369140625, 0, 0, 1.242828369140625, -37.3,-37.15) "/>
</g>

<g transform="matrix( 0.8046112060546875, 0, 0, 0.8046112060546875, 30.05,29.9) ">
<use xlink:href="#Layer0_0_MEMBER_0_FILL"/>

<use xlink:href="#Layer0_0_MEMBER_0_1_STROKES" transform="matrix( 1.242828369140625, 0, 0, 1.242828369140625, -37.3,-37.15) "/>
</g>
</svg>
