
<svg xmlns="http://www.w3.org/2000/svg" version="1.1" xmlns:xlink="http://www.w3.org/1999/xlink" preserveAspectRatio="none" x="0px" y="0px" width="60px" height="60px" viewBox="0 0 60 60">
<defs>
<g id="Layer0_0_MEMBER_0_FILL">
<path fill="#CAB70D" stroke="none" d="
M -15.3 5.6
L -15.95 4.7 -17.25 6.2 -15.15 8.6 -14.5 6.4 -11.25 1.95
Q -13.65 3.05 -15.3 5.6
M -19.25 3.9
L -17.6 2.7 -18 2.15 -18.8 0.35 -20.75 0.9
Q -20.25 2.5 -19.25 3.9
M -17.6 2.7
L -19.25 3.9 -17.7 5.75 -17.25 6.2 -15.95 4.7 -17.6 2.7
M -20.95 -4.7
L -21.2 -2.35 -19.4 -2.25 -19.45 -3.45 -19.3 -5.2 -20.35 -6.35 -20.95 -4.7
M -21.2 -2.35
L -21.2 -2.3
Q -21.2 -0.6 -20.75 0.9
L -18.8 0.35 -19.4 -2.25 -21.2 -2.35
M 18.55 -15.45
L 16.75 -14
Q 15.75 -12.6 15.4 -11.25
L 14.35 -7.5
Q 15 -7.8 15.7 -8.7
L 16.35 -9.55 17.8 -14.1 18.55 -15.45
M -5.85 8.55
L -5.9 10.85
Q -5.95 13.25 -6.85 15.55
L -7.75 17.85
Q -8.25 19.1 -8.25 20.05
L -8.15 20.9
Q -5.45 18.6 -3.7 13.9
L -3.2 12.6 -3.1 10.55 -3.3 8.75
Q -3.9 10.4 -4.5 11.05
L -4.6 7.45 -4.8 7.45
Q -5.35 7.45 -5.75 7.75
L -5.85 8.55 Z"/>

<path fill="#0C2C48" stroke="none" d="
M -4.6 7.45
Q -3.65 7.55 -3.3 8.75
L -2.9 7.45
Q -3.4 6.5 -4.45 6.5
L -4.65 6.55 -4.6 7.45
M 15.75 -7.5
L 16.35 -9.55 15.7 -8.7
Q 15 -7.8 14.35 -7.5
L 13.55 -7.3
Q 13.1 -7.3 13 -7.75
L 12.95 -7.9 12.95 -9.4 12.9 -9.1 12.9 -9 12.65 -8.2 12.35 -7.7
Q 12.55 -6 13.4 -6
L 13.75 -6.05
Q 14.5 -6.3 15.75 -7.5 Z"/>

<path fill="#12093E" stroke="none" d="
M -2.7 7.95
L -2.9 7.45 -3.3 8.75 -3.1 10.55 -3.2 12.6 -2.45 9.75
Q -2.5 8.55 -2.7 7.95
M 3.25 -16.85
L 2.4 -18.1 1.5 -18.95
Q -0.15 -18.45 -1.75 -16.75
L -3.95 -14.05 -4.65 -12.35
Q -6.1 -8.3 -6.95 -7.05
L -7.4 -6.05
Q -9.05 -2.55 -12.95 -2.55
L -11.1 -1.4
Q -10.55 -0.85 -10.55 0.2 -10.55 0.95 -11.25 1.95 -9.45 1.15 -7.3 1.15 -5.6 1.15 -4.4 2
L -4.15 2.15 -3.05 0.75
Q -2.7 0.15 -2.25 -1.85
L -1.85 -5.05 -1.95 -8.6
Q -1.95 -11.85 -1.2 -14.05 -0.1 -17.15 2.35 -17.15
L 3.25 -16.85
M -6.95 -3.4
L -5.65 -4.65 -4.85 -6.05
Q -4.2 -7.15 -3.5 -7.15 -2.7 -7.15 -2.7 -4.75 -2.7 0.75 -6.2 0.75 -7 0.75 -7.5 -0.05
L -7.6 -0.3 -7.85 -1.75
Q -7.85 -2.45 -6.95 -3.4
M -5.4 6.8
L -5.75 7.75
Q -5.35 7.45 -4.8 7.45
L -4.6 7.45 -4.65 6.55 -5.4 6.8
M 4.95 -19.1
L 4.1 -19.45
Q 5.25 -17.9 5.5 -16.65 5.5 -17.2 5.9 -17.7
L 6.35 -18.1 4.95 -19.1 Z"/>

<path fill="#09409D" stroke="none" d="
M -1.7 4.25
L -1.8 4.1 -2.9 7.45 -2.7 7.95
Q -2.5 8.55 -2.45 9.75
L -2 7.55 -1.7 4.25
M -4.6 3.65
L -3.4 4.75
Q -3.05 4.15 -2.95 3.35
L -4.15 2.15 -5.1 2.8 -5.7 3.1
Q -5.15 3.3 -4.6 3.65
M 13.75 -6.05
L 12.7 -4.35 12.1 -5.15 12.3 -0.65
Q 12.3 3.65 11.1 6.75 9.45 11.05 5.85 11.05 3.5 11.05 0.45 7.3
L -1.7 4.25 -2 7.55
Q -0.85 9.35 1.2 11.05 4.25 13.6 6.9 13.6 10.35 13.6 12 7.55 13.1 3.45 13.1 -1.2
L 13.1 -1.55 13.1 -3.65 13.55 -2.5 15.75 -7.5
Q 14.5 -6.3 13.75 -6.05
M 8.4 -0.3
Q 8.5 -0.15 8.65 -0.15
L 8.8 -0.2 8.9 -0.3 9 -0.65 8.9 -1 8.85 -1.05 8.65 -1.15 8.4 -1 8.3 -0.65 8.4 -0.3
M 8.8 -2.35
L 8.85 -2.4 8.95 -2.65 8.85 -2.95 8.8 -3 8.6 -3.05 8.35 -2.95 8.25 -2.65 8.35 -2.4 8.6 -2.25 8.8 -2.35
M 11.1 -3.8
L 11.2 -3.5
Q 11.3 -3.35 11.4 -3.35 11.5 -3.35 11.6 -3.5
L 11.7 -3.8 11.6 -4.15 11.4 -4.25 11.2 -4.15 11.1 -3.8
M 10.55 -5.4
L 10.45 -5.15 10.55 -4.9
Q 10.65 -4.8 10.75 -4.8 10.85 -4.8 10.95 -4.9
L 11.05 -5.15 10.95 -5.4 10.75 -5.5 10.55 -5.4
M 9.9 -2.45
L 9.65 -2.35 9.55 -2 9.65 -1.7
Q 9.75 -1.55 9.9 -1.55
L 10.15 -1.7 10.25 -2 10.15 -2.35 9.9 -2.45
M 6.2 -0.85
L 6.1 -0.5 6.2 -0.15 6.4 0 6.6 -0.15 6.7 -0.5 6.6 -0.85 6.4 -1 6.2 -0.85
M 7 -2.4
L 6.85 -2.75 6.6 -2.9 6.3 -2.75 6.2 -2.4 6.3 -2.05
Q 6.45 -1.9 6.6 -1.9
L 6.85 -2.05 7 -2.4
M 6 -4.2
L 5.85 -4.55 5.6 -4.7 5.3 -4.55 5.2 -4.2 5.3 -3.85
Q 5.45 -3.7 5.6 -3.7 5.75 -3.7 5.85 -3.85
L 6 -4.2
M 9.35 -4.35
L 9 -4.2 8.85 -3.85 9 -3.5
Q 9.15 -3.35 9.35 -3.35 9.55 -3.35 9.7 -3.5
L 9.85 -3.85 9.7 -4.2 9.35 -4.35
M 4.8 -2.55
L 4.5 -2.4 4.4 -1.95 4.5 -1.55 4.8 -1.35 5.05 -1.55 5.2 -1.95 5.05 -2.4 4.8 -2.55
M 4 -3.6
L 3.9 -3.9 3.65 -4 3.4 -3.9 3.3 -3.6 3.4 -3.35 3.65 -3.2 3.9 -3.35 4 -3.6
M 7.9 -3.6
L 8.1 -4.1 7.9 -4.65 7.5 -4.85 7.2 -4.75 7.05 -4.65 6.9 -4.1
Q 6.9 -3.8 7.05 -3.6
L 7.3 -3.4 7.5 -3.35 7.9 -3.6
M 8.55 -6.35
L 8.4 -6.75 8.3 -6.85 8.1 -6.9 7.75 -6.75 7.65 -6.35 7.75 -5.95
Q 7.9 -5.8 8.1 -5.8 8.3 -5.8 8.4 -5.95
L 8.45 -5.95 8.55 -6.35 Z"/>

<path fill="#0C0527" stroke="none" d="
M -4.15 2.15
L -4.4 2
Q -5.6 1.15 -7.3 1.15 -9.45 1.15 -11.25 1.95
L -14.5 6.4 -15.15 8.6 -14.15 10.05
Q -13.9 7.05 -11.85 5 -9.7 2.85 -6.95 2.85
L -5.7 3.1 -5.1 2.8 -4.15 2.15 Z"/>

<path fill="#FCF312" stroke="none" d="
M -17.7 -3.9
L -19.3 -5.2 -19.45 -3.45 -19.4 -2.25 -14 -1.6 -19.4 -2.25 -18.8 0.35 -14.4 -0.8 -18.8 0.35 -18 2.15 -17.6 2.7
Q -14.9 0.8 -14.1 0.6 -14.9 0.8 -17.6 2.7
L -15.95 4.7 -13 1.4 -15.95 4.7 -15.3 5.6
Q -13.65 3.05 -11.25 1.95 -10.55 0.95 -10.55 0.2 -10.55 -0.85 -11.1 -1.4
L -12.95 -2.55
Q -15.65 -2.55 -17.7 -3.9
M 16.75 -14
L 16.05 -13.25
Q 15.25 -12.35 13.1 -8.25
L 13.15 -9.9 12.95 -9.45 12.95 -9.4 12.95 -7.9 13 -7.75
Q 13.1 -7.3 13.55 -7.3
L 14.35 -7.5 15.4 -11.25
Q 15.75 -12.6 16.75 -14
M -3.3 8.75
Q -3.65 7.55 -4.6 7.45
L -4.5 11.05
Q -3.9 10.4 -3.3 8.75
M 18.55 -15.45
L 19.7 -17.3 19.3 -16.95
Q 17.7 -15.45 16.75 -14
L 18.55 -15.45 Z"/>

<path fill="#033249" stroke="none" d="
M -18.35 -5.65
Q -17.3 -4.55 -15.45 -3.8
L -12.95 -2.55
Q -9.05 -2.55 -7.4 -6.05
L -6.95 -7.05
Q -8 -5.5 -9.5 -4.95 -10.7 -3.85 -12.6 -3.85 -14.55 -3.85 -17 -5.3 -18.5 -6.2 -19.5 -7.25
L -18.35 -5.65 Z"/>

<path fill="#FEFAA0" stroke="none" d="
M -19.5 -7.25
L -19.65 -7.45 -20.35 -6.35 -19.3 -5.2 -17.7 -3.9
Q -15.65 -2.55 -12.95 -2.55
L -15.45 -3.8
Q -17.3 -4.55 -18.35 -5.65
L -19.5 -7.25
M 16.05 -13.25
L 16.75 -14
Q 17.7 -15.45 19.3 -16.95
L 19.7 -17.3 21.15 -19.3
Q 17.6 -17.25 14.95 -13.2
L 13.15 -9.9 13.1 -8.25
Q 15.25 -12.35 16.05 -13.25 Z"/>

<path fill="#006AC1" stroke="none" d="
M 13.1 -1.55
L 13.55 -2.5 13.1 -3.65 13.1 -1.55
M 0.85 -15.9
Q 1.5 -16.45 2.5 -16.45
L 4.8 -15.9
Q 5.15 -15.9 5.5 -16.1
L 5.65 -16.2 6.15 -16.65 6.05 -16.6 5.6 -16.25
Q 5.1 -17.3 3.9 -18.3 2.85 -19.2 1.85 -19.6 0.4 -19.15 -0.75 -18.35
L -2.65 -16.6 -3.95 -14.05 -1.75 -16.75
Q -0.15 -18.45 1.5 -18.95
L 2.4 -18.1 3.25 -16.85 2.35 -17.15
Q -0.1 -17.15 -1.2 -14.05 -1.95 -11.85 -1.95 -8.6
L -1.85 -5.05 -2.25 -1.85
Q -2.7 0.15 -3.05 0.75
L -4.15 2.15 -2.95 3.35 -3 2.4 -2.95 3.35
Q -3.05 4.15 -3.4 4.75
L -4.65 6.1 -5.2 6.55 -5.4 6.8 -4.65 6.55 -4.45 6.5
Q -3.4 6.5 -2.9 7.45
L -1.8 4.1 -1.7 4.25 -1.65 3.85 -1.65 2.9 -1.65 3.85 -1.7 4.25 0.45 7.3
Q 3.5 11.05 5.85 11.05 9.45 11.05 11.1 6.75 12.3 3.65 12.3 -0.65
L 12.1 -5.15 12.7 -4.35 13.75 -6.05 13.4 -6
Q 12.55 -6 12.35 -7.7 11.75 -6.75 10.65 -6.75 9.45 -6.75 8.75 -7.95 8.2 -8.85 8.1 -10.05
L 8.1 -10.35
Q 7.85 -11.1 7.75 -11.8 7.6 -12.65 7.6 -13.45 7.6 -14.15 7.95 -14.85 8.3 -15.6 8.8 -15.6
L 9.8 -14.95 9.65 -15.25 9.1 -16.15 8.9 -15.95 8.4 -16.05 8.35 -16.05
Q 7.65 -16.05 7.25 -15.25
L 6.8 -13.8
Q 6.65 -13.05 7.75 -9.15
L 8.3 -6.85 8.4 -6.75 8.55 -6.35 8.45 -5.95 8.8 -3 8.85 -2.95 8.95 -2.65 8.85 -2.4 8.8 -2.35 8.85 -1.05 8.9 -1 9 -0.65 8.9 -0.3 8.8 -0.2
Q 8.65 2.25 7.8 2.25 7.55 2.25 7.45 -0.5
L 7.3 -3.4 7.05 -3.6
Q 6.9 -3.8 6.9 -4.1
L 7.05 -4.65 7.2 -4.75 7.1 -6.7
Q 6.9 -10.15 6.1 -12.05
L 5 -14.25 4.4 -14.75 2.8 -14.95 2.1 -14.95 1.35 -14.7 1.25 -14.6 0.75 -14.25
Q 0.25 -14.3 0.15 -14.8 0.35 -15.45 0.85 -15.9
M 3.1 -14.15
Q 4.3 -14.15 5.05 -12.75
L 5.65 -11.1
Q 6.55 -10.05 6.55 -8.6 6.55 -7.05 5.5 -6 4.45 -4.9 3 -4.9 1.55 -4.9 0.5 -6 -0.55 -7.05 -0.55 -8.6 -0.55 -9.6 -0.1 -10.4 0.1 -11.5 0.8 -12.55 1.9 -14.15 3.1 -14.15
M 3.9 -3.9
L 4 -3.6 3.9 -3.35 3.65 -3.2 3.4 -3.35 3.3 -3.6 3.4 -3.9 3.65 -4 3.9 -3.9
M 4.5 -2.4
L 4.8 -2.55 5.05 -2.4 5.2 -1.95 5.05 -1.55 4.8 -1.35 4.5 -1.55 4.4 -1.95 4.5 -2.4
M 9 -4.2
L 9.35 -4.35 9.7 -4.2 9.85 -3.85 9.7 -3.5
Q 9.55 -3.35 9.35 -3.35 9.15 -3.35 9 -3.5
L 8.85 -3.85 9 -4.2
M 5.85 -4.55
L 6 -4.2 5.85 -3.85
Q 5.75 -3.7 5.6 -3.7 5.45 -3.7 5.3 -3.85
L 5.2 -4.2 5.3 -4.55 5.6 -4.7 5.85 -4.55
M 6.85 -2.75
L 7 -2.4 6.85 -2.05 6.6 -1.9
Q 6.45 -1.9 6.3 -2.05
L 6.2 -2.4 6.3 -2.75 6.6 -2.9 6.85 -2.75
M 6.1 -0.5
L 6.2 -0.85 6.4 -1 6.6 -0.85 6.7 -0.5 6.6 -0.15 6.4 0 6.2 -0.15 6.1 -0.5
M 9.65 -2.35
L 9.9 -2.45 10.15 -2.35 10.25 -2 10.15 -1.7 9.9 -1.55
Q 9.75 -1.55 9.65 -1.7
L 9.55 -2 9.65 -2.35
M 10.45 -5.15
L 10.55 -5.4 10.75 -5.5 10.95 -5.4 11.05 -5.15 10.95 -4.9
Q 10.85 -4.8 10.75 -4.8 10.65 -4.8 10.55 -4.9
L 10.45 -5.15
M 11.2 -3.5
L 11.1 -3.8 11.2 -4.15 11.4 -4.25 11.6 -4.15 11.7 -3.8 11.6 -3.5
Q 11.5 -3.35 11.4 -3.35 11.3 -3.35 11.2 -3.5
M 10.55 1.35
L 10.7 1
Q 11.4 -0.6 11.4 -2.15 11.4 -0.6 10.7 1
L 10.85 2.5
Q 10.85 4.2 10.05 5.5 9.15 6.95 7.7 6.95 6.15 6.95 3.9 3.65
L 1.9 0.35 1.15 0.35 0.1 0.6 1.15 0.35 1.9 0.35 2.1 0.35 2.25 0.55 4.6 2.5 5.8 3.05
Q 6.85 3.45 8.05 3.45 8.9 3.45 9.55 2.85
L 10.55 1.35
M 1.5 -19.7
L 1.85 -19.6 2.95 -19.85 2.85 -19.9 1.5 -19.7 Z"/>

<path fill="#DFFAFD" stroke="none" d="
M 9.5 -12.85
L 8.55 -12.6 8.3 -12.25 8.1 -10.45 8.1 -10.35 8.1 -10.05
Q 8.2 -8.85 8.75 -7.95 9.45 -6.75 10.65 -6.75 11.75 -6.75 12.35 -7.7
L 12.65 -8.2 12.9 -9 12.9 -9.1 12.2 -10.85
Q 11.35 -12.4 10.25 -12.75
L 9.5 -12.85
M 9.8 -11.3
L 9.9 -11.3 10 -11.3
Q 10.55 -11.3 10.9 -10.8 11.3 -10.25 11.3 -9.5 11.3 -8.75 10.9 -8.3 10.55 -7.75 10 -7.75
L 9.9 -7.75 9.8 -7.75
Q 9.25 -7.75 8.85 -8.3 8.5 -8.75 8.5 -9.5 8.5 -10.25 8.85 -10.8 9.25 -11.3 9.8 -11.3
M 5.65 -11.1
L 5.5 -11.25
Q 4.45 -12.3 3 -12.3 1.55 -12.3 0.5 -11.25
L -0.1 -10.4
Q -0.55 -9.6 -0.55 -8.6 -0.55 -7.05 0.5 -6 1.55 -4.9 3 -4.9 4.45 -4.9 5.5 -6 6.55 -7.05 6.55 -8.6 6.55 -10.05 5.65 -11.1
M 3.35 -9.9
Q 4 -9.9 4.45 -9.45 4.95 -8.95 4.95 -8.25 4.95 -7.55 4.45 -7.1 4 -6.6 3.35 -6.6 2.7 -6.6 2.2 -7.1 1.75 -7.55 1.75 -8.25 1.75 -8.95 2.2 -9.45 2.7 -9.9 3.35 -9.9 Z"/>

<path fill="#101010" stroke="none" d="
M 10 -11.3
L 9.9 -11.3 9.05 -10.8
Q 8.7 -10.25 8.7 -9.5 8.7 -8.75 9.05 -8.3 9.4 -7.8 9.9 -7.75
L 10 -7.75
Q 10.55 -7.75 10.9 -8.3 11.3 -8.75 11.3 -9.5 11.3 -10.25 10.9 -10.8 10.55 -11.3 10 -11.3
M 4.45 -9.45
Q 4 -9.9 3.35 -9.9 2.7 -9.9 2.2 -9.45 1.75 -8.95 1.75 -8.25 1.75 -7.55 2.2 -7.1 2.7 -6.6 3.35 -6.6 4 -6.6 4.45 -7.1 4.95 -7.55 4.95 -8.25 4.95 -8.95 4.45 -9.45 Z"/>

<path fill="#0760B4" stroke="none" d="
M 7.95 -14.85
Q 7.6 -14.15 7.6 -13.45 7.6 -12.65 7.75 -11.8 7.85 -11.1 8.1 -10.35
L 8.1 -10.45 8.3 -12.25
Q 8.7 -13.9 10.05 -13.95
L 10.1 -13.95 10.25 -13.9 9.8 -14.95 8.8 -15.6
Q 8.3 -15.6 7.95 -14.85
M 5.05 -12.75
Q 4.3 -14.15 3.1 -14.15 1.9 -14.15 0.8 -12.55 0.1 -11.5 -0.1 -10.4
L 0.5 -11.25
Q 1.55 -12.3 3 -12.3 4.45 -12.3 5.5 -11.25
L 5.65 -11.1 5.05 -12.75 Z"/>

<path fill="#0375D2" stroke="none" d="
M -5.65 -4.65
L -6.95 -3.4
Q -7.85 -2.45 -7.85 -1.75
L -7.6 -0.3 -7.5 -0.05
Q -7 0.75 -6.2 0.75 -2.7 0.75 -2.7 -4.75 -2.7 -7.15 -3.5 -7.15 -4.2 -7.15 -4.85 -6.05
L -5.65 -4.65 Z"/>

<path fill="#C8CCCD" stroke="none" d="
M 9.55 2.85
Q 8.9 3.45 8.05 3.45 6.85 3.45 5.8 3.05
L 5.8 3.1 6.4 3.95 7.2 4.35 8.15 4.5
Q 9.5 4.5 9.55 2.85 Z"/>

<path fill="#1D3F78" stroke="none" d="
M 10.7 1
L 10.55 1.35 9.55 2.85
Q 9.5 4.5 8.15 4.5
L 7.2 4.35 6.4 3.95 5.8 3.1 5.8 3.05 4.6 2.5 2.25 0.55 2.1 0.35 1.9 0.35 3.9 3.65
Q 6.15 6.95 7.7 6.95 9.15 6.95 10.05 5.5 10.85 4.2 10.85 2.5
L 10.7 1 Z"/>

<path fill="#0271D2" stroke="none" d="
M 2.5 -16.45
Q 1.5 -16.45 0.85 -15.9 0.35 -15.45 0.15 -14.8 0.25 -14.3 0.75 -14.25
L 1.25 -14.6 1.35 -14.7 2.1 -14.95 2.8 -14.95 4.4 -14.75 5 -14.25 6.1 -12.05
Q 6.9 -10.15 7.1 -6.7
L 7.2 -4.75 7.5 -4.85 7.9 -4.65 8.1 -4.1 7.9 -3.6 7.5 -3.35 7.3 -3.4 7.45 -0.5
Q 7.55 2.25 7.8 2.25 8.65 2.25 8.8 -0.2
L 8.65 -0.15
Q 8.5 -0.15 8.4 -0.3
L 8.3 -0.65 8.4 -1 8.65 -1.15 8.85 -1.05 8.8 -2.35 8.6 -2.25 8.35 -2.4 8.25 -2.65 8.35 -2.95 8.6 -3.05 8.8 -3 8.45 -5.95 8.4 -5.95
Q 8.3 -5.8 8.1 -5.8 7.9 -5.8 7.75 -5.95
L 7.65 -6.35 7.75 -6.75 8.1 -6.9 8.3 -6.85 7.75 -9.15
Q 6.65 -13.05 6.8 -13.8
L 7.25 -15.25
Q 7.65 -16.05 8.35 -16.05
L 8.4 -16.05 8.9 -15.95 9.1 -16.15
Q 8.4 -17.05 7.45 -17.05 6.8 -17.05 6.2 -16.65
L 6.15 -16.65 5.65 -16.2 5.5 -16.1
Q 5.15 -15.9 4.8 -15.9
L 2.5 -16.45
M 1.85 -19.6
L 1.5 -19.7
Q -0.55 -19.2 -1.9 -17.6
L -2.65 -16.6 -0.75 -18.35
Q 0.4 -19.15 1.85 -19.6 Z"/>

<path fill="#359EFD" stroke="none" d="
M 10.9 -13.65
L 11.2 -13.45
Q 10.95 -15 10.3 -16.3 9.2 -18.45 7.65 -18.45
L 6.8 -18.25 6.35 -18.05 6.35 -18.1 5.9 -17.7
Q 5.5 -17.2 5.5 -16.65 5.25 -17.9 4.1 -19.45
L 3.8 -19.55 3.65 -19.6 2.95 -19.85 1.85 -19.6
Q 2.85 -19.2 3.9 -18.3 5.1 -17.3 5.6 -16.25
L 6.05 -16.6 6.15 -16.65 6.2 -16.65
Q 6.8 -17.05 7.45 -17.05 8.4 -17.05 9.1 -16.15
L 9.65 -15.25 9.8 -14.95 10.25 -13.9 10.45 -13.8 10.9 -13.65 Z"/>

<path fill="#EEFCFE" stroke="none" d="
M 11.2 -13.45
L 10.9 -13.65 10.45 -13.8 10.25 -13.9 10.1 -13.95 10.05 -13.95
Q 8.7 -13.9 8.3 -12.25
L 8.55 -12.6 9.5 -12.85 10.25 -12.75
Q 11.35 -12.4 12.2 -10.85
L 12.9 -9.1 12.95 -9.4 12.95 -9.45 13 -10.45 12.6 -11.75
Q 12.1 -12.85 11.2 -13.45 Z"/>

<path fill="#26B3F9" stroke="none" d="
M -2.65 -16.6
Q -4 -15.05 -5 -12.85 -6.1 -9.1 -6.95 -7.05 -6.1 -8.3 -4.65 -12.35
L -3.95 -14.05 -2.65 -16.6 Z"/>

<path fill="#3ABCFA" stroke="none" d="
M 3.3 -19.95
L 3.45 -19.95 3 -20.5
Q 2.55 -20.9 1.6 -20.9 -0.65 -20.9 -3.1 -18.2 -5.2 -15.85 -6.35 -12.9
L -8.6 -6.25 -9.5 -4.95
Q -8 -5.5 -6.95 -7.05 -6.1 -9.1 -5 -12.85 -4 -15.05 -2.65 -16.6
L -1.9 -17.6
Q -0.55 -19.2 1.5 -19.7
L 2.85 -19.9 3.3 -19.95 Z"/>
</g>

<g id="Layer0_0_MEMBER_1_FILL">
<path fill="#FFFFFF" fill-opacity="0.2980392156862745" stroke="none" d="
M -3.2 12.6
L -7.95 18.45 -8.25 20.05 -8.15 20.9
Q -5.45 18.6 -3.7 13.9
L -3.2 12.6 Z"/>

<path fill="#FFFFFF" fill-opacity="0.2" stroke="none" d="
M 13.1 -1.55
L 15.75 -7.5 17.35 -12.8 14.5 -9.3 14.5 -9.25 -0.6 9.35 2.55 12.1 13.1 -1.2 13.1 -1.55
M 5.2 -18.9
L 5.2 -18.95 3.65 -19.6
Q 3.3 -19.75 3.4 -20.05
L 2.65 -20.65 -7.95 -8.2 -8.6 -6.25 -9.5 -4.95
Q -10.35 -4.15 -11.55 -3.95
L -18.8 4.55 -17.7 5.75 -16.4 6.85 5.2 -18.9
M 10.35 -16.25
L 10.3 -16.3 9.75 -17.2 -6.9 2.85 -5.7 3.1 -5.55 3.15 10.35 -16.25 Z"/>
</g>

<path id="Layer0_0_1_STROKES" stroke="#FFFFFF" stroke-width="5" stroke-linejoin="round" stroke-linecap="round" fill="none" d="
M 13.1 -3.65
L 13.1 -1.55 15.75 -7.5 17.8 -14.1 18.55 -15.45 21.15 -19.3
Q 17.6 -17.25 14.95 -13.2
L 13.15 -9.9 12.95 -9.45
M 4.1 -19.45
L 4.95 -19.1 6.35 -18.1 6.35 -18.05 6.8 -18.25 7.65 -18.45
Q 9.2 -18.45 10.3 -16.3 10.95 -15 11.2 -13.45 12.1 -12.85 12.6 -11.75
L 13 -10.45
M 13.1 -1.55
L 13.1 -1.2
Q 13.1 3.45 12 7.55 10.35 13.6 6.9 13.6 4.25 13.6 1.2 11.05 -0.85 9.35 -2 7.55
L -3.2 12.6 -3.7 13.9
Q -5.45 18.6 -8.15 20.9
L -8.25 20.05
Q -8.25 19.1 -7.75 17.85
L -6.85 15.55
Q -5.95 13.25 -5.9 10.85
L -5.85 8.55 -5.75 7.75 -5.4 6.8 -5.2 6.55 -4.65 6.1 -3.4 4.75 -4.6 3.65
Q -5.15 3.3 -5.7 3.1
L -6.95 2.85
Q -9.7 2.85 -11.85 5 -13.9 7.05 -14.15 10.05
L -15.15 8.6 -17.7 5.75
Q -21.2 2.35 -21.2 -2.3
L -20.95 -4.7 -20.35 -6.35 -19.65 -7.45 -19.5 -7.25
Q -18.5 -6.2 -17 -5.3 -14.55 -3.85 -12.6 -3.85 -10.7 -3.85 -9.5 -4.95
L -8.6 -6.25 -6.35 -12.9
Q -5.2 -15.85 -3.1 -18.2 -0.65 -20.9 1.6 -20.9 2.55 -20.9 3 -20.5
L 3.45 -19.95 3.65 -19.6 2.95 -19.85
M -2 7.55
L -1.65 3.85 -1.65 2.9
M -3.4 4.75
Q -3.05 4.15 -2.95 3.35
L -3 2.4"/>

<path id="Layer0_0_MEMBER_0_1_STROKES" stroke="#35494A" stroke-width="0.5" stroke-linejoin="round" stroke-linecap="round" fill="none" d="
M 11.2 -13.45
L 10.9 -13.65 10.45 -13.8 10.25 -13.9 10.1 -13.95 10.05 -13.95
Q 8.7 -13.9 8.3 -12.25
M 12.9 -9.1
L 12.95 -9.4 12.95 -9.45
M -0.1 -10.4
L 0.5 -11.25
Q 1.55 -12.3 3 -12.3 4.45 -12.3 5.5 -11.25
L 5.65 -11.1
Q 6.55 -10.05 6.55 -8.6 6.55 -7.05 5.5 -6 4.45 -4.9 3 -4.9 1.55 -4.9 0.5 -6 -0.55 -7.05 -0.55 -8.6 -0.55 -9.6 -0.1 -10.4 Z
M 8.3 -12.25
L 8.1 -10.45 8.1 -10.35
M 8.1 -10.05
Q 8.2 -8.85 8.75 -7.95 9.45 -6.75 10.65 -6.75 11.75 -6.75 12.35 -7.7
L 12.65 -8.2 12.9 -9 12.9 -9.1"/>

<path id="Layer0_0_MEMBER_0_2_STROKES" stroke="#000000" stroke-width="0.75" stroke-linejoin="round" stroke-linecap="round" fill="none" d="
M 13 -10.45
L 12.6 -11.75
Q 12.1 -12.85 11.2 -13.45 10.95 -15 10.3 -16.3 9.2 -18.45 7.65 -18.45
L 6.8 -18.25 6.35 -18.05"/>

<path id="Layer0_0_MEMBER_0_3_STROKES" stroke="#000000" stroke-width="1" stroke-linejoin="round" stroke-linecap="round" fill="none" d="
M 6.35 -18.05
L 6.35 -18.1
M 3.8 -19.55
L 3.65 -19.6 2.95 -19.85
M 19.7 -17.3
L 21.15 -19.3
Q 17.6 -17.25 14.95 -13.2
L 13.15 -9.9 12.95 -9.45
M 19.7 -17.3
L 18.55 -15.45 17.8 -14.1 16.35 -9.55 15.75 -7.5 13.55 -2.5 13.1 -1.55 13.1 -1.2
Q 13.1 3.45 12 7.55 10.35 13.6 6.9 13.6 4.25 13.6 1.2 11.05 -0.85 9.35 -2 7.55
L -2.45 9.75 -3.2 12.6 -3.7 13.9
Q -5.45 18.6 -8.15 20.9
L -8.25 20.05
Q -8.25 19.1 -7.75 17.85
L -6.85 15.55
Q -5.95 13.25 -5.9 10.85
L -5.85 8.55 -5.75 7.75 -5.4 6.8 -5.2 6.55 -4.65 6.1 -3.4 4.75 -4.6 3.65
Q -5.15 3.3 -5.7 3.1
L -6.95 2.85
Q -9.7 2.85 -11.85 5 -13.9 7.05 -14.15 10.05
L -15.15 8.6 -17.25 6.2 -17.7 5.75 -19.25 3.9
Q -20.25 2.5 -20.75 0.9 -21.2 -0.6 -21.2 -2.3
L -21.2 -2.35 -20.95 -4.7 -20.35 -6.35 -19.65 -7.45 -19.5 -7.25
Q -18.5 -6.2 -17 -5.3 -14.55 -3.85 -12.6 -3.85 -10.7 -3.85 -9.5 -4.95
L -8.6 -6.25 -6.35 -12.9
Q -5.2 -15.85 -3.1 -18.2 -0.65 -20.9 1.6 -20.9 2.55 -20.9 3 -20.5
L 3.45 -19.95 3.65 -19.6
M -2.95 3.35
L -3 2.4
M 2.85 -19.9
L 2.95 -19.85
M 4.1 -19.45
L 4.95 -19.1 6.35 -18.1
M -1.7 4.25
L -2 7.55
M 13.1 -1.55
L 13.1 -3.65
M -3.4 4.75
Q -3.05 4.15 -2.95 3.35
M -1.7 4.25
L -1.65 3.85 -1.65 2.9"/>

<path id="Layer0_0_MEMBER_0_4_STROKES" stroke="#B20086" stroke-width="0.4" stroke-linejoin="round" stroke-linecap="round" fill="none" d="
M 9.9 -11.3
L 10 -11.3
Q 10.55 -11.3 10.9 -10.8 11.3 -10.25 11.3 -9.5 11.3 -8.75 10.9 -8.3 10.55 -7.75 10 -7.75
L 9.9 -7.75
Q 9.4 -7.8 9.05 -8.3 8.7 -8.75 8.7 -9.5 8.7 -10.25 9.05 -10.8
L 9.9 -11.3 Z
M 4.45 -9.45
Q 4.95 -8.95 4.95 -8.25 4.95 -7.55 4.45 -7.1 4 -6.6 3.35 -6.6 2.7 -6.6 2.2 -7.1 1.75 -7.55 1.75 -8.25 1.75 -8.95 2.2 -9.45 2.7 -9.9 3.35 -9.9 4 -9.9 4.45 -9.45 Z"/>

<path id="Layer0_0_MEMBER_0_5_STROKES" stroke="#12093E" stroke-width="0.75" stroke-linejoin="round" stroke-linecap="round" fill="none" d="
M 5.8 3.05
L 4.6 2.5 2.25 0.55 2.1 0.35 1.9 0.35 3.9 3.65
Q 6.15 6.95 7.7 6.95 9.15 6.95 10.05 5.5 10.85 4.2 10.85 2.5
L 10.7 1 10.55 1.35 9.55 2.85
M 5.8 3.05
Q 6.85 3.45 8.05 3.45 8.9 3.45 9.55 2.85
M 0.1 0.6
L 1.15 0.35 1.9 0.35
M 11.4 -2.15
Q 11.4 -0.6 10.7 1"/>

<path id="Layer0_0_MEMBER_0_6_STROKES" stroke="#697274" stroke-width="0.5" stroke-linejoin="round" stroke-linecap="round" fill="none" d="
M 9.55 2.85
Q 9.5 4.5 8.15 4.5
L 7.2 4.35 6.4 3.95 5.8 3.1 5.8 3.05"/>

<path id="Layer0_0_MEMBER_0_7_STROKES" stroke="#E3B809" stroke-width="0.25" stroke-linejoin="round" stroke-linecap="round" fill="none" d="
M -14 -1.6
L -19.4 -2.25 -21.2 -2.35
M -17.6 2.7
L -19.25 3.9
M -15.95 4.7
L -13 1.4
M -17.6 2.7
Q -14.9 0.8 -14.1 0.6
M -15.95 4.7
L -17.25 6.2
M -20.75 0.9
L -18.8 0.35 -14.4 -0.8"/>
</defs>

<g transform="matrix( 1, 0, 0, 1, 30,30) ">
<use xlink:href="#Layer0_0_1_STROKES"/>
</g>

<g transform="matrix( 1, 0, 0, 1, 30,30) ">
<use xlink:href="#Layer0_0_MEMBER_0_FILL"/>

<use xlink:href="#Layer0_0_MEMBER_0_1_STROKES"/>

<use xlink:href="#Layer0_0_MEMBER_0_2_STROKES"/>

<use xlink:href="#Layer0_0_MEMBER_0_3_STROKES"/>

<use xlink:href="#Layer0_0_MEMBER_0_4_STROKES"/>

<use xlink:href="#Layer0_0_MEMBER_0_5_STROKES"/>

<use xlink:href="#Layer0_0_MEMBER_0_6_STROKES"/>

<use xlink:href="#Layer0_0_MEMBER_0_7_STROKES"/>
</g>

<g transform="matrix( 1, 0, 0, 1, 30,30) ">
<use xlink:href="#Layer0_0_MEMBER_1_FILL"/>
</g>
</svg>
