
<svg xmlns="http://www.w3.org/2000/svg" version="1.1" xmlns:xlink="http://www.w3.org/1999/xlink" preserveAspectRatio="none" x="0px" y="0px" width="60px" height="60px" viewBox="0 0 60 60">
<defs>
<linearGradient id="Gradient_1" gradientUnits="userSpaceOnUse" x1="-56.25" y1="23.587500000000002" x2="-57.650000000000006" y2="25.6125" spreadMethod="pad">
<stop  offset="0%" stop-color="#35B716"/>

<stop  offset="100%" stop-color="#FF6500"/>
</linearGradient>

<linearGradient id="Gradient_2" gradientUnits="userSpaceOnUse" x1="-7.7875" y1="30.4875" x2="-5.4125" y2="37.5125" spreadMethod="pad">
<stop  offset="0%" stop-color="#35B716"/>

<stop  offset="100%" stop-color="#FF6500"/>
</linearGradient>

<linearGradient id="Gradient_3" gradientUnits="userSpaceOnUse" x1="-4.0125" y1="-28.575" x2="-3.1875" y2="-36.725" spreadMethod="pad">
<stop  offset="0%" stop-color="#35B716"/>

<stop  offset="100%" stop-color="#FF6500"/>
</linearGradient>

<g id="Layer0_0_FILL">
<path fill="#EFEFEF" stroke="none" d="
M 3.5 -38.5
L 2.55 -42.8
Q 1.45 -46.8 -4.1 -46.6 -11.4 -46.35 -17.85 -41.85 -21.8 -39.2 -24.2 -35.7
L -24.35 -35.5 -26.4 -39.15
Q -26.7 -39.55 -27.05 -39.5
L -27.1 -39.5 -27.65 -39 -28.35 -35.85 -28.6 -33.3
Q -32.25 -32.3 -35.55 -30.8
L -40.75 -35.95 -41.4 -36.1
Q -41.85 -35.95 -41.8 -35.5
L -41.8 -35.45
Q -41.7 -33.1 -40.65 -29.7
L -40.2 -28.35
Q -43.5 -26.4 -46.35 -23.85
L -46.7 -24.05 -52.25 -25.85 -52.9 -25.7 -53.2 -25.1 -53.2 -25.05
Q -53.1 -23.85 -52.35 -22.4
L -51.5 -20.8 -50.65 -19.6 -51.25 -18.9
Q -52.9 -19.1 -54.65 -18.9 -59.85 -18.3 -62.75 -14.35
L -62.75 -14.3 -63.6 -13 -63.6 -13.05 -64.95 -9.95 -65.35 -8.35
Q -66.5 -2.05 -61.5 1.45
L -59.55 2.55 -59.65 7.4 -61.45 8.55 -61.4 8.55
Q -63 9.6 -64.15 10.05
L -64.15 10.1
Q -64.55 10.25 -64.6 10.75
L -64.15 11.35 -64.1 11.35 -59.1 12.35 -58.2 16.05 -58.25 16.3 -58.25 16.35 -58 16.7 -56.05 21.55 -58.7 22.3
Q -60.95 23 -62.25 23.7 -64.3 24.75 -64.75 26.15 -65.25 27.55 -64.2 29.35 -63.05 31.35 -60.95 32.15
L -56.6 32.35
Q -54.65 31.75 -53.4 29.8 -52.6 28.4 -52.6 27.05
L -50.25 29.75 -50.4 30.05 -50.4 30 -51.35 31.55
Q -52.1 33 -52.15 34.4 -52.2 34.75 -51.85 34.9 -51.55 35.1 -51.25 34.9
L -47.5 32.6 -47.3 32.5
Q -42.75 36.25 -36.55 38.7 -31.7 40.6 -26.55 41.5
L -26.45 42.45
Q -26.15 44.8 -25.45 46.25
L -25.45 46.3
Q -25.3 46.65 -24.8 46.65 -24.35 46.65 -24.1 46.3
L -22.3 43.15 -21.55 42.1 -14.25 42.15 -5.3 40.95 -5 42.2
Q -4.25 44.45 -3.1 46.05 -2.75 46.5 -2.25 46.35 -1.75 46.25 -1.7 45.7
L -1.7 45.65
Q -1.65 43.85 -1.2 42.05
L -0.55 39.6
Q 4.7 37.75 9.45 34.7
L 11.05 33.6
Q 12.6 39.1 18.4 38.25 20.5 37.95 21.95 36.8
L 23 35.7
Q 24.8 33.4 23.7 30.6 22.85 28.3 20.1 25.95
L 19.45 25.4 21 23.15 23 23.35 25.4 23.15 25.9 22.65 25.75 21.95 24.45 20.25 23.2 19.05 24.7 15.4 25.95 10.8 28.5 10.6 28.75 10.55 29.15 10.4 29.4 10
Q 29.55 9.6 29.35 9.4
L 29.15 9.3 29.1 9.25 28.5 8.8 26.75 6.8 26.5 6.6 26.5 1.1 26.55 1.1 28.05 0.65 28.1 0.65 29.5 -0.05
Q 31.65 -1.1 32.8 -2.2
L 32.8 -2.15
Q 33.25 -2.55 33 -3.1 32.8 -3.6 32.25 -3.6
L 28.9 -3.6 27.9 -3.7
Q 26.65 -3.95 25.75 -4.4
L 25.7 -4.4 25.15 -6.75 23.7 -11 24.6 -12.05 26.15 -14.35
Q 27.6 -16.45 28.5 -18.55
L 29 -19.8 28.95 -20.3 28.8 -20.55 28.05 -20.75
Q 24.6 -19.95 21.9 -18.55
L 20.1 -17.55 18.7 -19.4 19.35 -20.45
Q 19.8 -21.4 19.85 -22.3 20 -23.9 18.9 -25.65
L 17.05 -27.65
Q 16.15 -28.65 16.4 -29.95
L 16.6 -31.9
Q 16.55 -32.9 16.1 -33.8 14.8 -36.35 11.65 -36.2
L 8.15 -35.9 4.85 -36.15 4.65 -36.45
Q 3.85 -37.4 3.5 -38.5
M 18.2 24.45
L 17.85 24.2 18.9 23.5 18.2 24.45 Z"/>
</g>

<g id="Layer0_0_MEMBER_0_FILL">
<path fill="#000000" fill-opacity="0.9921568627450981" stroke="none" d="
M 3.5 -38.5
L 2.55 -42.8
Q 1.45 -46.8 -4.1 -46.6 -11.4 -46.35 -17.85 -41.85 -21.8 -39.2 -24.2 -35.7
L -24.35 -35.5 -26.4 -39.15
Q -26.7 -39.55 -27.05 -39.5
L -27.1 -39.5 -27.65 -39 -28.35 -35.85 -28.6 -33.3
Q -32.25 -32.3 -35.55 -30.8
L -40.75 -35.95 -41.4 -36.1
Q -41.85 -35.95 -41.8 -35.5
L -41.8 -35.45
Q -41.7 -33.1 -40.65 -29.7
L -40.2 -28.35
Q -43.5 -26.4 -46.35 -23.85
L -46.7 -24.05 -52.25 -25.85 -52.9 -25.7 -53.2 -25.1 -53.2 -25.05
Q -53.1 -23.85 -52.35 -22.4
L -51.5 -20.8 -50.65 -19.6 -51.25 -18.9
Q -52.9 -19.1 -54.65 -18.9 -59.85 -18.3 -62.75 -14.35
L -62.75 -14.3 -63.6 -13 -63.6 -13.05 -64.95 -9.95 -65.35 -8.35
Q -66.5 -2.05 -61.5 1.45
L -59.55 2.55 -59.65 7.4 -61.45 8.55 -61.4 8.55
Q -63 9.6 -64.15 10.05
L -64.15 10.1
Q -64.55 10.25 -64.6 10.75
L -64.15 11.35 -64.1 11.35 -59.1 12.35 -58.2 16.05 -58.25 16.3 -58.25 16.35 -58 16.7 -56.05 21.55 -58.7 22.3
Q -60.95 23 -62.25 23.7 -64.3 24.75 -64.75 26.15 -65.25 27.55 -64.2 29.35 -63.05 31.35 -60.95 32.15
L -56.6 32.35
Q -54.65 31.75 -53.4 29.8 -52.6 28.4 -52.6 27.05
L -50.25 29.75 -50.4 30.05 -50.4 30 -51.35 31.55
Q -52.1 33 -52.15 34.4 -52.2 34.75 -51.85 34.9 -51.55 35.1 -51.25 34.9
L -47.5 32.6 -47.3 32.5
Q -42.75 36.25 -36.55 38.7 -31.7 40.6 -26.55 41.5
L -26.45 42.45
Q -26.15 44.8 -25.45 46.25
L -25.45 46.3
Q -25.3 46.65 -24.8 46.65 -24.35 46.65 -24.1 46.3
L -22.3 43.15 -21.55 42.1 -14.25 42.15 -5.3 40.95 -5 42.2
Q -4.25 44.45 -3.1 46.05 -2.75 46.5 -2.25 46.35 -1.75 46.25 -1.7 45.7
L -1.7 45.65
Q -1.65 43.85 -1.2 42.05
L -0.55 39.6
Q 4.7 37.75 9.45 34.7
L 11.05 33.6
Q 12.6 39.1 18.4 38.25 20.5 37.95 21.95 36.8
L 23 35.7
Q 24.8 33.4 23.7 30.6 22.85 28.3 20.1 25.95
L 19.45 25.4 21 23.15 23 23.35 25.4 23.15 25.9 22.65 25.75 21.95 24.45 20.25 23.2 19.05 24.7 15.4 25.95 10.8 28.5 10.6 28.75 10.55 29.15 10.4 29.4 10
Q 29.55 9.6 29.35 9.4
L 29.15 9.3 29.1 9.25 28.5 8.8 26.75 6.8 26.5 6.6 26.5 1.1 26.55 1.1 28.05 0.65 28.1 0.65 29.5 -0.05
Q 31.65 -1.1 32.8 -2.2
L 32.8 -2.15
Q 33.25 -2.55 33 -3.1 32.8 -3.6 32.25 -3.6
L 28.9 -3.6 27.9 -3.7
Q 26.65 -3.95 25.75 -4.4
L 25.7 -4.4 25.15 -6.75 23.7 -11 24.6 -12.05 26.15 -14.35
Q 27.6 -16.45 28.5 -18.55
L 29 -19.8 28.95 -20.3 28.8 -20.55 28.05 -20.75
Q 24.6 -19.95 21.9 -18.55
L 20.1 -17.55 18.7 -19.4 19.35 -20.45
Q 19.8 -21.4 19.85 -22.3 20 -23.9 18.9 -25.65
L 17.05 -27.65
Q 16.15 -28.65 16.4 -29.95
L 16.6 -31.9
Q 16.55 -32.9 16.1 -33.8 14.8 -36.35 11.65 -36.2
L 8.15 -35.9 4.85 -36.15 4.65 -36.45
Q 3.85 -37.4 3.5 -38.5
M 1.85 23.7
L 1.7 23.55
Q 2.45 22.95 3.2 22.9
L 3.25 22.9 4.2 23.2 4.65 23.45 4.65 25.4 4.5 26.6 3.7 25.9
Q 2.55 24.85 1.85 23.7
M 18.2 24.45
L 17.85 24.2 18.9 23.5 18.2 24.45
M -63.1 -2.55
Q -64.1 -4.5 -64.05 -6.9
L -64 -7.55
Q -63.8 -9.8 -62.85 -11.85
L -62.25 -12.2
Q -59.6 -15.9 -55.7 -16.95
L -52.2 -17.25 -50.9 -17.1
Q -49.35 -16.8 -47.75 -15.95 -44.1 -14.1 -42.8 -10.65 -41.5 -7.25 -43.15 -4.1
L -43.45 -3.55
Q -45.65 -0.05 -50.45 1.2
L -50.5 1.2
Q -54.5 2.25 -58.15 1.15
L -59.1 0.85 -59.2 0.8
Q -61.9 -0.25 -63.1 -2.55
M 0.4 -43.8
Q 1.15 -42.8 1.7 -40.4 2.4 -37.5 2.9 -36.5 3.85 -34.5 5.75 -33.85 6.15 -33.7 6.45 -34.1
L 6.55 -34.5 11.8 -34.85
Q 13.2 -34.85 14.05 -34.15 15.25 -33.25 15.05 -30.85 14.8 -27.95 15.5 -26.95
L 17.6 -24.9
Q 18.45 -23.65 18.3 -22.4
L 18.2 -21.8 17.7 -20.65 14.6 -23.75 15.45 -24.05 15.5 -24.05 15.55 -24.1 15.65 -24.15 15.65 -24.6
Q 15.5 -24.95 15.15 -24.85
L 14.8 -24.75 13.85 -24.6 13.75 -24.55 13.6 -24.7
Q 12.4 -25.65 10.8 -26.45 9.15 -27.3 7.05 -27.95
L 7 -27.95 6.2 -28.2 4.4 -28.7 5.55 -28.15
Q 11.2 -25.2 15.5 -20.6
L 18.6 -16.8
Q 18.35 -16.8 18.3 -16.6
L 18.25 -16.6 18.1 -16.15 17.75 -15.8
Q 17.5 -15.7 17.65 -15.45 17.7 -15.3 17.9 -15.3 17.55 -13.85 17.95 -12.3
L 18.1 -11.85 18.75 -10.95
Q 19.6 -10.05 21.45 -9.75 21.55 -9.95 22.4 -9.75
L 22.4 -9.65 22.45 -9.65 23.35 -7.1
Q 25.05 -1.8 25 3.85
L 24.95 5.15 24.2 4.75
Q 23.6 4.15 22.5 4.35 21.55 4.55 20.85 5.2 20.15 5.75 19.75 6.6 19.2 7.6 19.1 8.95 19.05 9.35 19.45 9.45
L 19.65 9.65 21.25 10.25 24.1 10.75 24.3 10.75
Q 23.75 13.35 22.8 15.85
L 22.85 15.85
Q 21.2 19.55 17.85 22.1
L 16.4 23.1 15.35 22.35 14.55 22.45 14.55 22.5
Q 14.3 22.8 14.45 23.15
L 14.55 23.3 15.15 24 18.25 26.65 21 29.15
Q 23.15 31.6 22.15 33.95
L 22.2 33.95
Q 21.65 35.2 20.4 35.95
L 18.05 36.8
Q 15.7 37.25 14.25 36.25 12.8 35.15 12.25 32.55
L 12.15 32.1 12.05 31.25
Q 11.85 29.4 12 26.7
L 12.35 22.7 12.35 22.45 12.05 22.2 12 22.2
Q 11.6 22.2 11.5 22.5
L 11.45 22.5 10.75 25.55 6 26.6 6.15 24.55 5.9 22.9 5.9 22.95 5.65 22.55 4.75 21.85 3.2 21.6
Q 1.6 21.65 0.8 23.4
L 0.75 23.7
Q 0.6 23.95 0.8 24.3
L 2.4 26.6 2.75 26.95 -3.1 26.95
Q -8.8 26.55 -14.9 24.75
L -15.5 24.55 -16.5 23.3 -16.55 23.25
Q -17.65 22.3 -18.75 22.2 -19.95 22.1 -20.85 22.7
L -30.35 19.5
Q -37.5 17.45 -43.25 17.95 -48.7 18.4 -50.95 21.7
L -51.4 22.5
Q -52.1 23.75 -52 25.2 -53.85 22.7 -55.1 19.95
L -56.25 17.2 -55.45 17.35
Q -53.85 17.55 -53 16.85 -52.8 16.7 -52.85 16.35
L -52.75 16.3
Q -52.35 15.95 -52.3 15.4 -52.25 14.85 -52.6 14.2
L -53.45 13.35 -53.55 13.2 -54.3 13.9 -56.9 15.15 -57.3 13.65
Q -58.15 9.95 -58.25 6.3
L -58.2 3 -51.7 3.2
Q -46.6 2.35 -43.5 -0.8
L -42.9 -1.5
Q -40.9 -3.85 -40.55 -6.5 -40.35 -8 -40.7 -9.6 -41.6 -13.85 -45.55 -16.65 -47.45 -18 -49.5 -18.55 -45.35 -23.1 -40.4 -26.25
L -39.75 -26.65 -39.7 -26.7 -38.85 -24.05
Q -38.7 -23.5 -38.15 -23.65
L -38.05 -23.7
Q -37.2 -22.95 -35.95 -23.05
L -35.7 -23.1
Q -34.2 -23.4 -33.3 -24.75 -33.05 -25.25 -33.5 -25.6
L -33.65 -25.7
Q -34.05 -25.9 -34.3 -25.55
L -35.8 -24.45 -35.95 -24.4
Q -36.85 -24.2 -37.8 -24.8
L -37.8 -24.85 -39 -29.05 -40.2 -33.75 -37.2 -30.35 -33.4 -26.15 -33.35 -26.1 -32.65 -26
Q -32.3 -26.35 -32.55 -26.7
L -32.55 -26.65 -34.45 -29.5
Q -30.65 -31.2 -26.55 -32.1
L -26.35 -32.15 -26.2 -32.15 -26.7 -31.1 -26.9 -30.55 -26.85 -30.55 -26.9 -30.25 -26.75 -30.1 -26.65 -30.1 -26.25 -30.2 -24.05 -34 -23 -35.35
Q -20.4 -38.6 -16.7 -41 -10.2 -45.3 -3.05 -45.3 -0.75 -45.3 0.4 -43.8
M 18.95 -12.85
Q 18.65 -13.7 18.6 -14.6
L 18.7 -15.6 25.6 -18.45 27.05 -18.9 26.6 -17.95 21.95 -11 21.8 -10.7 21.6 -10.7 20 -11.25 19.85 -11.35 19.65 -11.6
Q 19.25 -12.15 18.95 -12.85
M 27.3 -0.75
L 26.4 -0.15 26.05 -2.7 27.4 -2.2 29.7 -1.95 27.3 -0.75
M 22.7 5.8
L 23.7 5.8 26.6 8.9 26.95 9.25 22 9.15 20.3 8.75 20.9 7.2 21.45 6.45
Q 22 6 22.7 5.8
M 22.55 20.45
L 23.8 21.95 21.75 21.9 22.55 20.45
M 10.65 31.45
L 10.7 32
Q 7.5 34.3 3.7 36.15
L -0.75 37.9
Q -1.5 36.75 -3.25 36.6 -4.8 36.5 -5.45 37.45
L -5.7 37.45 -5.7 37.5
Q -6.15 37.7 -6.05 38.05
L -5.7 39.35
Q -12.8 41 -20.45 40.6
L -20.25 40.25
Q -20 39.85 -20.4 39.45
L -20.35 39.45 -20.45 39.4 -20.45 39.35
Q -20.6 38.3 -21.45 37.7 -22.25 37.05 -23.25 36.9 -24.9 36.65 -26.2 37.7
L -26.5 37.75
Q -27.15 37.95 -27 38.55
L -26.75 39.9
Q -36.5 38.2 -44.2 32.75
L -45.65 31.65 -45.5 31.6 -43.65 30.4 -43.45 30.15 -43.85 28.75 -44.4 27.95 -45.15 27.15
Q -46.05 26.45 -46.95 26.3
L -47.1 26.3 -49.15 28.5 -50.3 27.25 -50.4 27.05 -50.4 27
Q -50.9 25.2 -50.45 23.75
L -50.25 23.2
Q -49.45 21.1 -46.55 20.05 -42.95 18.65 -36.55 19.5 -31.55 20.2 -22.25 23.65
L -21.85 23.8 -22.1 24.3 -22.15 24.5 -22.15 24.55 -21.85 25.1 -21.7 25.15 -21.3 27.9 -20.4 31.05
Q -20.25 31.5 -19.8 31.55 -19.3 31.6 -19.1 31.15
L -19.1 31.2 -16.05 26.15 -15.75 26.1 -15.7 26.1 -15.55 25.95
Q -10.8 27.45 -7.8 27.95
L -2.1 28.55 4.35 28.35 4.65 28.6 4.65 28.55 5.3 28.65 5.75 28.2 5.75 28.15 10.55 27.2
Q 10.35 29.4 10.65 31.45
M -47.6 -22.75
L -49.65 -20.65 -49.85 -21.05 -51.3 -23.6 -51.4 -23.95 -47.6 -22.75
M -25.2 -34.4
L -25.1 -34.3 -25.3 -34.05 -27.45 -33.55 -26.85 -36.95 -26.5 -36.4
Q -25.9 -35.15 -25.2 -34.4
M -17.7 24.15
L -17.3 24.6 -17 25.1 -17.1 25.2 -17.15 25.2 -19.55 29.1 -19.7 28.7 -20.85 24.35 -20.9 24.3 -20.75 24.1
Q -20.55 23.85 -20.25 23.75
L -19.45 23.55 -18.75 23.6
Q -18.15 23.7 -17.7 24.15
M -22.3 38.9
L -21.6 39.75 -23.35 41.7 -24.65 43.95 -25.05 41.95 -25.6 38.7 -24.75 38.4 -23.35 38.35 -22.3 38.9
M -2.4 38.4
L -2.1 38.65 -2.1 38.6 -1.65 39 -2.1 39.8
Q -2.8 41.2 -3.05 43.3
L -4.9 38.2
Q -4.25 37.75 -3.4 37.9 -2.9 38 -2.4 38.4
M -59.7 9.1
L -59.55 8.95 -59.3 11.05 -61.95 10.5 -59.7 9.1
M -53.75 14.7
L -53.45 15.3
Q -53.35 15.55 -53.5 15.8
L -53.6 15.95 -56.5 16 -54 14.6 -53.9 14.5 -53.75 14.7
M -60.6 24.3
Q -58.7 23.5 -55.45 22.7
L -53.7 25.5 -53.9 25.85 -54.8 29.1
Q -55.6 30.5 -57.4 31.1 -59.2 31.65 -61 30.6 -62.75 29.55 -63.45 27.75 -64.25 25.8 -60.6 24.3
M -46.05 28.2
L -45.75 28.5 -44.9 29.65
Q -45.95 29.95 -47.1 30.6
L -48.2 31.3 -48.3 31.35 -50.45 32.8 -49.2 30.6 -47 27.6
Q -46.5 27.75 -46.05 28.2
M -55.15 27.1
Q -55 26.75 -55.3 26.55
L -55.85 26.6 -58.4 29.05
Q -58.6 29.2 -58.4 29.5
L -58 29.6 -56.5 28.5 -55.15 27.1
M -55.35 24.05
L -55.55 23.8 -55.9 23.75
Q -56.75 24 -58.9 25.25 -60.7 26.25 -61.95 26.35
L -62.25 26.6 -62.25 26.65 -62.05 26.95 -62 26.95
Q -60.5 27.2 -58.6 26.4
L -58.55 26.4 -55.5 24.65 -55.5 24.6
Q -55.2 24.3 -55.35 24.05
M -7.25 30.15
Q -7.4 29.9 -7.65 29.85
L -8.05 29.9 -8.6 29.85
Q -9.55 29.8 -10.4 30.25
L -11.35 31 -11.7 31.5 -12.1 32.5
Q -12.4 32.65 -12.25 33.05
L -12.2 33.05 -12.25 33.3 -11.9 33.75 -11.25 35.2
Q -10.65 36.3 -9.65 36.8
L -9.05 36.8
Q -8.65 36.7 -8.6 36.35
L -7.3 31.6 -7.1 30.5 -7.1 30.45 -7.15 30.35 -7.2 30.3 -7.25 30.15
M -9.95 31.5
L -8.8 31.3 -9.85 35 -10.4 34.3 -11.1 32.95
Q -10.85 31.95 -9.95 31.5
M -31.75 27.6
Q -31.5 27.15 -31.9 26.85 -33.15 25.75 -34.8 26.15 -36.45 26.55 -37.15 28.1
L -37.15 28.35 -37.1 28.4 -37.3 28.6 -37.35 29 -37.25 29.2 -36.1 32.05 -36.05 32.05
Q -35.35 33.75 -34.4 34.9 -34.1 35.25 -33.7 35.1 -33.25 35 -33.15 34.6
L -32.1 30.6 -31.75 28.2 -31.95 27.8 -31.75 27.6
M -34.6 27.35
L -34.55 27.35 -33.55 27.55 -32.7 27.85 -32.75 27.9 -33.4 29.2 -33.35 29.2 -34.15 32.7 -36.2 28.55 -36.5 28.25 -36.65 28.25
Q -35.75 27.35 -34.6 27.35
M -12.55 -19.2
L -13.3 -22.2 -13.65 -22.65 -13.7 -22.7 -14.35 -22.6 -16.55 -20.35 -17.15 -19.5 -17.6 -18.75 -17.65 -18.65 -17.7 -18.65 -17.9 -18.5 -18.4 -16.95
Q -18.4 -16.3 -17.9 -15.75
L -17.5 -15.45 -17.55 -15.45 -17.05 -15.15 -15.5 -14.95 -15.45 -14.95
Q -14.3 -15.05 -13.45 -15.6
L -13.3 -15.75 -13.1 -15.75
Q -12.7 -15.75 -12.6 -16.1
L -12.4 -17.3 -12.4 -17.5 -12.55 -19.2
M -14.4 -20.75
L -14.2 -19.85 -13.7 -16.55 -13.9 -16.55 -16.3 -16.25 -16.45 -16.25 -16.55 -16.3
Q -17.3 -16.45 -17.55 -17.05
L -17.6 -17.25 -17.5 -17.25 -16.5 -18.2 -15.75 -19.25 -14.4 -20.75
M -4.3 -35.75
Q -4.8 -35.95 -5.05 -35.4
L -7.55 -30.6 -7.55 -30.65 -8.6 -29.25 -8.7 -29.1 -8.7 -29.05 -8.9 -28.75 -9.45 -27.5 -9.5 -27.3 -9.45 -27.2 -9.35 -27.15 -9.1 -27.15
Q -9.05 -25.95 -8.25 -25.15
L -7.85 -24.9
Q -7.25 -24.7 -6.05 -24.9
L -4.95 -25.1 -4.5 -24.95
Q -4 -24.9 -3.85 -25.4 -3.55 -26.35 -3.4 -27.5
L -3.35 -30.75 -3.75 -35.05
Q -3.75 -35.55 -4.3 -35.75
M -8.55 -27.35
L -8.15 -27.65 -7.75 -28.05 -4.95 -32.4 -5 -29.85 -5.1 -25.65 -5.3 -25.85 -5.7 -25.8 -5.7 -25.85 -7.4 -25.75 -7.65 -25.9 -8.3 -26.75 -8.55 -27.35
M -13.75 -34.55
L -13.8 -34.55 -13.6 -34.75 -13.6 -34.8 -13.65 -35
Q -13.85 -35.3 -14.1 -35.2
L -14.1 -35.15 -14.55 -34.95 -16.65 -33.65 -16.85 -33.5
Q -17.85 -32.7 -17.95 -32
L -17.85 -31.8 -17.75 -31.75
Q -17.65 -31.75 -17.55 -31.85
L -17.5 -31.85 -17.4 -31.95 -15.95 -33.25 -13.75 -34.55
M 13.35 25
L 13.25 25.1 13.3 26.15
Q 13.35 28 13.7 29.6
L 14 30.95 14.95 33.3 16 35.05
Q 16.2 35.4 16.6 35.2
L 16.55 35.2 16.8 34.95 16.75 34.6 16.4 33.95
Q 15.4 32.15 14.8 30.4
L 14.35 29.2
Q 13.9 27.6 13.75 26.1
L 13.65 25.1 13.5 24.95
Q 13.4 24.9 13.35 25
M 16.55 26.8
L 16.5 26.8 15.7 26.25
Q 15.4 25.95 15.1 26.35 14.95 26.55 14.95 26.7
L 15.1 27 17.35 28.95 17.35 29
Q 18.75 30.15 19.85 30.65 20.35 30.85 20.55 30.45 20.8 30 20.4 29.75
L 16.55 26.8
M 3.9 -17.45
L 3.9 -17.3 4 -17.6 3.95 -17.5 3.9 -17.45
M 10.55 -22.65
L 10.5 -22.7 9.8 -22.7 9.8 -22.65 9.4 -22.45
Q 8.15 -21.8 6.5 -20.25
L 5.1 -19 4.25 -18 4.4 -15.3 4.6 -14.05
Q 5.1 -12.3 6.8 -12.4
L 6.85 -12.4
Q 7.15 -12.45 7.3 -12.65
L 7.45 -12.55 7.9 -12.5 8.3 -12.8 9.4 -14.95
Q 10.2 -16.9 10.6 -19.55
L 10.65 -19.7 10.85 -21.5 10.9 -22 10.9 -22.05 10.55 -22.65
M 9.2 -20.65
L 9.05 -19.7 8.5 -17.65 7.1 -13.4 6.95 -13.5
Q 6.2 -13.75 5.8 -14.1 5.35 -14.5 5.2 -15.2
L 5.2 -15.25
Q 5 -15.85 5.05 -16.6
L 5.1 -17.3 5.45 -17.45 5.5 -17.5 5.5 -17.6 6.4 -18.25 6.4 -18.3 8.15 -19.75 8.35 -19.95 9.2 -20.65
M -30.05 2.6
L -30.3 2.65
Q -32.35 4 -33.35 6.1
L -36.55 6.6
Q -38.55 6.65 -39.7 5.4 -39.1 3.65 -39.95 2.1
L -40.4 1.45 -40.6 3.4
Q -40.95 4.9 -41.6 5.85
L -41.6 5.8 -43.3 7.9 -42.05 7.4 -40.35 6.65
Q -39.45 7.75 -37.25 8.15
L -34.05 8.05
Q -34.05 11.15 -31.4 12.1
L -32.1 10.85 -32.35 10.3
Q -32.8 9.1 -32.5 7.75
L -31.85 6.05 -30.05 2.6
M -29.85 -14.4
L -30 -14.5 -32.85 -16.8
Q -34.75 -18.15 -36.35 -18.65
L -36.95 -18.45 -37.1 -17.85 -34 -11.6 -34.05 -11.4
Q -34.05 -11.1 -33.7 -11 -32.3 -10.8 -31.1 -11.5
L -31.05 -11.5
Q -30 -12.25 -29.45 -13.65 -29.35 -13.85 -29.4 -14
L -29.85 -14.4
M -35.3 -16.75
L -31.1 -13.45 -32.1 -12.45 -33.05 -12 -34.1 -14.35 -35.3 -16.75
M 9.1 -5.45
Q 7.8 -7.7 5.4 -9.4 1.35 -12.3 -3.7 -11.7 -8.85 -11.1 -11.75 -7.1
L -12.65 -5.8 -12.8 -5.3
Q -13.95 -3.35 -14.35 -1.15
L -14.5 0.05
Q -14.7 2.15 -14.15 3.95 -13.3 6.7 -10.55 8.65 -6.6 11.4 -0.75 10.45 4.6 9.5 7.75 6.15
L 8.1 5.75
Q 11.2 2.05 10.25 -2.4
L 9.1 -5.45
M 3.25 -8.75
Q 6.85 -6.9 8.2 -3.4
L 8.5 -2.55
Q 9.2 0 8.2 2.45
L 7.55 3.65
Q 5.3 7.15 0.55 8.4
L 0.5 8.4
Q -4.05 9.6 -8.1 8.05 -10.85 7.05 -12.1 4.7
L -12.65 3.3
Q -13.2 1.65 -13.05 -0.35
L -13.05 -0.4
Q -12.85 -2.55 -11.85 -4.65 -11.55 -4.65 -11.25 -5 -8.65 -8.65 -4.7 -9.7 -0.75 -10.8 3.25 -8.75
M -11.1 -1.05
L -11.1 -0.8
Q -11.1 1.6 -9.4 3.3
L -8.4 4.1
Q -7 5.05 -5.25 5.05
L -4.5 5.05
Q -3.2 4.9 -2.15 4.2
L -1.15 3.3
Q 0.6 1.6 0.6 -0.8 0.6 -3.15 -1.15 -4.95
L -2.7 -6.05
Q -3.85 -6.65 -5.25 -6.65
L -5.55 -6.65 -7.7 -6.15 -9.4 -4.95 -9.6 -4.65
Q -11 -3.1 -11.1 -1.05
M -5.25 -4.2
L -5.4 -3.6 -5.8 -3.05
Q -6.5 -2.35 -7.35 -2.35 -8.2 -2.35 -8.35 -3
L -8.45 -3.6 -8.45 -3.9 -8.25 -4.65
Q -7.85 -5.6 -6.8 -5.7
L -6.3 -5.7
Q -5.25 -5.6 -5.25 -4.2
M -19.9 -32.35
L -19.95 -32.25 -19.75 -32 -19.55 -32.05 -16.35 -34.7 -7.8 -40.15
Q -13.95 -38.15 -17.6 -34.85
L -19.05 -33.4 -19.9 -32.35
M 3.1 -29.6
L 2.75 -29.5 2.5 -29.3 2.45 -29.25 12.5 -30.4 5.3 -30.1 3.15 -29.6 3.1 -29.6
M 9.15 -31
L 9.2 -31 9.35 -31.3 9.05 -31.6 3.95 -30.75 1.2 -29.8 1.2 -29.75
Q 0.95 -29.65 1.1 -29.4 1.2 -29.2 1.45 -29.3
L 1.4 -29.3 2.45 -29.6 9.15 -31
M 15.75 11.15
Q 15.45 10.8 15.1 10.95
L 15.05 10.95 13.9 11.05
Q 13.15 11.25 12.35 11.7 11.65 12.1 11.45 12.7
L 11.4 13.1
Q 11.2 13.1 11.1 13.3 10.8 13.65 11.15 14
L 14.3 16.4 14.35 16.4 15.5 17.15 17.9 18.3
Q 18.25 18.5 18.65 18.1
L 18.7 18.1 18.85 17.35 17.8 14.7
Q 16.85 12.6 15.75 11.15
M 13.3 12.7
L 14.8 12.45 16.5 16.05 12.2 13.5 12.45 13.15
Q 12.7 12.95 13.3 12.7
M -52 -13.8
L -53.7 -13.3 -55.55 -12 -55.8 -11.7
Q -57.4 -9.95 -57.4 -7.6 -57.4 -5.05 -55.55 -3.2
L -54.5 -2.35
Q -53 -1.35 -51.15 -1.35
L -50.3 -1.35
Q -48.3 -1.65 -46.75 -3.2 -44.9 -5.05 -44.9 -7.6 -44.9 -10.1 -46.75 -12 -48.4 -13.65 -50.6 -13.8
L -51.2 -13.85 -52 -13.8
M -54.55 -10.6
L -54.3 -11.7
Q -53.9 -12.7 -52.8 -12.85 -51.15 -13 -51.15 -11.25 -51.15 -10.95 -51.3 -10.6
L -51.7 -10
Q -52.5 -9.25 -53.35 -9.25 -54.25 -9.25 -54.45 -9.95
L -54.55 -10.6 Z"/>

<path fill="#D73D00" stroke="none" d="
M -45.75 28.5
L -46.05 28.2
Q -46.5 27.75 -47 27.6
L -49.2 30.6 -50.45 32.8 -48.3 31.35 -48.2 31.3 -47.1 30.6
Q -45.95 29.95 -44.9 29.65
L -45.75 28.5
M -2.1 38.65
L -2.4 38.4
Q -2.9 38 -3.4 37.9 -4.25 37.75 -4.9 38.2
L -3.05 43.3
Q -2.8 41.2 -2.1 39.8
L -1.65 39 -2.1 38.6 -2.1 38.65
M -21.6 39.75
L -22.3 38.9 -23.35 38.35 -24.75 38.4 -25.6 38.7 -25.05 41.95 -24.65 43.95 -23.35 41.7 -21.6 39.75
M -17.1 25.2
L -17 25.1 -17.3 24.6 -19.65 28.6 -19.7 28.7 -19.55 29.1 -17.15 25.2 -17.1 25.2
M -8.8 31.3
L -9.95 31.5
Q -10.85 31.95 -11.1 32.95
L -10.4 34.3 -9.85 35 -8.8 31.3
M 23.8 21.95
L 22.55 20.45 21.75 21.9 23.8 21.95
M 20.9 7.2
L 20.3 8.75 22 9.15 26.95 9.25 26.6 8.9 25.95 8.75
Q 22.85 8.15 20.9 7.2
M 19.65 -11.6
L 19.85 -11.35 20 -11.25 21.6 -10.7 21.8 -10.7 21.95 -11 26.6 -17.95 19.65 -11.6
M -16.45 -16.25
L -16.3 -16.25 -13.9 -16.55 -13.7 -16.55 -14.2 -19.85 -16.45 -16.25
M -33.5 -26
L -33.4 -26.15 -37.2 -30.35 -35.8 -24.45 -34.3 -25.55
Q -34.05 -25.9 -33.65 -25.7
L -33.5 -26
M -7.4 -25.75
L -5.7 -25.85 -5.7 -25.8 -5.3 -25.85 -5.1 -25.65 -5 -29.85 -7.4 -25.75
M 5.2 -15.2
Q 5.35 -14.5 5.8 -14.1 6.2 -13.75 6.95 -13.5
L 7.1 -13.4 8.5 -17.65 5.2 -15.2
M -32.1 -12.45
L -34.1 -14.35 -33.05 -12 -32.1 -12.45 Z"/>

<path fill="url(#Gradient_1)" stroke="none" d="
M -55.45 22.7
Q -58.7 23.5 -60.6 24.3 -64.25 25.8 -63.45 27.75 -62.75 29.55 -61 30.6 -59.2 31.65 -57.4 31.1 -55.6 30.5 -54.8 29.1
L -53.9 25.85 -53.7 25.5 -55.45 22.7
M -55.55 23.8
L -55.35 24.05
Q -55.2 24.3 -55.5 24.6
L -55.5 24.65 -58.55 26.4 -58.6 26.4
Q -60.5 27.2 -62 26.95
L -62.05 26.95 -62.25 26.65 -62.25 26.6 -61.95 26.35
Q -60.7 26.25 -58.9 25.25 -56.75 24 -55.9 23.75
L -55.55 23.8
M -55.3 26.55
Q -55 26.75 -55.15 27.1
L -56.5 28.5 -58 29.6 -58.4 29.5
Q -58.6 29.2 -58.4 29.05
L -55.85 26.6 -55.3 26.55 Z"/>

<path fill="#FF6500" stroke="none" d="
M -53.45 15.3
L -53.75 14.7 -53.9 14.5 -54 14.6 -56.5 16 -53.6 15.95 -53.5 15.8
Q -53.35 15.55 -53.45 15.3
M -59.55 8.95
L -59.7 9.1 -61.95 10.5 -59.3 11.05 -59.55 8.95
M -17.3 24.6
L -17.7 24.15
Q -18.15 23.7 -18.75 23.6
L -19.45 23.55 -20.25 23.75
Q -20.55 23.85 -20.75 24.1
L -20.9 24.3 -20.85 24.35 -19.7 28.7 -19.65 28.6 -17.3 24.6
M -25.1 -34.3
L -25.2 -34.4
Q -25.9 -35.15 -26.5 -36.4
L -26.85 -36.95 -27.45 -33.55 -25.3 -34.05 -25.1 -34.3
M -49.65 -20.65
L -47.6 -22.75 -51.4 -23.95 -51.3 -23.6 -49.85 -21.05 -49.65 -20.65
M -34.55 27.35
L -34.6 27.35
Q -35.75 27.35 -36.65 28.25
L -36.5 28.25 -36.2 28.55 -34.15 32.7 -33.35 29.2 -33.4 29.2 -32.75 27.9 -32.7 27.85 -33.55 27.55 -34.55 27.35
M 23.7 5.8
L 22.7 5.8
Q 22 6 21.45 6.45
L 20.9 7.2
Q 22.85 8.15 25.95 8.75
L 26.6 8.9 23.7 5.8
M 26.4 -0.15
L 27.3 -0.75 29.7 -1.95 27.4 -2.2 26.05 -2.7 26.4 -0.15
M 18.6 -14.6
Q 18.65 -13.7 18.95 -12.85 19.25 -12.15 19.65 -11.6
L 26.6 -17.95 27.05 -18.9 25.6 -18.45 18.7 -15.6 18.6 -14.6
M -14.2 -19.85
L -14.4 -20.75 -15.75 -19.25 -16.5 -18.2 -17.5 -17.25 -17.6 -17.25 -17.55 -17.05
Q -17.3 -16.45 -16.55 -16.3
L -16.45 -16.25 -14.2 -19.85
M -37.8 -24.85
L -37.8 -24.8
Q -36.85 -24.2 -35.95 -24.4
L -35.8 -24.45 -37.2 -30.35 -40.2 -33.75 -39 -29.05 -37.8 -24.85
M -8.15 -27.65
L -8.55 -27.35 -8.3 -26.75 -7.65 -25.9 -7.4 -25.75 -5 -29.85 -4.95 -32.4 -7.75 -28.05 -8.15 -27.65
M 9.05 -19.7
L 9.2 -20.65 8.35 -19.95 8.15 -19.75 6.4 -18.3 6.4 -18.25 5.5 -17.6 5.5 -17.5 5.45 -17.45 5.1 -17.3 5.05 -16.6
Q 5 -15.85 5.2 -15.25
L 5.2 -15.2 8.5 -17.65 9.05 -19.7
M -31.1 -13.45
L -35.3 -16.75 -34.1 -14.35 -32.1 -12.45 -31.1 -13.45
M 14.8 12.45
L 13.3 12.7
Q 12.7 12.95 12.45 13.15
L 12.2 13.5 16.5 16.05 14.8 12.45
M 1.7 23.55
L 1.85 23.7
Q 2.55 24.85 3.7 25.9
L 4.5 26.6 4.65 25.4 4.65 23.45 4.2 23.2 3.25 22.9 3.2 22.9
Q 2.45 22.95 1.7 23.55 Z"/>

<path fill="#C8F361" stroke="none" d="
M -21.85 23.8
L -22.25 23.65
Q -31.55 20.2 -36.55 19.5 -42.95 18.65 -46.55 20.05 -49.45 21.1 -50.25 23.2 -46.6 25.45 -42.65 27.15
L -37.25 29.2 -37.35 29 -37.3 28.6 -37.1 28.4 -37.15 28.35 -37.15 28.1
Q -36.45 26.55 -34.8 26.15 -33.15 25.75 -31.9 26.85 -31.5 27.15 -31.75 27.6
L -31.95 27.8 -31.75 28.2 -32.1 30.6
Q -26.8 31.8 -21.45 31.8
L -11.35 31 -10.4 30.25
Q -9.55 29.8 -8.6 29.85
L -8.05 29.9 -7.65 29.85
Q -7.4 29.9 -7.25 30.15
L -2.1 28.55 -7.8 27.95
Q -10.8 27.45 -15.55 25.95
L -15.7 26.1 -15.75 26.1 -16.05 26.15 -19.1 31.2 -19.1 31.15
Q -19.3 31.6 -19.8 31.55 -20.25 31.5 -20.4 31.05
L -21.3 27.9 -21.7 25.15 -21.85 25.1 -22.15 24.55 -22.15 24.5 -22.1 24.3 -21.85 23.8 Z"/>

<path fill="#A0CB39" stroke="none" d="
M 10.7 32
L 10.65 31.45
Q 10.35 29.4 10.55 27.2
L 5.75 28.15 5.75 28.2 5.3 28.65 4.65 28.55 4.65 28.6 4.35 28.35 -2.1 28.55 -7.25 30.15 -7.2 30.3 -7.15 30.35 -7.1 30.45 -7.1 30.5 -7.3 31.6 -8.6 36.35
Q -8.65 36.7 -9.05 36.8
L -9.65 36.8
Q -10.65 36.3 -11.25 35.2
L -11.9 33.75 -12.25 33.3 -12.2 33.05 -12.25 33.05
Q -12.4 32.65 -12.1 32.5
L -11.7 31.5 -11.35 31 -21.45 31.8
Q -26.8 31.8 -32.1 30.6
L -33.15 34.6
Q -33.25 35 -33.7 35.1 -34.1 35.25 -34.4 34.9 -35.35 33.75 -36.05 32.05
L -36.1 32.05 -37.25 29.2 -42.65 27.15
Q -46.6 25.45 -50.25 23.2
L -50.45 23.75
Q -50.9 25.2 -50.4 27
L -50.4 27.05 -50.3 27.25 -49.15 28.5 -47.1 26.3 -46.95 26.3
Q -46.05 26.45 -45.15 27.15
L -44.4 27.95 -43.85 28.75 -43.45 30.15 -43.65 30.4 -45.5 31.6 -45.65 31.65 -44.2 32.75
Q -36.5 38.2 -26.75 39.9
L -27 38.55
Q -27.15 37.95 -26.5 37.75
L -26.2 37.7
Q -24.9 36.65 -23.25 36.9 -22.25 37.05 -21.45 37.7 -20.6 38.3 -20.45 39.35
L -20.45 39.4 -20.35 39.45 -20.4 39.45
Q -20 39.85 -20.25 40.25
L -20.45 40.6
Q -12.8 41 -5.7 39.35
L -6.05 38.05
Q -6.15 37.7 -5.7 37.5
L -5.7 37.45 -5.45 37.45
Q -4.8 36.5 -3.25 36.6 -1.5 36.75 -0.75 37.9
L 3.7 36.15
Q 7.5 34.3 10.7 32 Z"/>

<path fill="#0D8F00" stroke="none" d="
M -51.7 6.7
L -51.2 6.55
Q -48.3 5.6 -45.95 2.95 -44.45 1.25 -43.5 -0.8 -46.6 2.35 -51.7 3.2
L -58.2 3 -58.25 6.3 -54.45 7.05 -51.7 6.7
M 24.1 10.75
L 21.25 10.25 17.8 14.7 18.85 17.35 18.7 18.1 18.65 18.1
Q 18.25 18.5 17.9 18.3
L 15.5 17.15 15.05 17.55
Q 10.9 21.6 6.15 24.55
L 6 26.6 10.75 25.55 11.45 22.5 11.5 22.5
Q 11.6 22.2 12 22.2
L 12.05 22.2 12.35 22.45
Q 12.7 22.05 13.15 22.05
L 14.45 23.15
Q 14.3 22.8 14.55 22.5
L 14.55 22.45 15.35 22.35 16.4 23.1 17.85 22.1
Q 21.2 19.55 22.85 15.85
L 22.8 15.85
Q 23.75 13.35 24.3 10.75
L 24.1 10.75
M -22.75 10.45
Q -24.1 11.3 -26.2 11.3 -28.55 11.3 -30.2 10.05 -31.95 8.7 -31.95 6.65
L -31.85 6.05 -32.5 7.75
Q -32.8 9.1 -32.35 10.3
L -32.1 10.85 -31.7 11.2
Q -29.8 12.8 -27.6 12.8 -24.6 12.8 -21.75 10.55 -20 9.15 -18.75 7.25
L -22.75 10.45
M -41.6 5.85
Q -40.95 4.9 -40.6 3.4 -42.15 6.1 -43.8 7.3 -45.6 8.55 -48.45 8.55
L -50.15 8.3 -48.85 9.7
Q -47.5 10.8 -46.35 10.8 -44.6 10.8 -42.95 8.7
L -42.05 7.4 -43.3 7.9 -41.6 5.8 -41.6 5.85
M 4.3 10.05
Q 6.8 8.3 7.75 6.15 4.6 9.5 -0.75 10.45 -6.6 11.4 -10.55 8.65 -13.3 6.7 -14.15 3.95 -13.75 8.55 -10.2 10.8 -7.45 12.55 -3.7 12.55 0.6 12.55 4.3 10.05
M -51.4 22.5
L -55.1 19.95
Q -53.85 22.7 -52 25.2 -52.1 23.75 -51.4 22.5 Z"/>

<path fill="url(#Gradient_2)" stroke="none" d="
M 12.35 22.45
L 12.35 22.7 12 26.7
Q 11.85 29.4 12.05 31.25
L 12.15 32.1 12.25 32.55
Q 12.8 35.15 14.25 36.25 15.7 37.25 18.05 36.8
L 20.4 35.95
Q 21.65 35.2 22.2 33.95
L 22.15 33.95
Q 23.15 31.6 21 29.15
L 18.25 26.65 15.15 24 14.55 23.3 14.45 23.15 13.15 22.05
Q 12.7 22.05 12.35 22.45
M 16.5 26.8
L 16.55 26.8 20.4 29.75
Q 20.8 30 20.55 30.45 20.35 30.85 19.85 30.65 18.75 30.15 17.35 29
L 17.35 28.95 15.1 27 14.95 26.7
Q 14.95 26.55 15.1 26.35 15.4 25.95 15.7 26.25
L 16.5 26.8
M 13.25 25.1
L 13.35 25
Q 13.4 24.9 13.5 24.95
L 13.65 25.1 13.75 26.1
Q 13.9 27.6 14.35 29.2
L 14.8 30.4
Q 15.4 32.15 16.4 33.95
L 16.75 34.6 16.8 34.95 16.55 35.2 16.6 35.2
Q 16.2 35.4 16 35.05
L 14.95 33.3 14 30.95 13.7 29.6
Q 13.35 28 13.3 26.15
L 13.25 25.1
M 10.5 -22.7
L 10.55 -22.65 10.9 -22.05 10.9 -22 10.85 -21.5 11.65 -20.95
Q 16.55 -17.5 16.55 -14.7 16.55 -13.1 14.55 -11.2 12.2 -8.95 9.15 -8.95 5.55 -8.95 2.65 -11.85
L 2.25 -12.25 -12.4 -17.3 -12.6 -16.1
Q -12.7 -15.75 -13.1 -15.75
L -13.3 -15.75 -13.45 -15.6
Q -14.3 -15.05 -15.45 -14.95
L -15.5 -14.95 -17.05 -15.15 -17.55 -15.45 -17.5 -15.45 -17.9 -15.75
Q -18.4 -16.3 -18.4 -16.95
L -17.9 -18.5 -17.7 -18.65 -17.65 -18.65 -17.6 -18.75 -17.15 -19.5
Q -18.95 -20.65 -18.95 -21.7 -18.95 -23.95 -15.7 -25.7 -13.15 -27.1 -9.45 -27.5
L -8.9 -28.75 -8.7 -29.05 -8.7 -29.1 -8.6 -29.25 -13.65 -28
Q -14.45 -28 -15 -28.45
L -15.2 -28.65
Q -15.75 -29.3 -15.75 -30.2
L -15.7 -32.35 -16.5 -32.35 -17.4 -31.95 -17.5 -31.85 -17.55 -31.85
Q -17.65 -31.75 -17.75 -31.75
L -17.85 -31.8
Q -24.7 -29 -26.05 -28.7
L -26.3 -28.7 -26.8 -28.85 -26.95 -29.3 -26.75 -30.1 -26.9 -30.25 -26.85 -30.55 -26.9 -30.55 -26.7 -31.1 -26.2 -32.15 -26.35 -32.15 -26.55 -32.1
Q -30.65 -31.2 -34.45 -29.5
L -32.55 -26.65 -32.55 -26.7
Q -32.3 -26.35 -32.65 -26
L -33.35 -26.1 -33.4 -26.15 -33.5 -26 -33.65 -25.7 -33.5 -25.6
Q -33.05 -25.25 -33.3 -24.75 -34.2 -23.4 -35.7 -23.1
L -35.95 -23.05
Q -37.2 -22.95 -38.05 -23.7
L -38.15 -23.65
Q -38.7 -23.5 -38.85 -24.05
L -39.7 -26.7 -39.75 -26.65 -40.4 -26.25
Q -45.35 -23.1 -49.5 -18.55 -47.45 -18 -45.55 -16.65 -41.6 -13.85 -40.7 -9.6 -40.35 -8 -40.55 -6.5 -40.9 -3.85 -42.9 -1.5
L -43.5 -0.8
Q -44.45 1.25 -45.95 2.95 -48.3 5.6 -51.2 6.55
L -51.7 6.7 -54.45 7.05 -58.25 6.3
Q -58.15 9.95 -57.3 13.65
L -56.9 15.15 -54.3 13.9 -53.55 13.2 -53.45 13.35 -52.6 14.2
Q -52.25 14.85 -52.3 15.4 -52.35 15.95 -52.75 16.3
L -52.85 16.35
Q -52.8 16.7 -53 16.85 -53.85 17.55 -55.45 17.35
L -56.25 17.2 -55.1 19.95 -51.4 22.5 -50.95 21.7
Q -48.7 18.4 -43.25 17.95 -37.5 17.45 -30.35 19.5
L -20.85 22.7
Q -19.95 22.1 -18.75 22.2 -17.65 22.3 -16.55 23.25
L -16.5 23.3 -15.5 24.55 -14.9 24.75
Q -8.8 26.55 -3.1 26.95
L 2.75 26.95 2.4 26.6 0.8 24.3
Q 0.6 23.95 0.75 23.7
L 0.8 23.4
Q 1.6 21.65 3.2 21.6
L 4.75 21.85 5.65 22.55 5.9 22.95 5.9 22.9 6.15 24.55
Q 10.9 21.6 15.05 17.55
L 15.5 17.15 14.35 16.4 14.3 16.4 11.15 14
Q 10.8 13.65 11.1 13.3 11.2 13.1 11.4 13.1
L 11.45 12.7
Q 11.65 12.1 12.35 11.7 13.15 11.25 13.9 11.05
L 15.05 10.95 15.1 10.95
Q 15.45 10.8 15.75 11.15 16.85 12.6 17.8 14.7
L 21.25 10.25 19.65 9.65 19.45 9.45
Q 19.05 9.35 19.1 8.95 19.2 7.6 19.75 6.6 20.15 5.75 20.85 5.2 21.55 4.55 22.5 4.35 23.6 4.15 24.2 4.75
L 24.95 5.15 25 3.85
Q 25.05 -1.8 23.35 -7.1
L 22.45 -9.65 22.4 -9.65 22.4 -9.75
Q 21.55 -9.95 21.45 -9.75 19.6 -10.05 18.75 -10.95
L 18.1 -11.85 17.95 -12.3
Q 17.55 -13.85 17.9 -15.3 17.7 -15.3 17.65 -15.45 17.5 -15.7 17.75 -15.8
L 18.1 -16.15 18.25 -16.6 18.3 -16.6
Q 18.35 -16.8 18.6 -16.8
L 15.5 -20.6
Q 11.2 -25.2 5.55 -28.15
L -1.05 -27.4 -1.95 -27.55 -1.4 -28.65 -1.2 -28.95
Q -0.45 -29.8 -0.45 -30.1
L -0.9 -30.65 -2.35 -30.95 -3.35 -30.75 -3.4 -27.5
Q 2.1 -26.75 8.55 -22.95
L 9.4 -22.45 9.8 -22.65 9.8 -22.7 10.5 -22.7
M 5.4 -9.4
Q 7.8 -7.7 9.1 -5.45
L 10.25 -2.4
Q 11.2 2.05 8.1 5.75
L 7.75 6.15
Q 6.8 8.3 4.3 10.05 0.6 12.55 -3.7 12.55 -7.45 12.55 -10.2 10.8 -13.75 8.55 -14.15 3.95 -14.7 2.15 -14.5 0.05
L -14.35 -1.15
Q -13.95 -3.35 -12.8 -5.3
L -12.65 -5.8 -11.75 -7.1
Q -8.85 -11.1 -3.7 -11.7 1.35 -12.3 5.4 -9.4
M -29.7 -25.2
Q -27.85 -26.45 -25.35 -26.45 -24 -26.45 -22.7 -25.2 -21.45 -24 -21.45 -22.85 -21.45 -22 -22.95 -20.45 -24.9 -18.45 -27.6 -18.45 -29.25 -18.45 -30.2 -19.45 -31.2 -20.5 -31.2 -22.45
L -30.95 -24.05 -30.55 -24.5 -29.7 -25.2
M -30 -14.5
L -29.85 -14.4 -29.4 -14
Q -29.35 -13.85 -29.45 -13.65 -30 -12.25 -31.05 -11.5
L -31.1 -11.5
Q -32.3 -10.8 -33.7 -11 -34.05 -11.1 -34.05 -11.4
L -34 -11.6 -37.1 -17.85 -36.95 -18.45 -36.35 -18.65
Q -34.75 -18.15 -32.85 -16.8
L -30 -14.5
M -30.3 2.65
L -30.05 2.6 -31.85 6.05 -31.95 6.65
Q -31.95 8.7 -30.2 10.05 -28.55 11.3 -26.2 11.3 -24.1 11.3 -22.75 10.45
L -18.75 7.25
Q -20 9.15 -21.75 10.55 -24.6 12.8 -27.6 12.8 -29.8 12.8 -31.7 11.2
L -32.1 10.85 -31.4 12.1
Q -34.05 11.15 -34.05 8.05
L -37.25 8.15
Q -39.45 7.75 -40.35 6.65
L -42.05 7.4 -42.95 8.7
Q -44.6 10.8 -46.35 10.8 -47.5 10.8 -48.85 9.7
L -50.15 8.3 -48.45 8.55
Q -45.6 8.55 -43.8 7.3 -42.15 6.1 -40.6 3.4
L -40.4 1.45 -39.95 2.1
Q -39.1 3.65 -39.7 5.4 -38.55 6.65 -36.55 6.6
L -33.35 6.1
Q -32.35 4 -30.3 2.65 Z"/>

<path fill="#58DA39" stroke="none" d="
M 10.65 -19.7
L 10.6 -19.55
Q 10.2 -16.9 9.4 -14.95
L 8.3 -12.8 7.9 -12.5 7.45 -12.55 7.3 -12.65
Q 7.15 -12.45 6.85 -12.4
L 6.8 -12.4
Q 5.1 -12.3 4.6 -14.05
L 4.4 -15.3 4.25 -18 5.1 -19 6.5 -20.25
Q 8.15 -21.8 9.4 -22.45
L 8.55 -22.95
Q 2.1 -26.75 -3.4 -27.5 -3.55 -26.35 -3.85 -25.4 -4 -24.9 -4.5 -24.95
L -4.95 -25.1 -6.05 -24.9
Q -7.25 -24.7 -7.85 -24.9
L -8.25 -25.15
Q -9.05 -25.95 -9.1 -27.15
L -9.35 -27.15 -9.45 -27.2 -9.5 -27.3 -9.45 -27.5
Q -13.15 -27.1 -15.7 -25.7 -18.95 -23.95 -18.95 -21.7 -18.95 -20.65 -17.15 -19.5
L -16.55 -20.35 -14.35 -22.6 -13.7 -22.7 -13.65 -22.65 -13.3 -22.2 -12.55 -19.2 -12.4 -17.5 -12.4 -17.3 2.25 -12.25 2.65 -11.85
Q 5.55 -8.95 9.15 -8.95 12.2 -8.95 14.55 -11.2 16.55 -13.1 16.55 -14.7 16.55 -17.5 11.65 -20.95
L 10.85 -21.5 10.65 -19.7
M 3.9 -17.3
L 3.9 -17.45 3.95 -17.5 4 -17.6 3.9 -17.3
M -25.35 -26.45
Q -27.85 -26.45 -29.7 -25.2
L -30.55 -24.5 -30.95 -24.05 -31.2 -22.45
Q -31.2 -20.5 -30.2 -19.45 -29.25 -18.45 -27.6 -18.45 -24.9 -18.45 -22.95 -20.45 -21.45 -22 -21.45 -22.85 -21.45 -24 -22.7 -25.2 -24 -26.45 -25.35 -26.45 Z"/>

<path fill="#CCCCCC" stroke="none" d="
M 8.5 -2.55
L 7.45 -0.15 5.35 2.75
Q 1.3 7.25 -4.25 7.25 -9.65 7.25 -12.65 3.3
L -12.1 4.7
Q -10.85 7.05 -8.1 8.05 -4.05 9.6 0.5 8.4
L 0.55 8.4
Q 5.3 7.15 7.55 3.65
L 8.2 2.45
Q 9.2 0 8.5 -2.55
M -64.05 -6.9
Q -64.1 -4.5 -63.1 -2.55 -61.9 -0.25 -59.2 0.8
L -59.1 0.85 -58.15 1.15
Q -54.5 2.25 -50.5 1.2
L -50.45 1.2
Q -45.65 -0.05 -43.45 -3.55
L -43.15 -4.1 -43.25 -4.05
Q -47.7 -0.95 -53.2 -0.95 -61.45 -0.95 -64.05 -6.9 Z"/>

<path fill="#FFFFFF" stroke="none" d="
M 7.45 -0.15
L 8.5 -2.55 8.2 -3.4
Q 6.85 -6.9 3.25 -8.75 -0.75 -10.8 -4.7 -9.7 -8.65 -8.65 -11.25 -5 -11.55 -4.65 -11.85 -4.65 -12.85 -2.55 -13.05 -0.4
L -13.05 -0.35
Q -13.2 1.65 -12.65 3.3 -9.65 7.25 -4.25 7.25 1.3 7.25 5.35 2.75
L 7.45 -0.15
M -11.1 -0.8
L -11.1 -1.05 -11.1 -1.35
Q -11.1 -3.35 -9.75 -4.85
L -9.55 -5.1 -8 -6.2 -5.8 -6.65 -5.55 -6.65 -5.25 -6.65
Q -3.85 -6.65 -2.7 -6.05
L -1.15 -4.95
Q 0.6 -3.15 0.6 -0.8 0.6 1.6 -1.15 3.3
L -2.15 4.2
Q -3.2 4.9 -4.5 5.05
L -5.25 5.05
Q -7 5.05 -8.4 4.1
L -9.4 3.3
Q -11.1 1.6 -11.1 -0.8
M -62.25 -12.2
L -62.85 -11.85
Q -63.8 -9.8 -64 -7.55
L -64.05 -6.9
Q -61.45 -0.95 -53.2 -0.95 -47.7 -0.95 -43.25 -4.05
L -43.15 -4.1
Q -41.5 -7.25 -42.8 -10.65 -44.1 -14.1 -47.75 -15.95 -49.35 -16.8 -50.9 -17.1
L -52.2 -17.25 -55.7 -16.95
Q -59.6 -15.9 -62.25 -12.2
M -53.7 -13.3
L -52 -13.8 -51.2 -13.85 -50.6 -13.8
Q -48.4 -13.65 -46.75 -12 -44.9 -10.1 -44.9 -7.6 -44.9 -5.05 -46.75 -3.2 -48.3 -1.65 -50.3 -1.35
L -51.15 -1.35
Q -53 -1.35 -54.5 -2.35
L -55.55 -3.2
Q -57.4 -5.05 -57.4 -7.6 -57.4 -9.95 -55.8 -11.7
L -55.55 -12 -53.7 -13.3 Z"/>

<path fill="#FFFFFF" fill-opacity="0.9921568627450981" stroke="none" d="
M -5.4 -3.6
L -5.25 -4.2
Q -5.25 -5.6 -6.3 -5.7
L -6.8 -5.7
Q -7.85 -5.6 -8.25 -4.65
L -8.45 -3.9 -8.45 -3.6 -8.35 -3
Q -8.2 -2.35 -7.35 -2.35 -6.5 -2.35 -5.8 -3.05
L -5.4 -3.6
M -54.3 -11.7
L -54.55 -10.6 -54.45 -9.95
Q -54.25 -9.25 -53.35 -9.25 -52.5 -9.25 -51.7 -10
L -51.3 -10.6
Q -51.15 -10.95 -51.15 -11.25 -51.15 -13 -52.8 -12.85 -53.9 -12.7 -54.3 -11.7 Z"/>

<path fill="#33B614" fill-opacity="0.9921568627450981" stroke="none" d="
M 7 -27.95
L 7.05 -27.95
Q 9.15 -27.3 10.8 -26.45
L 10.3 -27.05
Q 9.2 -28.25 6.3 -28.25
L 6.2 -28.2 7 -27.95
M 13.85 -24.6
L 13.6 -24.7 13.75 -24.55 13.85 -24.6 Z"/>

<path fill="url(#Gradient_3)" stroke="none" d="
M 1.7 -40.4
Q 1.15 -42.8 0.4 -43.8 -0.75 -45.3 -3.05 -45.3 -10.2 -45.3 -16.7 -41 -20.4 -38.6 -23 -35.35
L -24.05 -34 -26.25 -30.2 -26.65 -30.1 -26.75 -30.1 -26.95 -29.3 -26.8 -28.85 -26.3 -28.7 -26.05 -28.7
Q -24.7 -29 -17.85 -31.8
L -17.95 -32
Q -17.85 -32.7 -16.85 -33.5
L -16.65 -33.65 -14.55 -34.95 -14.1 -35.15 -14.1 -35.2
Q -13.85 -35.3 -13.65 -35
L -13.6 -34.8 -13.6 -34.75 -13.8 -34.55 -13.75 -34.55 -15.95 -33.25 -17.4 -31.95 -16.5 -32.35 -15.7 -32.35 -15.75 -30.2
Q -15.75 -29.3 -15.2 -28.65
L -15 -28.45
Q -14.45 -28 -13.65 -28
L -8.6 -29.25 -7.55 -30.65 -7.55 -30.6 -5.05 -35.4
Q -4.8 -35.95 -4.3 -35.75 -3.75 -35.55 -3.75 -35.05
L -3.35 -30.75 -2.35 -30.95 -0.9 -30.65 -0.45 -30.1
Q -0.45 -29.8 -1.2 -28.95
L -1.4 -28.65 -1.95 -27.55 -1.05 -27.4 5.55 -28.15 4.4 -28.7 6.2 -28.2 6.3 -28.25
Q 9.2 -28.25 10.3 -27.05
L 10.8 -26.45
Q 12.4 -25.65 13.6 -24.7
L 13.85 -24.6 14.8 -24.75 15.15 -24.85
Q 15.5 -24.95 15.65 -24.6
L 15.65 -24.15 15.55 -24.1 15.5 -24.05 15.45 -24.05 14.6 -23.75 17.7 -20.65 18.2 -21.8 18.3 -22.4
Q 18.45 -23.65 17.6 -24.9
L 15.5 -26.95
Q 14.8 -27.95 15.05 -30.85 15.25 -33.25 14.05 -34.15 13.2 -34.85 11.8 -34.85
L 6.55 -34.5 6.45 -34.1
Q 6.15 -33.7 5.75 -33.85 3.85 -34.5 2.9 -36.5 2.4 -37.5 1.7 -40.4
M 9.2 -31
L 9.15 -31 2.45 -29.6 1.4 -29.3 1.45 -29.3
Q 1.2 -29.2 1.1 -29.4 0.95 -29.65 1.2 -29.75
L 1.2 -29.8 3.95 -30.75 9.05 -31.6 9.35 -31.3 9.2 -31
M 2.75 -29.5
L 3.1 -29.6 3.15 -29.6 5.3 -30.1 12.5 -30.4 2.45 -29.25 2.5 -29.3 2.75 -29.5
M -19.95 -32.25
L -19.9 -32.35 -19.05 -33.4 -17.6 -34.85
Q -13.95 -38.15 -7.8 -40.15
L -16.35 -34.7 -19.55 -32.05 -19.75 -32 -19.95 -32.25 Z"/>
</g>

<path id="Layer0_0_1_STROKES" stroke="#FFFFFF" stroke-width="8" stroke-linejoin="round" stroke-linecap="round" fill="none" d="
M 19.99002685546875 7.5414169311523445
L 19.503573608398437 9.801193237304688
Q 19.322979736328126 10.379579162597658 18.90575408935547 10.880506896972655
L 18.801625061035157 11.038545227050783 17.07015686035156 11.179136657714842 15.232147216796875 11.03159942626953
Q 13.578279113769531 10.96180419921875 12.903143310546874 12.303994750976564 12.669491577148436 12.777684020996094 12.646084594726561 13.302728271484376
L 12.756599426269531 14.32572021484375
Q 12.891514587402343 15.007383728027344 12.421940612792968 15.534840393066407
L 11.456547546386718 16.58989562988281
Q 10.884121704101561 17.5115966796875 10.967398071289061 18.351014709472658 10.996197509765624 18.823284912109376 11.235099792480469 19.320664978027345
L 11.579266357421874 19.869967651367187 10.84965362548828 20.845010375976564 9.901991271972655 20.325216674804686
Q 8.480781555175781 19.598016357421876 6.6675979614257805 19.187886047363282
L 6.274488830566405 19.2949951171875 6.196463012695311 19.426646423339843 6.171636962890624 19.689239501953125 6.437635803222655 20.343948364257812
Q 6.916007995605469 21.44368896484375 7.683076477050781 22.541868591308592
L 8.503202819824217 23.744744873046876 8.978594970703124 24.293338012695312 8.22954864501953 26.528288269042967 7.947521972656249 27.763369750976562 7.921276855468749 27.763511657714844
Q 7.450141906738281 28.002272033691405 6.7947235107421875 28.137045288085936
L 6.27010498046875 28.19237365722656 4.511682128906248 28.201881408691406
Q 4.222985839843748 28.2034423828125 4.11942443847656 28.466461181640625 3.989759826660155 28.75586700439453 4.227101135253907 28.96455078125
L 4.226959228515625 28.9383056640625
Q 4.83371887207031 29.51243438720703 5.965238952636717 30.057479858398438
L 6.702088928222656 30.420938110351564 6.728334045410156 30.420796203613282 7.516964721679686 30.652745056152344 7.543209838867186 30.652603149414062 7.558819580078124 33.53956604003906 7.42816162109375 33.64525604248047 6.5152587890625 34.70002746582031 6.2015945434570305 34.93793640136719 6.1754913330078125 34.96432342529297 6.070794677734375 35.017381286621095
Q 5.966381835937499 35.122929382324216 6.046252441406249 35.332464599609374
L 6.17861328125 35.54171600341797 6.388999938964844 35.61931610107422 6.520367431640624 35.64485168457031 7.85943603515625 35.74259490966797 8.528619384765625 38.15359802246094 9.326332092285156 40.065234375 8.673609924316406 40.698664855957034 7.996061706542967 41.594688415527344 7.919313049316406 41.962545776367186 8.183183288574218 42.223577880859374 9.443516540527343 42.321746826171875 10.492753601074218 42.211090087890625 11.312738037109375 43.38772125244141 10.973112487792967 43.678262329101564
Q 9.536300659179688 44.91958770751953 9.096661376953124 46.129275512695315 8.527215576171875 47.6021240234375 9.478567504882811 48.804290771484375
L 10.0328369140625 49.37870330810547
Q 10.797209167480467 49.97822570800781 11.900355529785156 50.129736328125 14.947201538085936 50.559442138671876 15.745190429687499 47.66808013916015
L 16.588156127929686 48.24093170166016
Q 19.090098571777343 49.82840270996094 21.85108642578125 50.78457183837891
L 22.19922637939453 52.06873779296875
Q 22.440541076660157 53.01228485107422 22.47189483642578 53.956967163085935
L 22.47203674316406 53.983212280273435
Q 22.499842834472656 54.271766662597656 22.76257781982422 54.322837829589844 23.025454711914062 54.40015411376953 23.20789337158203 54.16295471191406 23.80699005126953 53.319847106933594 24.194281005859374 52.136688232421875
L 24.348204040527342 51.47970886230469 29.049485778808595 52.084190368652344 32.88113098144531 52.037226867675784 33.27778778076172 52.586245727539065 34.23155212402344 54.234579467773436
Q 34.36377105712891 54.41758575439453 34.59997711181641 54.41630859375 34.86242828369141 54.41488952636719 34.94017028808594 54.23074798583984
L 34.94002838134766 54.20450286865234
Q 35.3033447265625 53.44140777587891 35.45414581298828 52.207035827636716
L 35.50393981933594 51.70809478759766
Q 38.20463256835937 51.221066284179685 40.745016479492186 50.20998687744141 43.99245758056641 48.90637969970703 46.370120239257815 46.92508239746094
L 46.47538452148437 46.97700500488281 48.45029602050781 48.17363739013672
Q 48.608334350585935 48.277766418457034 48.76523742675781 48.17193450927734 48.94852752685547 48.09220581054687 48.921289062499994 47.90863189697266 48.89107055664063 47.173910522460936 48.49327850341797 46.414930725097655
L 47.99022216796875 45.6040283203125 47.99036407470703 45.6302734375 47.91077728271485 45.473228454589844 49.136634826660156 44.049322509765624
Q 49.140466308593744 44.757940673828124 49.564361572265625 45.490533447265626 50.2260238647461 46.510545349121095 51.251286315917966 46.819952392578124
L 53.53404388427734 46.70262603759765
Q 54.63406829833984 46.27674407958985 55.23202972412109 45.22367553710937 55.77806854248047 44.27587127685547 55.51164398193359 43.54242706298828 55.27146453857422 42.808840942382815 54.19243469238282 42.263511657714844 53.50807495117188 41.89976959228515 52.32505798339844 41.53872375488281
L 50.93193817138672 41.15256805419922 51.941732788085936 38.60125732421875 52.071965026855466 38.416831970214844 52.07182312011719 38.390586853027344 52.04486846923828 38.25950317382812 52.506779479980466 36.31481018066406 55.12845306396484 35.775717163085936 55.15469818115234 35.77557525634766 55.38920135498047 35.459356689453124
Q 55.36153717041016 35.19704742431641 55.15115051269531 35.11944732666016
L 55.15100860595703 35.09320220947266
Q 54.54609375 34.860260009765625 53.703269958496094 34.313653564453126
L 53.729515075683594 34.31351165771484 52.78142700195312 33.71498260498047 52.715171813964844 31.16949005126953 53.73560943603516 30.586563110351562
Q 56.350187683105474 28.735214233398438 55.728669738769526 25.431593322753905
L 55.51416778564453 24.592884826660157 54.7967514038086 22.96951904296875 54.79689331054688 22.99576416015625 54.34703674316407 22.31580352783203 54.346894836425776 22.28955841064453
Q 52.81346740722656 20.224424743652342 50.082272338867185 19.924241638183595 49.16312561035156 19.82422790527344 48.297604370117185 19.93389129638672
L 47.980676269531244 19.568162536621095 48.4234375 18.935867309570312 48.8650634765625 18.09361114501953
Q 49.25462493896484 17.33037414550781 49.30370941162109 16.70020751953125
L 49.30356750488281 16.67396240234375 49.14439392089844 16.35987243652344 48.80278167724609 16.282981872558594 45.89468231201172 17.243557739257813 45.71153411865234 17.34953155517578
Q 44.2083251953125 16.019119262695312 42.470613098144526 15.004925537109376
L 42.70298767089844 14.295030212402343
Q 43.24448547363281 12.507382202148438 43.290306091308594 11.273577880859374
L 43.290164184570315 11.247332763671874
Q 43.31513214111328 11.010984802246092 43.07850036621093 10.933526611328126
L 42.73773956298828 11.014106750488281 40.02286376953125 13.73211212158203
Q 38.28642883300781 12.954124450683594 36.367697143554686 12.439581298828124
L 36.229234313964845 11.10178985595703 35.85286254882813 9.45033416748047 35.562747192382815 9.189443969726561 35.536502075195315 9.189585876464843
Q 35.35264434814453 9.164334106445313 35.19630889892578 9.375146484375001
L 34.130618286132815 11.29685821533203 34.05131530761719 11.192303466796876
Q 32.7816162109375 9.361956787109374 30.700730895996095 7.982176208496092 27.302339172363283 5.638421630859376 23.469842529296873 5.527914428710936 20.55606689453125 5.4386856079101555 19.99002685546875 7.5414169311523445 Z"/>
</defs>

<g transform="matrix( -0.52490234375, 0.002838134765625, 0.002838134765625, 0.52490234375, 21.45,30) ">
<use xlink:href="#Layer0_0_FILL"/>

<use xlink:href="#Layer0_0_1_STROKES" transform="matrix( -1.905059814453125, 0.0102996826171875, 0.0102996826171875, 1.905059814453125, 40.55,-57.35) "/>
</g>

<g transform="matrix( -0.52490234375, 0.002838134765625, 0.002838134765625, 0.52490234375, 21.45,30) ">
<use xlink:href="#Layer0_0_MEMBER_0_FILL"/>
</g>
</svg>
