
<svg xmlns="http://www.w3.org/2000/svg" version="1.1" xmlns:xlink="http://www.w3.org/1999/xlink" preserveAspectRatio="none" x="0px" y="0px" width="60px" height="60px" viewBox="0 0 60 60">
<defs>
<g id="Layer0_0_FILL">
<path fill="#FFFFFF" stroke="none" d="
M 17.1 -14.8
L 15.75 -17.1 12.5 -19.55
Q 10.15 -21.3 7.3 -22.1
L -0.55 -22.65 -4.55 -22.15
Q -6.45 -21.95 -8.2 -21.2 -9.9 -20.45 -11.3 -19.25 -12.8 -18 -13.95 -16.4
L -15.85 -13.2 -16.4 -11.8 -17.05 -8.9 -17.15 -7.4 -16.85 -4.35 -16.1 -1.5
Q -15.65 -0.2 -14.85 0.9
L -13.1 2.8 -12.1 3.6 -9.45 4.65 -7.65 4.7
Q -4.5 4.7 -1.65 3.3 0 2.6 1.55 1.35 3.05 0.15 4.15 -1.5
L 4.15 0.7
Q 4.1 2.95 4.4 5.05
L 2.25 7.9 0.55 10.95
Q -1.05 14.2 -1.6 17.7 -1.75 18.45 -1.4 19.1 -0.9 20.15 0.05 20.45 0.1 21.35 0.45 22.25 0.7 22.95 1.4 23.35
L 3.55 24.2 4.95 24.25 7.35 23.4 9.4 21.7 13.8 15.4
Q 15.05 13.65 15.6 11.65 16.15 9.75 15.85 7.7
L 16.65 6.15 17.9 3 18.75 -0.8 19.25 -7.4 19.05 -9.15 17.1 -14.8 Z"/>
</g>

<g id="Layer0_1_FILL">
<path fill="#000000" stroke="none" d="
M 13.05 -14.7
Q 12.65 -16.35 11.15 -17.45 5.05 -21.8 -1.95 -20.15
L -5.95 -19.4
Q -12.9 -18.1 -15.15 -11.1 -16.85 -5.9 -14.75 -0.9 -12.95 3.3 -8.3 3.75 -6.25 3.55 -4.4 2.65 0.25 0.5 2.05 -4.45
L 0.15 -7.45 0.85 -7.95
Q 6.05 -6.65 6.4 -1.65 6.65 1.55 8.05 4.55 3.75 10.4 3.9 17.7
L 4.95 17.7 5 18.75 5.8 19.05 6.15 20.75
Q 10.6 21 12.05 16.3 12.8 13.9 13.9 11.7 15.65 8.25 14.2 4.85 15.8 1.55 15.85 -1.8 15.95 -6 15.35 -10.15 15.15 -11.4 14.4 -12.35
L 13.25 -13.65 13.05 -14.7
M 10.45 -16.1
Q 11.7 -14.75 12.15 -13.1
L 8.65 -10.65 8.4 -10.25
Q 10.15 -11.9 12.6 -12.25
L 12.95 -12.2
Q 15.4 -9.4 14.6 -5.5
L 14.45 -4.7 11.45 -4.7
Q 10.5 -4.4 12.65 -4.15 15.25 -3.9 14.85 -1.1 14.4 2.25 12.5 5
L 12.95 5.05
Q 13.75 6.4 13.35 7.9 12 13.25 9.6 17.75
L 7.15 19.3 7.3 18.8
Q 8.25 15.3 7.65 11.7 7.15 8.8 8.25 6.55
L 9.3 4.95 8.9 3.7
Q 7.3 0.1 7.8 -3.7
L 8.55 -3.8 7.65 -4.25 7.55 -4.3 4.7 -7.5 5.2 -7.95 2.5 -8.85 2.6 -9.4 0.9 -9.15 0.8 -10.5 -0.55 -9 -0.95 -9.25 -1.1 -7.8
Q -1.15 -5.55 0.75 -4.45 -1.1 -0.15 -5.4 1.65 -9.8 3.4 -13.4 0.05 -14.95 -2.75 -14.6 -5.85
L -14.35 -7.5
Q -10.8 -6.45 -7.25 -7.35
L -6 -7.9 -14.35 -7.9
Q -14.8 -12.5 -12 -15.25 -8.35 -13 -4.3 -12.5
L -10.05 -14.7 -11.7 -16.1
Q -8.15 -18.35 -3.95 -18.6
L -2.25 -18.65 -1.6 -14.65 -1.7 -17.1
Q -1.3 -19.4 1.15 -19.35 4.65 -19.65 7.75 -17.9 4.9 -16.9 4.4 -14
L 6.55 -16.6
Q 8.65 -17.95 10.45 -16.1
M 5.8 10.9
L 6.8 8.25 6.95 14.55 5.05 16.35 5.8 10.9 Z"/>

<path fill="#990000" stroke="none" d="
M 6.8 8.25
L 5.8 10.9 5.05 16.35 6.95 14.55 6.8 8.25 Z"/>

<path fill="#FFCCCC" stroke="none" d="
M -7.75 -11.25
L -2.85 -11.6 -4.3 -12.5
Q -8.35 -13 -12 -15.25 -14.8 -12.5 -14.35 -7.9 -11.25 -10.9 -7.75 -11.25
M -14.35 -7.5
L -14.6 -5.85
Q -14.95 -2.75 -13.4 0.05 -9.15 -5.5 -2.5 -6.55
L -3.6 -6.9 -7.25 -7.35
Q -10.8 -6.45 -14.35 -7.5
M -1.35 -12.85
L -1.6 -14.65 -2.25 -18.65 -3.95 -18.6
Q -8.15 -18.35 -11.7 -16.1
L -10.05 -14.7 -8.7 -15.65
Q -4.35 -17.4 -1.35 -12.85
M 14.85 -1.1
Q 15.25 -3.9 12.65 -4.15 13.8 1.1 9.1 4.1
L 8.9 3.7 9.3 4.95 12.4 5 12.5 5
Q 14.4 2.25 14.85 -1.1
M 9.25 -5.35
L 7.55 -4.3 7.65 -4.25 11.45 -4.7 14.45 -4.7 14.6 -5.5
Q 15.4 -9.4 12.95 -12.2 13.3 -7.65 9.25 -5.35
M 3.3 -12.75
L 4.4 -14
Q 4.9 -16.9 7.75 -17.9 4.65 -19.65 1.15 -19.35 -1.3 -19.4 -1.7 -17.1
L 0.15 -18.4
Q 5.15 -17.8 3.3 -12.75
M 12.15 -13.1
Q 11.7 -14.75 10.45 -16.1 8.65 -17.95 6.55 -16.6
L 8 -16.2
Q 8.85 -14.55 8.35 -12.9 7.65 -10.5 5.8 -9
L 6.55 -8.9 8.65 -10.65 12.15 -13.1 Z"/>

<path fill="#CC3333" stroke="none" d="
M 9.3 4.95
L 8.25 6.55
Q 7.15 8.8 7.65 11.7 8.25 15.3 7.3 18.8 9.6 16.4 9.95 12.9 10.4 8.65 12.4 5
L 9.3 4.95 Z"/>

<path fill="#FF6666" stroke="none" d="
M 12.5 5
L 12.4 5
Q 10.4 8.65 9.95 12.9 9.6 16.4 7.3 18.8
L 7.15 19.3 9.6 17.75
Q 12 13.25 13.35 7.9 13.75 6.4 12.95 5.05
L 12.5 5 Z"/>

<path fill="#FFE6E6" stroke="none" d="
M 8.55 -3.8
L 7.8 -3.7
Q 7.3 0.1 8.9 3.7
L 9.1 4.1
Q 13.8 1.1 12.65 -4.15 10.5 -4.4 11.45 -4.7
L 7.65 -4.25 8.55 -3.8
M 4.4 -14
L 3.3 -12.75
Q 5.15 -17.8 0.15 -18.4
L -1.7 -17.1 -1.6 -14.65 -1.35 -12.85
Q -4.35 -17.4 -8.7 -15.65
L -10.05 -14.7 -4.3 -12.5 -2.85 -11.6 -7.75 -11.25
Q -11.25 -10.9 -14.35 -7.9
L -6 -7.9 -7.25 -7.35 -3.6 -6.9 -2.5 -6.55
Q -9.15 -5.5 -13.4 0.05 -9.8 3.4 -5.4 1.65 -1.1 -0.15 0.75 -4.45 -1.15 -5.55 -1.1 -7.8
L -0.95 -9.25 -0.55 -9 0.8 -10.5 0.9 -9.15 2.6 -9.4 2.5 -8.85 5.2 -7.95 4.7 -7.5 7.55 -4.3 9.25 -5.35
Q 13.3 -7.65 12.95 -12.2
L 12.6 -12.25
Q 10.15 -11.9 8.4 -10.25
L 8.65 -10.65 6.55 -8.9 5.8 -9
Q 7.65 -10.5 8.35 -12.9 8.85 -14.55 8 -16.2
L 6.55 -16.6 4.4 -14 Z"/>
</g>
</defs>

<g transform="matrix( 1, 0, 0, 1, 28.95,29.2) ">
<use xlink:href="#Layer0_0_FILL"/>
</g>

<g transform="matrix( 0.9849395751953125, 0.1696624755859375, -0.1696624755859375, 0.9849395751953125, 29,29.3) ">
<use xlink:href="#Layer0_1_FILL"/>
</g>
</svg>
