
<svg xmlns="http://www.w3.org/2000/svg" version="1.1" xmlns:xlink="http://www.w3.org/1999/xlink" preserveAspectRatio="none" x="0px" y="0px" width="60px" height="60px" viewBox="0 0 60 60">
<defs>
<g id="Layer0_0_MEMBER_0_FILL">
<path fill="#000000" stroke="none" d="
M 3.35 -15.6
L 3.2 -15.8 3.15 -15.85 3.1 -15.95 2.5 -16.6
Q 1.55 -17.45 0.55 -17.8 -9.95 -21.8 -16.2 -14.6
L -16.4 -14.25
Q -19.25 -11.3 -19.55 -6.9 -19.95 -1.65 -16.5 1.9 -15.55 3.05 -14.2 3.8
L -13.7 4.1 -13.9 3.9 -13.35 4.15 -12.05 4.55 -11.25 3.95 -11.1 3.75 -7.05 6.75
Q -6.7 7 -6.5 7.4 -6.05 8.05 -6 9
L -5.95 9.85 -6.15 12.95
Q -6.35 14.85 -5.35 16.5
L -4.3 17.7 -2.75 18.75
Q -2.35 18.95 -2.05 18.75
L -1.8 18.6 -1.35 18.5
Q -0.85 18.2 -0.7 17.7
L -1.15 17.2 -2.45 16.55
Q -3.35 16 -3.75 14.95 -4.25 13.5 -4.15 12
L -3.95 9.8
Q -3.85 9.05 -4.1 8.35 -4.5 7.25 -5.15 6.4 -7.15 3.9 -10.1 3.05
L -8.6 0.75 -7.5 1.7
Q -5.75 2.75 -4.55 4.5
L -0.1 10.6
Q 1.75 13 4.45 14.4 5.4 14.9 6.4 13.25 2.4 11.05 -0.05 7.15 -3.1 2.3 -7.9 -0.1
L -4.7 -3.55 2.9 6.2
Q 4.85 8.5 7.3 10.4
L 8.25 11.1
Q 9.15 11.9 10 11.3 10.45 11.3 10.9 10.9 11.2 10.65 10.95 10.45
L 6.7 6.9
Q 2.3 2.9 -1.1 -1.95
L -1.2 -2.1
Q -2.3 -3.55 -3.75 -4.55
L -0.2 -8.2 0.8 -6.95 3.45 -4.65
Q 4.5 -3.85 5.45 -3.4 11.45 -0.85 12.7 5.45 12.85 6.2 13.35 6.8 14 7.7 14.75 7.35
L 15.25 6.3 15.3 5.5
Q 14.5 1.05 11.15 -1.8
L 10.2 -2.45
Q 5.85 -4.7 2.1 -7.65
L 1.75 -7.95 1.7 -8.1 0.65 -9.15 3 -11.45 3.2 -11.2
Q 4.4 -10.05 5.8 -9.25 7.65 -8.15 9.85 -7.85 13.25 -7.35 15.6 -5 17.15 -3.45 17.1 -1.25 16.7 -0.45 17.25 0.2
L 17.85 0.3 18.25 0.1 18.55 0.05
Q 20.25 -0.65 19.5 -3.05 18.15 -7.3 12.3 -8.45 6.75 -9.55 4.25 -12.65
L 4.15 -12.95 4.5 -13.3 4.5 -13.6 3.35 -15.6
M 0.25 -8.65
L 0.3 -8.75 0.55 -8.35 0.25 -8.65
M -10.8 3.3
L -10.75 3.25 -10.6 3.35 -10.8 3.3
M 3.4 -13.8
L 3.4 -13.35 3.45 -13.15 3.25 -13 2.95 -12.75 2.9 -12.7 2.55 -12.4 0.3 -10.4 -0.5 -9.7 -1.95 -8.3 -2.55 -7.7 -3 -7.25 -3.15 -7.15 -4.2 -6 -4.9 -5.35 -5.85 -4.35 -6.25 -3.85 -7 -3.05 -7.95 -1.95 -8.7 -1.05 -9.55 -0.1 -9.65 0.05 -10.05 0.55 -11.35 2.2 -12.1 3.2 -12.35 3.5 -12.5 3.65 -15.05 2.7 -16.55 1.15
Q -18.15 -1.05 -18.75 -3.7
L -18.75 -3.8 -18.8 -3.95
Q -19.25 -6.25 -18.55 -8.25
L -18.5 -8.45 -18.1 -9.55
Q -16.25 -13.9 -12.4 -16.5
L -12.2 -16.65 -11.15 -17.3 -11.1 -17.35
Q -9 -18.55 -6.3 -18.75
L -2.3 -18.4
Q 0.35 -17.65 2.5 -15.3
L 3 -14.75 3.4 -13.8 Z"/>

<path fill="#273FA3" stroke="none" d="
M -9.55 -0.1
L -8.7 -1.05 -9.75 -2.3 -11 -1.2 -9.65 0.05 -9.55 -0.1
M -6.25 -3.85
L -5.85 -4.35 -4.9 -5.35 -6 -6.5 -7.35 -4.95 -6.25 -3.85
M -2.6 -11.6
Q -2.7 -10.6 -3.45 -9.65
L -3.6 -9.4 -3.85 -9.55 -1.95 -8.3 -0.5 -9.7 -2.6 -11.6
M 3.4 -13.35
L 3.4 -13.8 3 -14.75 2.5 -15.3
Q 0.35 -17.65 -2.3 -18.4
L -6.3 -18.75
Q -9 -18.55 -11.1 -17.35
L -11.15 -17.3 -12.2 -16.65 -12.4 -16.5
Q -16.25 -13.9 -18.1 -9.55
L -18.5 -8.45 -18.55 -8.25
Q -19.25 -6.25 -18.8 -3.95
L -18.75 -3.8 -18.75 -3.7
Q -18.15 -1.05 -16.55 1.15
L -15.05 2.7 -12.5 3.65 -12.35 3.5 -12.7 3.15
Q -14.45 1.25 -15.65 -0.95 -16.35 -2.15 -16.7 -3.4 -17.1 -4.6 -17.1 -5.8
L -16.95 -8.05
Q -16.45 -6.95 -15.55 -5.95
L -15.3 -5.65
Q -15.2 -7.75 -14.05 -9.5
L -14.2 -9.9 -14.75 -11.05 -13.55 -10.15 -11.5 -12.45 -12.4 -13.25 -11.1 -12.85
Q -9.65 -14.15 -7.85 -14.75
L -9.95 -16 -10 -16.05
Q -3.6 -17.65 3 -13.15
L 3.25 -13 3.45 -13.15 3.4 -13.35 Z"/>

<path fill="#A9D1FA" stroke="none" d="
M -4.15 -8.5
L -4.25 -8.6
Q -6.15 -9.95 -8 -10.65 -7.35 -9.2 -5.65 -7.6
L -4.2 -6 -3.15 -7.15 -3 -7.25 -2.55 -7.7 -4.15 -8.5
M -13.05 -2
L -14.3 -2.6 -14.35 -2.7 -15 -2.9
Q -15.2 -2.55 -14.7 -2.2 -13.8 0.4 -11.95 2.45
L -11.75 2.7 -11.35 2.2 -10.05 0.55 -10.1 0.55 -12.75 -1.55 -12.8 -1.65 -13.05 -2
M 0.3 -10.4
L 2.55 -12.4
Q 0.55 -13.75 -2 -14.2
L -2.1 -14.25 -4.65 -14.95 -4.65 -14.75 -2.7 -13.55 0.3 -10.4
M -10.75 -6.1
L -10.75 -6 -8.15 -2.45 -7.95 -1.95 -7 -3.05 -7.7 -3.95 -7.8 -4
Q -9.25 -5.5 -10.75 -6.1 Z"/>

<path fill="#953FBA" stroke="none" d="
M -11.6 -1.8
L -11 -1.2 -9.75 -2.3 -9.85 -2.4 -11.85 -5.25 -14.05 -9.5
Q -15.2 -7.75 -15.3 -5.65
L -11.7 -1.85 -11.6 -1.8
M -13.55 -10.15
L -13.45 -10.05 -7.55 -5.2 -7.35 -4.95 -6 -6.5 -7 -7.65
Q -9.2 -10.4 -11.5 -12.45
L -13.55 -10.15
M -7.75 -14.7
L -7.85 -14.75
Q -9.65 -14.15 -11.1 -12.85
L -7.4 -11.4 -7.2 -11.35 -3.85 -9.55 -3.6 -9.4 -3.45 -9.65
Q -2.7 -10.6 -2.6 -11.6 -5 -13.6 -7.75 -14.7 Z"/>

<path fill="#56A3F5" stroke="none" d="
M -15.3 -5.65
L -15.55 -5.95
Q -16.45 -6.95 -16.95 -8.05
L -17.1 -5.8
Q -17.1 -4.6 -16.7 -3.4 -16.35 -2.15 -15.65 -0.95 -14.45 1.25 -12.7 3.15
L -12.35 3.5 -12.1 3.2 -11.75 2.7 -11.95 2.45
Q -13.8 0.4 -14.7 -2.2 -15.2 -2.55 -15 -2.9
L -14.35 -2.7 -14.3 -2.6 -13.05 -2 -12.8 -1.65 -12.75 -1.55 -10.1 0.55 -10.05 0.55 -9.65 0.05 -11 -1.2 -11.6 -1.8 -11.7 -1.85 -15.3 -5.65
M -13.45 -10.05
L -13.55 -10.15 -14.75 -11.05 -14.2 -9.9 -14.05 -9.5 -11.85 -5.25 -9.85 -2.4 -9.75 -2.3 -8.7 -1.05 -7.95 -1.95 -8.15 -2.45 -10.75 -6 -10.75 -6.1
Q -9.25 -5.5 -7.8 -4
L -7.7 -3.95 -7 -3.05 -6.25 -3.85 -7.35 -4.95 -7.55 -5.2 -13.45 -10.05
M -11.1 -12.85
L -12.4 -13.25 -11.5 -12.45
Q -9.2 -10.4 -7 -7.65
L -6 -6.5 -4.9 -5.35 -4.2 -6 -5.65 -7.6
Q -7.35 -9.2 -8 -10.65 -6.15 -9.95 -4.25 -8.6
L -4.15 -8.5 -2.55 -7.7 -1.95 -8.3 -3.85 -9.55 -7.2 -11.35 -7.4 -11.4 -11.1 -12.85
M 2.55 -12.4
L 2.9 -12.7 2.95 -12.75 3.25 -13 3 -13.15
Q -3.6 -17.65 -10 -16.05
L -9.95 -16 -7.85 -14.75 -7.75 -14.7
Q -5 -13.6 -2.6 -11.6
L -0.5 -9.7 0.3 -10.4 -2.7 -13.55 -4.65 -14.75 -4.65 -14.95 -2.1 -14.25 -2 -14.2
Q 0.55 -13.75 2.55 -12.4
M -0.2 -14.85
L -0.25 -14.85 -0.25 -14.9 -0.2 -14.85 Z"/>

<path fill="#203E94" stroke="none" d="
M -0.25 -14.85
L -0.2 -14.85 -0.25 -14.9 -0.25 -14.85 Z"/>
</g>

<path id="Layer0_0_1_STROKES" stroke="#FFFFFF" stroke-width="5" stroke-linejoin="round" stroke-linecap="round" fill="none" d="
M 33.10398941040039 14.35
L 33.154052734375 14.399999999999999 33.30424270629883 14.6 34.45569915771485 16.6 34.45569915771485 16.9 33.504496002197264 17.799999999999997
Q 36.00766220092773 20.9 41.564691162109376 22 47.42210006713867 23.15 48.773809814453124 27.4 49.524759674072264 29.8 47.82260665893555 30.5
L 47.22184677124024 30.4
Q 46.67115020751953 29.75 47.07165679931641 28.95 47.12172012329101 26.75 45.569757080078126 25.2 43.21678085327149 22.85 39.81247482299805 22.35 37.60968856811523 22.049999999999997 35.757345581054686 20.95 34.35557250976562 20.15 33.154052734375 19 32.90373611450195 18.7 32.803609466552736 18.45
L 29.89993667602539 21.299999999999997 30.951266479492187 22.35 31.001329803466795 22.5 31.351773071289063 22.799999999999997
Q 35.10652236938476 25.75 39.462031555175784 28
L 40.41323471069336 28.65
Q 43.767477416992186 31.5 44.56849060058594 35.95
L 44.51842727661133 36.75
Q 44.11792068481445 38.05 43.316907501220705 37 42.81627426147461 36.4 42.66608428955078 35.65 41.41450119018555 29.349999999999998 35.40690231323242 26.8 34.45569915771485 26.349999999999998 33.60462265014648 25.799999999999997
L 31.201583099365234 23.75 30.951266479492187 23.65 29.549493408203123 21.7 25.494364166259764 25.9
Q 26.946200561523437 26.9 28.04759368896484 28.349999999999998
L 28.147720336914062 28.5
Q 31.552026367187498 33.35 35.95759887695313 37.35
L 40.212981414794925 40.9
Q 40.46329803466797 41.1 40.16291809082031 41.35
L 38.21044845581055 41.3 37.25924530029297 40.6
Q 34.80614242553711 38.7 32.85367279052734 36.4
L 25.04379425048828 26.349999999999998 21.339108276367185 30.349999999999998
Q 26.145187377929688 32.75 29.19905014038086 37.6 31.65215301513672 41.5 35.65721893310547 43.7 35.907535552978516 45.35 34.405635833740234 44.6 31.702216339111327 43.2 29.849873352050782 40.8
L 25.394237518310547 34.7
Q 24.19271774291992 32.95 22.440501403808593 31.9
L 21.339108276367185 30.95 20.98866500854492 30.8 19.136322021484375 33.5
Q 22.09005813598633 34.35 24.092591094970704 36.85 24.743414306640624 37.7 25.1439208984375 38.8 25.394237518310547 39.5 25.294110870361326 40.25
L 25.09385757446289 42.45
Q 24.99373092651367 43.95 25.494364166259764 45.4 25.89487075805664 46.45 26.796010589599607 47
L 28.097657012939454 47.65 28.548226928710935 48.15
Q 28.39803695678711 48.65 27.897403717041016 48.95 27.59702377319336 49.15 27.196517181396484 48.95
L 25.644554138183594 47.9 24.593224334716798 46.7
Q 23.59195785522461 45.05 23.792211151123045 43.15
L 23.992464447021483 40.05 23.942401123046874 39.2
Q 23.892337799072266 38.25 23.44176788330078 37.6 23.241514587402342 37.2 22.891071319580078 36.95
L 18.835942077636716 33.95 18.68575210571289 34.15 17.88473892211914 34.75 16.583092498779294 34.35 16.032395935058595 34.1 16.23264923095703 34.3 15.732015991210938 34
Q 14.380306243896483 33.25 13.429103088378906 32.1 9.974733734130858 28.55 10.375240325927734 23.299999999999997 10.67562026977539 18.9 13.529229736328126 15.95
L 13.729483032226561 15.6
Q 19.987398529052733 8.399999999999999 30.5006965637207 12.399999999999999 31.50196304321289 12.75 32.45316619873047 13.599999999999998
L 33.05392608642578 14.25 33.10398941040039 14.35 Z"/>
</defs>

<g transform="matrix( 1.0012664794921875, 0, 0, 1, 29.95,30.2) ">
<use xlink:href="#Layer0_0_1_STROKES" transform="matrix( 0.9987335205078125, 0, 0, 1, -29.9,-30.2) "/>
</g>

<g transform="matrix( 1.0012664794921875, 0, 0, 1, 29.95,30.2) ">
<use xlink:href="#Layer0_0_MEMBER_0_FILL"/>
</g>
</svg>
